<svg xmlns="http://www.w3.org/2000/svg" xmlns:xlink="http://www.w3.org/1999/xlink" width="204.166" height="204.166" viewBox="0 0 204.166 204.166">
  <defs>
    <clipPath id="clip-path">
      <circle id="Ellipse_691" data-name="Ellipse 691" cx="102" cy="102" r="102" fill="#3639a3"/>
    </clipPath>
  </defs>
  <g id="logo-icon" transform="translate(24543 445)">
    <g id="Path_16568" data-name="Path 16568" transform="translate(-24543 -445)" fill="#3639a3">
      <path d="M 102.0830078125 199.1660003662109 C 95.49277496337891 199.1660003662109 88.90818786621094 198.5023956298828 82.51209259033203 197.1935424804688 C 76.2811279296875 195.9185028076172 70.15215301513672 194.0159759521484 64.29544830322266 191.5388031005859 C 58.54397964477539 189.1061248779297 52.99627304077148 186.0948944091797 47.80647659301758 182.5887145996094 C 42.6646842956543 179.1150054931641 37.82941818237305 175.1255035400391 33.4349479675293 170.7310638427734 C 29.04050827026367 166.3365936279297 25.0510082244873 161.5013275146484 21.57730102539063 156.3595428466797 C 18.07112503051758 151.1697387695313 15.059889793396 145.6220397949219 12.62721347808838 139.8705596923828 C 10.15003681182861 134.0138549804688 8.24750804901123 127.8848876953125 6.97247838973999 121.653923034668 C 5.663625240325928 115.2578277587891 5.000007629394531 108.6732406616211 5.000007629394531 102.0830078125 C 5.000007629394531 95.49277496337891 5.663625240325928 88.90818786621094 6.97247838973999 82.51209259033203 C 8.24750804901123 76.2811279296875 10.15003681182861 70.15215301513672 12.62721347808838 64.29544830322266 C 15.059889793396 58.54397964477539 18.07112503051758 52.99627304077148 21.57730102539063 47.80647659301758 C 25.0510082244873 42.6646842956543 29.04050827026367 37.82941818237305 33.4349479675293 33.4349479675293 C 37.82941818237305 29.04050827026367 42.6646842956543 25.0510082244873 47.80647659301758 21.57730102539063 C 52.99627304077148 18.07112503051758 58.54397964477539 15.059889793396 64.29544830322266 12.62721347808838 C 70.15215301513672 10.15003681182861 76.2811279296875 8.24750804901123 82.51209259033203 6.97247838973999 C 88.90818786621094 5.663625240325928 95.49277496337891 5.000007629394531 102.0830078125 5.000007629394531 C 108.6732406616211 5.000007629394531 115.2578277587891 5.663625240325928 121.653923034668 6.97247838973999 C 127.8848876953125 8.24750804901123 134.0138549804688 10.15003681182861 139.8705596923828 12.62721347808838 C 145.6220397949219 15.059889793396 151.1697387695313 18.07112503051758 156.3595428466797 21.57730102539063 C 161.5013275146484 25.0510082244873 166.3365936279297 29.04050827026367 170.7310638427734 33.4349479675293 C 175.1255035400391 37.82941818237305 179.1150054931641 42.6646842956543 182.5887145996094 47.80647659301758 C 186.0948944091797 52.99627304077148 189.1061248779297 58.54397964477539 191.5388031005859 64.29544830322266 C 194.0159759521484 70.15215301513672 195.9185028076172 76.2811279296875 197.1935424804688 82.51209259033203 C 198.5023956298828 88.90818786621094 199.1660003662109 95.49277496337891 199.1660003662109 102.0830078125 C 199.1660003662109 108.6732406616211 198.5023956298828 115.2578277587891 197.1935424804688 121.653923034668 C 195.9185028076172 127.8848876953125 194.0159759521484 134.0138549804688 191.5388031005859 139.8705596923828 C 189.1061248779297 145.6220397949219 186.0948944091797 151.1697387695313 182.5887145996094 156.3595428466797 C 179.1150054931641 161.5013275146484 175.1255035400391 166.3365936279297 170.7310638427734 170.7310638427734 C 166.3365936279297 175.1255035400391 161.5013275146484 179.1150054931641 156.3595428466797 182.5887145996094 C 151.1697387695313 186.0948944091797 145.6220397949219 189.1061248779297 139.8705596923828 191.5388031005859 C 134.0138549804688 194.0159759521484 127.8848876953125 195.9185028076172 121.653923034668 197.1935424804688 C 115.2578277587891 198.5023956298828 108.6732406616211 199.1660003662109 102.0830078125 199.1660003662109 Z" stroke="none"/>
      <path d="M 102.0830078125 10.00001525878906 C 51.30825805664063 10.00001525878906 10.00001525878906 51.30825805664063 10.00001525878906 102.0830078125 C 10.00001525878906 152.8577575683594 51.30825805664063 194.166015625 102.0830078125 194.166015625 C 152.8577575683594 194.166015625 194.166015625 152.8577575683594 194.166015625 102.0830078125 C 194.166015625 51.30825805664063 152.8577575683594 10.00001525878906 102.0830078125 10.00001525878906 M 102.0830078125 1.52587890625e-05 C 158.4618988037109 1.52587890625e-05 204.1660003662109 45.70411682128906 204.1660003662109 102.0830078125 C 204.1660003662109 158.4618988037109 158.4618988037109 204.1660003662109 102.0830078125 204.1660003662109 C 45.70411682128906 204.1660003662109 1.52587890625e-05 158.4618988037109 1.52587890625e-05 102.0830078125 C 1.52587890625e-05 45.70411682128906 45.70411682128906 1.52587890625e-05 102.0830078125 1.52587890625e-05 Z" stroke="none" fill="#21236e"/>
    </g>
    <path id="Path_16567" data-name="Path 16567" d="M-100.168-53.655v9.784a11.485,11.485,0,0,0-6.112-1.708c-7.548,0-12.924,5.461-12.924,13.105s5.376,13.131,12.924,13.131A11.377,11.377,0,0,0-98.861-22l.8,1.827h6.27v-33.48Zm-4.979,26.811a5.424,5.424,0,0,1-5.506-5.629,5.424,5.424,0,0,1,5.506-5.629,5.424,5.424,0,0,1,5.506,5.629A5.424,5.424,0,0,1-105.147-26.844Zm18.669,6.669h8.473v-24.6h-8.473Zm33.513-24.6-1.075,2.064A11.861,11.861,0,0,0-61.8-45.559,12.058,12.058,0,0,0-74.09-33.188,11.991,11.991,0,0,0-61.8-20.825a11.916,11.916,0,0,0,6.419-1.847v.734c0,2.925-2.282,4.729-5.121,4.729-2.058,0-4.157-.886-4.744-2.53H-73.42c1.132,5.829,6.018,9.349,13,9.349,8.125,0,13.185-4.788,13.185-12.518V-44.772ZM-60.391-27.8a5.125,5.125,0,0,1-5.251-5.388,5.133,5.133,0,0,1,5.251-5.361,5.113,5.113,0,0,1,5.232,5.361A5.124,5.124,0,0,1-60.391-27.8Zm18.508,7.625h8.473v-24.6h-8.473Zm38.79,0-8.442-12.874,7.666-11.724h-9.513l-5.86,9.636V-53.655h-8.473v33.48h8.473v-10.4l6.161,10.4Zm2.206,0H7.586v-24.6H-.887ZM26.252-27.6A2.609,2.609,0,0,1,23.4-30.42v-7.828h5.966v-6.525H23.187v-7.192H21.447L10.426-40.228v1.981h4.5v9.282c0,5.466,3.306,8.791,8.746,8.791H29.5V-27.6Z" transform="translate(-24396.006 -309.679)" fill="#fff"/>
    <g id="Mask_Group_23" data-name="Mask Group 23" transform="translate(-24543 -445)" clip-path="url(#clip-path)">
      <path id="Path_16569" data-name="Path 16569" d="M73.069.775A44.688,44.688,0,0,1,84.395,2.981c2.529.748,4.977,1.769,7.49,2.577,3.443,1.107,6.927,2.092,10.373,3.193,3.95,1.262,7.929,2.456,11.8,3.939a35.82,35.82,0,0,0,10.6,1.895,91.765,91.765,0,0,1,15.794,2.85c2.924.727,5.81,1.632,8.674,2.574a25.867,25.867,0,0,1,10.716,6.907A43.9,43.9,0,0,0,164,30.745c2.5,2.021,4.253,4.644,6.076,7.221.215.3.381.7.675.876,2.705,1.632,4.2,4.27,5.668,6.89,1.141,2.035,2.126,4.163,3.08,6.295a8.193,8.193,0,0,1,.744,2.829c.187,3.451.7,6.878.386,10.367A66.652,66.652,0,0,0,180.5,73.6c.3,8.119-.785,16.107-1.981,24.1-.847,5.664-1.348,11.38-2.2,17.043a47.07,47.07,0,0,1-2.114,9.015,23.255,23.255,0,0,1-3.742,6.427,30.673,30.673,0,0,1-13.582,9.834c-2.41.881-4.777,1.924-7.245,2.6-3.342.911-6.743,1.636-10.151,2.262-5.2.953-10.41,1.8-15.632,2.6a41.669,41.669,0,0,1-16.631-.354c-3-.747-6.1-1.066-9.119-1.718a163.126,163.126,0,0,1-25.17-7.391,24.189,24.189,0,0,1-7.242-4.121c-1.981-1.723-4.419-2.931-6.348-4.7-3.718-3.413-7.3-6.988-10.787-10.637-3.073-3.213-5.919-6.641-8.921-9.923-.963-1.053-2.151-1.9-3.154-2.916-3.015-3.063-5.964-6.191-8.989-9.244-1.433-1.446-3.009-2.749-4.462-4.177-1.4-1.372-2.705-2.831-4.071-4.235-2.422-2.488-4.745-5.087-7.314-7.413A45.8,45.8,0,0,1,3,69.668,14.485,14.485,0,0,1,.936,60.787a19.361,19.361,0,0,1,1.085-5.74,15.376,15.376,0,0,1,4.271-5.761c2.907-2.516,5.875-4.969,8.918-7.319C18.79,39.2,22.453,36.538,26.129,33.9c2.634-1.892,5.456-3.535,8-5.536A163.24,163.24,0,0,0,48.169,16.6c3.54-3.492,7.207-6.873,11-10.085a23,23,0,0,1,9.641-5.273A36.494,36.494,0,0,1,73.069.775ZM11.007,55.28c-2.314-.961-3.252-.683-4.115,1.37l2.366.862.225-1.438,1.525-.795c.768-.629,1.724-1.112,1.9-2.313C11.309,53.187,11.309,53.187,11.007,55.28ZM63.632,8.81c-.641,1.127-1.074,1.916-.6,2.945C64.376,10.772,64.391,10.715,63.632,8.81ZM19.792,46.674c-.47,1.127-.792,1.9-1.174,2.816C20.646,48.861,20.646,48.861,19.792,46.674Zm49.739,40.7c-.4-.262-.742-.574-.821-.518a4.894,4.894,0,0,0-.772.836c.23.13.494.4.679.358C68.9,87.98,69.127,87.689,69.531,87.373Zm4.489.412c-.293.353-.608.568-.588.743a2.634,2.634,0,0,0,.442.848c.246-.2.66-.371.691-.6C74.6,88.527,74.282,88.23,74.02,87.785Zm-.308,23.424c.011.194.023.388.034.582l1.352-.2c-.015-.127-.032-.254-.046-.381ZM59.53,16.687l.151-.421-1.336-.514c-.053.154-.107.308-.162.462ZM62.788,86.06c-.1.254-.261.45-.222.594.042.16.264.272.408.4a2.049,2.049,0,0,0,.316-.618C63.3,86.355,63.013,86.224,62.788,86.06ZM67,87.213a4.25,4.25,0,0,0-.959-.225c-.083,0-.161.3-.24.458a1.57,1.57,0,0,0,.566.2C66.518,87.644,66.66,87.46,67,87.213Zm4.976,1.655-.247-.3a2.254,2.254,0,0,0-.241.451c-.011.03.2.129.309.2C71.857,89.1,71.917,88.985,71.977,88.868ZM61.921,13.2l-.312-.26c-.052.121-.167.258-.141.358s.189.174.292.259C61.814,13.442,61.868,13.323,61.921,13.2Z" transform="translate(62.936 129.381)" fill="#292b87"/>
      <g id="Group_551" data-name="Group 551" transform="matrix(-0.966, -0.259, 0.259, -0.966, 193.111, 199.577)">
        <path id="Path_16337" data-name="Path 16337" d="M1.665.343c.909-.471,3.86-1.165,5.373,3.376s1.256,6.3-1.772,4.789S.638,5.149.127,3.484A2.59,2.59,0,0,1,1.665.343Z" transform="translate(24.256 16.709)" fill="#ffb0a3"/>
        <path id="Path_16338" data-name="Path 16338" d="M1.665.343c.909-.471,3.86-1.165,5.373,3.376s1.256,6.3-1.772,4.789S.638,5.149.127,3.484A2.59,2.59,0,0,1,1.665.343Z" transform="translate(44.068 21.025) rotate(90)" fill="#ffb0a3"/>
        <path id="Path_16339" data-name="Path 16339" d="M1.665.343c.909-.471,3.86-1.165,5.373,3.376s1.256,6.3-1.772,4.789S.638,5.149.127,3.484A2.59,2.59,0,0,1,1.665.343Z" transform="matrix(-0.259, -0.966, 0.966, -0.259, 51.302, 32.702)" fill="#ffb0a3"/>
        <path id="Path_16345" data-name="Path 16345" d="M1.665.343c.909-.471,3.86-1.165,5.373,3.376s1.256,6.3-1.772,4.789S.638,5.149.127,3.484A2.59,2.59,0,0,1,1.665.343Z" transform="translate(59.351 35.644)" fill="#ffb0a3"/>
        <path id="Path_16346" data-name="Path 16346" d="M1.665.343c.909-.471,3.86-1.165,5.373,3.376s1.256,6.3-1.772,4.789S.638,5.149.127,3.484A2.59,2.59,0,0,1,1.665.343Z" transform="translate(43.135 36.998) rotate(-30)" fill="#ffb0a3"/>
        <path id="Path_16347" data-name="Path 16347" d="M1.665.343c.909-.471,3.86-1.165,5.373,3.376s1.256,6.3-1.772,4.789S.638,5.149.127,3.484A2.59,2.59,0,0,1,1.665.343Z" transform="translate(2.157 28.568)" fill="#ffb0a3"/>
        <path id="Path_16348" data-name="Path 16348" d="M1.665.343c.909-.471,3.86-1.165,5.373,3.376s1.256,6.3-1.772,4.789S.638,5.149.127,3.484A2.59,2.59,0,0,1,1.665.343Z" transform="translate(9.163 14.553)" fill="#ffb0a3"/>
        <path id="Path_16349" data-name="Path 16349" d="M1.665.343c.909-.471,3.86-1.165,5.373,3.376s1.256,6.3-1.772,4.789S.638,5.149.127,3.484A2.59,2.59,0,0,1,1.665.343Z" transform="translate(11.858)" fill="#ffb0a3"/>
        <path id="Path_16350" data-name="Path 16350" d="M1.665.343c.909-.471,3.86-1.165,5.373,3.376s1.256,6.3-1.772,4.789S.638,5.149.127,3.484A2.59,2.59,0,0,1,1.665.343Z" transform="translate(28.458 3.961)" fill="#ffb0a3"/>
        <path id="Path_16351" data-name="Path 16351" d="M1.665.343c.909-.471,3.86-1.165,5.373,3.376s1.256,6.3-1.772,4.789S.638,5.149.127,3.484A2.59,2.59,0,0,1,1.665.343Z" transform="translate(0 42.582)" fill="#ffb0a3"/>
      </g>
      <path id="Path_16570" data-name="Path 16570" d="M72.2,147.366a44.687,44.687,0,0,0,11.325-2.206c2.529-.748,4.977-1.769,7.49-2.577,3.443-1.107,6.927-2.092,10.373-3.193,3.95-1.262,7.929-2.456,11.8-3.939a35.819,35.819,0,0,1,10.6-1.895,91.762,91.762,0,0,0,15.794-2.85c2.924-.727,5.81-1.632,8.674-2.574a25.867,25.867,0,0,0,10.716-6.907,43.9,43.9,0,0,1,4.161-3.83c2.5-2.021,4.253-4.644,6.076-7.221.215-.3.381-.7.675-.876,2.705-1.632,4.2-4.27,5.668-6.89,1.141-2.035,2.126-4.163,3.08-6.295a8.193,8.193,0,0,0,.744-2.829c.187-3.451.7-6.878.386-10.367a66.649,66.649,0,0,1-.129-8.374c.3-8.119-.785-16.107-1.981-24.1-.847-5.664-1.348-11.38-2.2-17.043a47.07,47.07,0,0,0-2.114-9.015,23.256,23.256,0,0,0-3.742-6.427,30.672,30.672,0,0,0-13.582-9.834c-2.41-.881-4.776-1.924-7.245-2.6-3.342-.911-6.742-1.636-10.151-2.262-5.2-.953-10.41-1.8-15.631-2.6a41.668,41.668,0,0,0-16.631.354c-3,.747-6.1,1.066-9.119,1.718a163.122,163.122,0,0,0-25.17,7.391,24.189,24.189,0,0,0-7.241,4.121c-1.981,1.723-4.419,2.931-6.348,4.7-3.718,3.413-7.3,6.988-10.787,10.637-3.073,3.213-5.919,6.641-8.921,9.923-.963,1.053-2.151,1.9-3.154,2.916-3.015,3.063-5.964,6.191-8.989,9.244-1.433,1.446-3.009,2.749-4.462,4.177-1.4,1.372-2.705,2.831-4.071,4.235-2.422,2.488-4.744,5.087-7.314,7.413A45.8,45.8,0,0,0,2.131,78.473,14.485,14.485,0,0,0,.068,87.354a19.361,19.361,0,0,0,1.085,5.74,15.377,15.377,0,0,0,4.271,5.761c2.907,2.516,5.875,4.969,8.918,7.319,3.581,2.766,7.244,5.429,10.919,8.071,2.634,1.892,5.456,3.535,8,5.536A163.24,163.24,0,0,1,47.3,131.537c3.54,3.492,7.207,6.873,11,10.085a23,23,0,0,0,9.641,5.273A36.492,36.492,0,0,0,72.2,147.366Zm-62.062-54.5c-2.314.961-3.252.683-4.115-1.37l2.366-.862.225,1.438,1.525.795c.768.629,1.724,1.112,1.9,2.313C10.441,94.954,10.441,94.954,10.138,92.861Zm52.624,46.47c-.641-1.127-1.074-1.916-.6-2.945C63.507,137.37,63.522,137.426,62.763,139.332ZM18.924,101.468c-.47-1.127-.792-1.9-1.174-2.816C19.777,99.28,19.777,99.28,18.924,101.468Zm49.738-40.7c-.4.262-.742.574-.821.518a4.894,4.894,0,0,1-.772-.836c.23-.13.494-.4.679-.358C68.03,60.162,68.258,60.452,68.662,60.768Zm4.489-.412c-.293-.353-.608-.568-.588-.743a2.634,2.634,0,0,1,.442-.848c.246.2.66.371.691.6C73.73,59.615,73.412,59.912,73.151,60.356Zm-.308-23.424c.011-.194.023-.388.034-.582l1.352.2c-.015.127-.032.254-.046.381ZM58.661,131.454l.151.421-1.336.514c-.053-.154-.107-.308-.162-.462Zm3.258-69.373c-.1-.254-.261-.45-.222-.594.042-.16.264-.272.408-.4a2.049,2.049,0,0,1,.316.618C62.434,61.786,62.144,61.918,61.919,62.081Zm4.212-1.153a4.25,4.25,0,0,1-.959.225c-.083,0-.161-.3-.24-.458a1.57,1.57,0,0,1,.566-.2C65.649,60.5,65.791,60.681,66.132,60.928Zm4.976-1.655-.247.3a2.254,2.254,0,0,1-.241-.451c-.011-.03.2-.129.309-.2C70.988,59.042,71.048,59.157,71.108,59.273ZM61.052,134.938l-.312.26c-.052-.121-.167-.258-.141-.358s.189-.174.292-.259C60.945,134.7,61,134.818,61.052,134.938Z" transform="translate(-78.037 -73.426)" fill="#292b87"/>
      <path id="Path_16573" data-name="Path 16573" d="M72.2,147.366a44.687,44.687,0,0,0,11.325-2.206c2.529-.748,4.977-1.769,7.49-2.577,3.443-1.107,6.927-2.092,10.373-3.193,3.95-1.262,7.929-2.456,11.8-3.939a35.819,35.819,0,0,1,10.6-1.895,91.762,91.762,0,0,0,15.794-2.85c2.924-.727,5.81-1.632,8.674-2.574a25.867,25.867,0,0,0,10.716-6.907,43.9,43.9,0,0,1,4.161-3.83c2.5-2.021,4.253-4.644,6.076-7.221.215-.3.381-.7.675-.876,2.705-1.632,4.2-4.27,5.668-6.89,1.141-2.035,2.126-4.163,3.08-6.295a8.193,8.193,0,0,0,.744-2.829c.187-3.451.7-6.878.386-10.367a66.649,66.649,0,0,1-.129-8.374c.3-8.119-.785-16.107-1.981-24.1-.847-5.664-1.348-11.38-2.2-17.043a47.07,47.07,0,0,0-2.114-9.015,23.256,23.256,0,0,0-3.742-6.427,30.672,30.672,0,0,0-13.582-9.834c-2.41-.881-4.776-1.924-7.245-2.6-3.342-.911-6.742-1.636-10.151-2.262-5.2-.953-10.41-1.8-15.631-2.6a41.668,41.668,0,0,0-16.631.354c-3,.747-6.1,1.066-9.119,1.718a163.122,163.122,0,0,0-25.17,7.391,24.189,24.189,0,0,0-7.241,4.121c-1.981,1.723-4.419,2.931-6.348,4.7-3.718,3.413-7.3,6.988-10.787,10.637-3.073,3.213-5.919,6.641-8.921,9.923-.963,1.053-2.151,1.9-3.154,2.916-3.015,3.063-5.964,6.191-8.989,9.244-1.433,1.446-3.009,2.749-4.462,4.177-1.4,1.372-2.705,2.831-4.071,4.235-2.422,2.488-4.744,5.087-7.314,7.413A45.8,45.8,0,0,0,2.131,78.473,14.485,14.485,0,0,0,.068,87.354a19.361,19.361,0,0,0,1.085,5.74,15.377,15.377,0,0,0,4.271,5.761c2.907,2.516,5.875,4.969,8.918,7.319,3.581,2.766,7.244,5.429,10.919,8.071,2.634,1.892,5.456,3.535,8,5.536A163.24,163.24,0,0,1,47.3,131.537c3.54,3.492,7.207,6.873,11,10.085a23,23,0,0,0,9.641,5.273A36.492,36.492,0,0,0,72.2,147.366Zm-62.062-54.5c-2.314.961-3.252.683-4.115-1.37l2.366-.862.225,1.438,1.525.795c.768.629,1.724,1.112,1.9,2.313C10.441,94.954,10.441,94.954,10.138,92.861Zm52.624,46.47c-.641-1.127-1.074-1.916-.6-2.945C63.507,137.37,63.522,137.426,62.763,139.332ZM18.924,101.468c-.47-1.127-.792-1.9-1.174-2.816C19.777,99.28,19.777,99.28,18.924,101.468Zm49.738-40.7c-.4.262-.742.574-.821.518a4.894,4.894,0,0,1-.772-.836c.23-.13.494-.4.679-.358C68.03,60.162,68.258,60.452,68.662,60.768Zm4.489-.412c-.293-.353-.608-.568-.588-.743a2.634,2.634,0,0,1,.442-.848c.246.2.66.371.691.6C73.73,59.615,73.412,59.912,73.151,60.356Zm-.308-23.424c.011-.194.023-.388.034-.582l1.352.2c-.015.127-.032.254-.046.381ZM58.661,131.454l.151.421-1.336.514c-.053-.154-.107-.308-.162-.462Zm3.258-69.373c-.1-.254-.261-.45-.222-.594.042-.16.264-.272.408-.4a2.049,2.049,0,0,1,.316.618C62.434,61.786,62.144,61.918,61.919,62.081Zm4.212-1.153a4.25,4.25,0,0,1-.959.225c-.083,0-.161-.3-.24-.458a1.57,1.57,0,0,1,.566-.2C65.649,60.5,65.791,60.681,66.132,60.928Zm4.976-1.655-.247.3a2.254,2.254,0,0,1-.241-.451c-.011-.03.2-.129.309-.2C70.988,59.042,71.048,59.157,71.108,59.273ZM61.052,134.938l-.312.26c-.052-.121-.167-.258-.141-.358s.189-.174.292-.259C60.945,134.7,61,134.818,61.052,134.938Z" transform="translate(-148.037 125.574)" fill="#292b87"/>
      <path id="Path_16571" data-name="Path 16571" d="M775.04,430.357c11.991-10.2,29.58-14.992,40.48-12.858,11.045,3.292,21.347,12.164,23.935,23.278,1.235,10.751-10.02,32.238-33.59,31.764-12.392-.933-22.574-14.15-30.769-24.49C769.386,440.461,769.907,435.308,775.04,430.357Z" transform="translate(-687.928 -240.031)" fill="#ffb0a3"/>
    </g>
  </g>
</svg>
