<svg xmlns="http://www.w3.org/2000/svg" width="752.634" height="586.864" viewBox="0 0 752.634 586.864">
  <g id="_404" data-name="404" transform="translate(-563.575 -302.299)">
    <path id="Path_16197" data-name="Path 16197" d="M719.488,352.614l10.133-1.782h0l10.125-1.818a11.517,11.517,0,0,0,9.2-12.878A210.141,210.141,0,0,1,909.5,105.354a11.518,11.518,0,0,0,8.876-13.1l-1.817-10.127-1.824-10.164a10.63,10.63,0,0,0-12.709-8.655A252.634,252.634,0,0,0,706.994,343.7,10.629,10.629,0,0,0,719.488,352.614Z" transform="translate(1378.739 -398.3) rotate(90)" fill="#fff" stroke="#d6d9de" stroke-width="1"/>
    <path id="Path_16196" data-name="Path 16196" d="M546.713,609.648C657.15,499.211,669,311.945,572.014,214.875,488.438,131.342,290.42,65.434,110.533,170.3,42.137,213.653-4.8,268.386.391,376.925,11.861,468.893,26.633,522.5,24.932,551.2S37.074,660.369,167.519,674.98,399.3,757.236,546.713,609.648Z" transform="translate(617.885 186.021)" fill="#3639a4"/>
    <path id="Path_16198" data-name="Path 16198" d="M773.379,424.862c7.058-6,17.412-8.825,23.828-7.569,6.5,1.938,12.566,7.16,14.089,13.7.727,6.328-5.9,18.976-19.772,18.7-7.294-.549-13.288-8.329-18.112-14.416C770.05,430.81,770.357,427.777,773.379,424.862Z" transform="translate(-103.727 99.055)" fill="#ffb0a3"/>
    <path id="Path_16199" data-name="Path 16199" d="M889.327,678.708c26.124-26.124,28.927-70.422,5.985-93.384-19.77-19.76-66.613-35.351-109.165-10.543-16.179,10.254-27.282,23.2-26.055,48.877,2.713,21.756-.787,59.994,30.424,63.56S854.455,713.62,889.327,678.708Z" transform="translate(-196.425 58.122)" fill="#ffb0a3"/>
    <path id="Path_16598" data-name="Path 16598" d="M179.918,287.245a33.274,33.274,0,0,0-28.4,16.093,4.139,4.139,0,1,0,7.1,4.254,24.832,24.832,0,0,1,42.634.052,4.139,4.139,0,1,0,7.111-4.237A33.261,33.261,0,0,0,179.918,287.245Z" transform="translate(458.566 410.838)" fill="#fff"/>
    <line id="Line_106" data-name="Line 106" x2="30" transform="translate(593.5 672.5)" fill="none" stroke="#fff" stroke-linecap="round" stroke-width="8"/>
    <line id="Line_107" data-name="Line 107" x2="33" transform="translate(651.5 672.5)" fill="none" stroke="#fff" stroke-linecap="round" stroke-width="8"/>
  </g>
</svg>
