<svg xmlns="http://www.w3.org/2000/svg" xmlns:xlink="http://www.w3.org/1999/xlink" width="626.016" height="488.751" viewBox="0 0 626.016 488.751">
  <defs>
    <clipPath id="clip-path">
      <path id="Path_16408" data-name="Path 16408" d="M62,439H528a62,62,0,0,0,62-62V62A62,62,0,0,0,528,0H62A62,62,0,0,0,0,62V377A62,62,0,0,0,62,439Z" transform="matrix(-0.996, 0.087, -0.087, -0.996, 801.017, 3806.454)" fill="#ffb0a3"/>
    </clipPath>
  </defs>
  <g id="about-illustration2" transform="translate(-175 -3369.124)">
    <path id="Path_16407" data-name="Path 16407" d="M62,439H528a62,62,0,0,0,62-62V62A62,62,0,0,0,528,0H62A62,62,0,0,0,0,62V377A62,62,0,0,0,62,439Z" transform="matrix(-0.996, 0.087, -0.087, -0.996, 801.017, 3806.454)" fill="#ffb0a3"/>
    <g id="Group_510" data-name="Group 510" transform="matrix(0.966, -0.259, 0.259, 0.966, 563.195, 3657.268)">
      <path id="Path_16337" data-name="Path 16337" d="M4.153,21.664c2.262,1.175,9.615,2.9,13.388-8.409s3.126-15.7-4.416-11.932S1.592,9.69.316,13.837,1.894,20.49,4.153,21.664Z" transform="translate(60.436 83.266)" fill="#ec9385"/>
      <path id="Path_16338" data-name="Path 16338" d="M4.153,21.664c2.262,1.175,9.615,2.9,13.388-8.409s3.126-15.7-4.416-11.932S1.592,9.69.316,13.837,1.894,20.49,4.153,21.664Z" transform="translate(88.638 73.865)" fill="#ec9385"/>
      <path id="Path_16339" data-name="Path 16339" d="M4.153,21.664c2.262,1.175,9.615,2.9,13.388-8.409s3.126-15.7-4.416-11.932S1.592,9.69.316,13.837,1.894,20.49,4.153,21.664Z" transform="translate(126.242 67.15)" fill="#ec9385"/>
      <path id="Path_16340" data-name="Path 16340" d="M4.153,21.664c2.262,1.175,9.615,2.9,13.388-8.409s3.126-15.7-4.416-11.932S1.592,9.69.316,13.837,1.894,20.49,4.153,21.664Z" transform="translate(118.184 33.575)" fill="#ec9385"/>
      <path id="Path_16341" data-name="Path 16341" d="M4.153,21.664c2.262,1.175,9.615,2.9,13.388-8.409s3.126-15.7-4.416-11.932S1.592,9.69.316,13.837,1.894,20.49,4.153,21.664Z" transform="translate(80.58 44.319)" fill="#ec9385"/>
      <path id="Path_16342" data-name="Path 16342" d="M4.153,21.664c2.262,1.175,9.615,2.9,13.388-8.409s3.126-15.7-4.416-11.932S1.592,9.69.316,13.837,1.894,20.49,4.153,21.664Z" transform="translate(44.32 49.691)" fill="#ec9385"/>
      <path id="Path_16343" data-name="Path 16343" d="M4.153,21.664c2.262,1.175,9.615,2.9,13.388-8.409s3.126-15.7-4.416-11.932S1.592,9.69.316,13.837,1.894,20.49,4.153,21.664Z" transform="translate(34.918 21.488)" fill="#ec9385"/>
      <path id="Path_16344" data-name="Path 16344" d="M4.153,21.664c2.262,1.175,9.615,2.9,13.388-8.409s3.126-15.7-4.416-11.932S1.592,9.69.316,13.837,1.894,20.49,4.153,21.664Z" transform="translate(64.464 10.744)" fill="#ec9385"/>
      <path id="Path_16345" data-name="Path 16345" d="M4.153,21.664c2.262,1.175,9.615,2.9,13.388-8.409s3.126-15.7-4.416-11.932S1.592,9.69.316,13.837,1.894,20.49,4.153,21.664Z" transform="translate(111.468 0)" fill="#ec9385"/>
      <path id="Path_16346" data-name="Path 16346" d="M4.153,21.664c2.262,1.175,9.615,2.9,13.388-8.409s3.126-15.7-4.416-11.932S1.592,9.69.316,13.837,1.894,20.49,4.153,21.664Z" transform="translate(149.074 22.831)" fill="#ec9385"/>
      <path id="Path_16347" data-name="Path 16347" d="M4.153,21.664c2.262,1.175,9.615,2.9,13.388-8.409s3.126-15.7-4.416-11.932S1.592,9.69.316,13.837,1.894,20.49,4.153,21.664Z" transform="translate(5.372 53.72)" fill="#ec9385"/>
      <path id="Path_16348" data-name="Path 16348" d="M4.153,21.664c2.262,1.175,9.615,2.9,13.388-8.409s3.126-15.7-4.416-11.932S1.592,9.69.316,13.837,1.894,20.49,4.153,21.664Z" transform="translate(22.832 88.638)" fill="#ec9385"/>
      <path id="Path_16349" data-name="Path 16349" d="M4.153,21.664c2.262,1.175,9.615,2.9,13.388-8.409s3.126-15.7-4.416-11.932S1.592,9.69.316,13.837,1.894,20.49,4.153,21.664Z" transform="translate(29.546 124.899)" fill="#ec9385"/>
      <path id="Path_16350" data-name="Path 16350" d="M4.153,21.664c2.262,1.175,9.615,2.9,13.388-8.409s3.126-15.7-4.416-11.932S1.592,9.69.316,13.837,1.894,20.49,4.153,21.664Z" transform="translate(63.122 119.527)" fill="#ec9385"/>
      <path id="Path_16351" data-name="Path 16351" d="M4.153,21.664c2.262,1.175,9.615,2.9,13.388-8.409s3.126-15.7-4.416-11.932S1.592,9.69.316,13.837,1.894,20.49,4.153,21.664Z" transform="translate(0 18.802)" fill="#ec9385"/>
    </g>
    <g id="Mask_Group_14" data-name="Mask Group 14" clip-path="url(#clip-path)">
      <g id="undraw_new_ideas_jdea" transform="translate(216.879 3366.572)">
        <path id="Path_16383" data-name="Path 16383" d="M878.994,587.055c-.193.364-.394.717-.613,1.053A16.712,16.712,0,1,1,854.833,565.4a15.365,15.365,0,0,1,2.012-1.169,16.707,16.707,0,0,1,22.734,21.593C879.406,586.239,879.209,586.648,878.994,587.055Z" transform="translate(-397.427 -247.156)" fill="#ffb0a3"/>
        <path id="Path_16384" data-name="Path 16384" d="M885.864,594.626c-.193.364-.394.717-.613,1.053l-20.693-14.387,21.891,12.1C886.276,593.811,886.079,594.22,885.864,594.626Z" transform="translate(-404.296 -254.728)" fill="#d0cde1"/>
        <path id="Path_16385" data-name="Path 16385" d="M869.806,603.775l-21.754-8.389a16.749,16.749,0,0,1-.455-2.911Z" transform="translate(-397.46 -259.236)" fill="#d0cde1"/>
        <path id="Path_16386" data-name="Path 16386" d="M877.589,573.437l-17.815-6.873a15.368,15.368,0,0,1,2.012-1.169Z" transform="translate(-402.368 -248.32)" fill="#d0cde1"/>
        <path id="Path_16391" data-name="Path 16391" d="M570.17,636.956s36.678,1.528,36.678,10.7-41.262,0-41.262,0Z" transform="translate(-283.784 -277.165)" fill="#fff"/>
        <path id="Path_16392" data-name="Path 16392" d="M376.865,741.218l-68.77-4.585-3.057-36.677-15.282,32.093-67.242-9.169c1.528-58.073,25.98-114.617,27.508-122.259s5.181-39.214,5.181-39.214c6.678-14.167,41.675-15.5,69.107-14.212,11.37.52,21.456,1.5,27.676,2.2,4.111.458,6.541.795,6.541.795,10.957,11.294,18.018,26.683,22.358,43.875C396.533,656,376.865,741.218,376.865,741.218Z" transform="translate(-145.495 -240.83)" fill="#2f2e41"/>
        <circle id="Ellipse_652" data-name="Ellipse 652" cx="38.206" cy="38.206" r="38.206" transform="translate(116.752 69.427)" fill="#fff"/>
        <path id="Path_16393" data-name="Path 16393" d="M289.46,229.879s-10.7,47.375-27.509,61.129,65.714,0,65.714,0-18.339-30.565-4.585-44.319S289.46,229.879,289.46,229.879Z" transform="translate(-160.482 -113.077)" fill="#fff"/>
        <path id="Path_16394" data-name="Path 16394" d="M352.275,455.421l-25.353,2.811L256,466.118s-.336-.9-.932-2.537c-5.15-14.044-29.953-82.387-32.689-102.911-3.056-22.923,29.036-50.432,29.036-50.432s30.565-6.113,39.734-6.113,45.847,13.754,45.847,13.754L350.67,440.917l1.177,10.652Z" transform="translate(-145.357 -143.005)" fill="#3f3e58"/>
        <path id="Path_16395" data-name="Path 16395" d="M432.4,539.6l-51.395-30.121s-.9-2.934-2.43-7.886c-.764-2.476-1.7-5.471-2.751-8.864-5.93-19.042-15.878-50.462-23.856-73.416-12.226-35.149,47.375,62.658,47.375,62.658l2.98,2.308,1.177,10.652c4.111.458,6.541.795,6.541.795C421,507.014,428.06,522.4,432.4,539.6Z" transform="translate(-197.011 -186.361)" opacity="0.15"/>
        <path id="Path_16396" data-name="Path 16396" d="M368.3,329.235s-15.282,19.867-3.056,55.016,29.036,90.166,29.036,90.166l88.637,51.96,12.226-15.282-82.524-64.186s-3.056-116.146-18.339-120.73S368.3,329.235,368.3,329.235Z" transform="translate(-201.118 -151.304)" fill="#3f3e58"/>
        <path id="Path_16397" data-name="Path 16397" d="M246.836,549.085s21.4,44.319,30.565,39.734-22.923-50.432-22.923-50.432Z" transform="translate(-155.299 -237.433)" fill="#fff"/>
        <path id="Path_16398" data-name="Path 16398" d="M182.73,352.77l-81,67.242s-30.565,21.4,25.98,36.678,61.129,24.452,61.129,24.452,6.113-19.867,13.754-16.81l-65.714-32.093,53.488-32.093Z" transform="translate(-93.485 -162.613)" fill="#3f3e58"/>
        <path id="Path_16399" data-name="Path 16399" d="M176.078,205.578c4.251-2.105,13.638-6.354,21.634-11.473-.561-16.652,1.49-31.769,7.493-39.782,3.369-7.65,10.445-15.31,15.986-21.342,13.608-14.813,43.7-23.081,49.037-15.68,40.366.8,44.616,32.438,44.616,32.438-.21,13.235-13.965,13.653-26.014,13.171,1.079,9.035-1.8,18.423-10.123,22.587-15.923,7.962-20.7,18.312-12.739,25.477s22.293,26.273,3.185,31.05-21.5,14.331-15.923,18.312-12.738-7.166-12.738-7.166-3.185,19.108-19.9,14.331a10.057,10.057,0,0,1-4.468-3.166c-4.515,4.962-8.544,7.9-11.58,7.911-17.388.092-15.3-19.167-15.3-19.167s-20.639,5.8-14.2,3.466,6.716-12.175-10.4-21.927S166.48,210.332,176.078,205.578Z" transform="translate(-119.387 -66.587)" fill="#2f2e41"/>
        <path id="Path_16400" data-name="Path 16400" d="M545.432,298.484l-.277-.037.676,2.571a67.549,67.549,0,0,0,2.776,10.551l19.833,75.395a12.779,12.779,0,0,0,10.4,9.378l40.447,6.257A12.779,12.779,0,0,0,632.51,396l38.437-71.794a67.474,67.474,0,0,0,3.288-6.141l1.3-2.438-.2-.027a67.956,67.956,0,1,0-129.9-17.118Z" transform="translate(-275.399 -109.573)" fill="#3f3d56"/>
        <path id="Path_16401" data-name="Path 16401" d="M619.392,404.362a13.9,13.9,0,0,1-2.127-.164l-42.278-6.541a13.951,13.951,0,0,1-11.362-10.24L542.893,308.61a71.062,71.062,0,0,1-2.912-11.076l-.524-3.448a71.645,71.645,0,0,1,82.011-79.9l-.183,1.18A70.476,70.476,0,0,0,540.744,294.7l.4,2.579a70.6,70.6,0,0,0,2.887,10.983l20.745,78.854a12.756,12.756,0,0,0,10.389,9.364l42.278,6.541a12.778,12.778,0,0,0,13.2-6.588l1.053.563a13.98,13.98,0,0,1-12.308,7.367Z" transform="translate(-273.018 -106.41)" fill="#d0cde1"/>
        <rect id="Rectangle_751" data-name="Rectangle 751" width="74.801" height="1.544" transform="translate(331.374 276.29) rotate(-69.885)" fill="#d0cde1"/>
        <rect id="Rectangle_752" data-name="Rectangle 752" width="1.544" height="74.801" transform="translate(313.556 199.616) rotate(-2.516)" fill="#d0cde1"/>
        <path id="Path_16402" data-name="Path 16402" d="M630.308,585.481,576.134,577.1a1.544,1.544,0,0,1,.472-3.052l54.174,8.381a1.544,1.544,0,1,1-.472,3.052Z" transform="translate(-287.509 -251.8)" fill="#3f3d56"/>
        <path id="Path_16403" data-name="Path 16403" d="M632.635,566.207l-54.174-8.381a1.544,1.544,0,1,1,.472-3.052l54.174,8.381a1.544,1.544,0,0,1-.472,3.052Z" transform="translate(-288.446 -244.031)" fill="#3f3d56"/>
        <path id="Path_16404" data-name="Path 16404" d="M634.962,546.935l-54.174-8.381a1.544,1.544,0,1,1,.472-3.052l54.174,8.381a1.544,1.544,0,1,1-.472,3.052Z" transform="translate(-289.385 -236.263)" fill="#3f3d56"/>
        <path id="Path_16405" data-name="Path 16405" d="M607.758,593.363c10.746,1.662,20.384-2.979,21.526-10.367l-38.914-6.02C589.228,584.364,597.013,591.7,607.758,593.363Z" transform="translate(-293.73 -252.988)" fill="#3f3d56"/>
        <path id="Path_16406" data-name="Path 16406" d="M637.023,347.54c-2.311-.357-4.224-2.184-5.272-3.409-.344-.4-.678-.818-1.014-1.235a12.058,12.058,0,0,0-3.979-3.7c-3.544-1.653-7.719.656-11.335,3.134l-.873-1.273c3.975-2.725,8.61-5.242,12.861-3.26a13.383,13.383,0,0,1,4.53,4.136c.325.405.65.809.983,1.2,1.09,1.273,3.264,3.336,5.594,2.86a7.519,7.519,0,0,0,2.683-1.421,14.374,14.374,0,0,1,1.9-1.2,7.562,7.562,0,0,1,8.3,1.173,14.937,14.937,0,0,1,1.126,1.191,5.472,5.472,0,0,0,2.2,1.811c1.262.4,2.6-.318,4.009-1.08,1.458-.787,2.964-1.6,4.674-1.4l.167.023c3.042.471,4.444,3.834,5.237,6.345l-1.473.465c-1.078-3.412-2.391-5.109-4.112-5.3-1.224-.144-2.456.521-3.759,1.224-1.634.882-3.326,1.795-5.212,1.193a6.678,6.678,0,0,1-2.9-2.264,13.608,13.608,0,0,0-1.008-1.07,6.068,6.068,0,0,0-6.574-.929,13.027,13.027,0,0,0-1.693,1.075,8.773,8.773,0,0,1-3.265,1.673A5.076,5.076,0,0,1,637.023,347.54Z" transform="translate(-303.521 -156.289)" fill="#d0cde1"/>
      </g>
    </g>
  </g>
</svg>
