<svg xmlns="http://www.w3.org/2000/svg" xmlns:xlink="http://www.w3.org/1999/xlink" width="460" height="977" viewBox="0 0 460 977">
  <defs>
    <clipPath id="clip-path">
      <rect id="Rectangle_855" data-name="Rectangle 855" width="977" height="460" transform="translate(252)" fill="#0d2b91" stroke="#707070" stroke-width="1"/>
    </clipPath>
    <clipPath id="clip-path-2">
      <rect id="Rectangle_854" data-name="Rectangle 854" width="1229" height="460" fill="#0d2b91" stroke="#707070" stroke-width="1"/>
    </clipPath>
    <clipPath id="clip-path-3">
      <circle id="Ellipse_691" data-name="Ellipse 691" cx="102" cy="102" r="102" fill="#3639a3"/>
    </clipPath>
  </defs>
  <g id="ads" transform="translate(0 1229) rotate(-90)" clip-path="url(#clip-path)">
    <g id="Group_571" data-name="Group 571">
      <g id="Path_16621" data-name="Path 16621" transform="translate(251.513)" fill="#0d2b91">
        <path d="M 976.9866943359375 459.5 L 0.4999721646308899 459.5 L 0.4999721646308899 0.5 L 976.9866943359375 0.5 L 976.9866943359375 459.5 Z" stroke="none"/>
        <path d="M 1 1 L 1 459 L 976.4866943359375 459 L 976.4866943359375 1 L 1 1 M 0 0 L 977.4866943359375 0 L 977.4866943359375 460 L 0 460 L 0 0 Z" stroke="none" fill="#707070"/>
      </g>
      <text id="Advertising_" data-name="Advertising " transform="translate(352 246)" fill="#fff" font-size="70" font-family="SofiaPro-Bold, Sofia Pro" font-weight="700" letter-spacing="0.1em"><tspan x="0" y="0">Advertising </tspan></text>
      <path id="Path_16599" data-name="Path 16599" d="M177.9.775c9.588.292,18.722,2.731,27.768,5.409,6.2,1.835,12.2,4.338,18.366,6.318,8.442,2.714,16.985,5.128,25.433,7.829,9.684,3.1,19.441,6.023,28.922,9.658,8.445,3.238,17.139,4.038,25.991,4.646,13.147.9,25.978,3.821,38.726,6.987,7.169,1.781,14.245,4,21.267,6.312a63.424,63.424,0,0,1,26.275,16.934,107.644,107.644,0,0,0,10.2,9.392c6.138,4.955,10.428,11.387,14.9,17.7.527.741.934,1.713,1.656,2.148,6.633,4,10.294,10.47,13.9,16.894,2.8,4.991,5.213,10.207,7.553,15.434a20.09,20.09,0,0,1,1.825,6.936c.458,8.461,1.712,16.865.947,25.419a163.416,163.416,0,0,0-.317,20.533c.741,19.908-1.924,39.492-4.858,59.095-2.077,13.887-3.3,27.9-5.4,41.787a115.415,115.415,0,0,1-5.183,22.1,57.021,57.021,0,0,1-9.175,15.758,75.207,75.207,0,0,1-33.3,24.113c-5.91,2.161-11.712,4.718-17.763,6.367-8.195,2.233-16.532,4.012-24.891,5.546-12.739,2.336-25.525,4.413-38.327,6.382-13.62,2.095-27.2,2.522-40.778-.867-7.347-1.833-14.949-2.615-22.36-4.211a399.97,399.97,0,0,1-61.716-18.122c-6.335-2.48-12.449-5.49-17.756-10.1-4.858-4.224-10.834-7.187-15.565-11.528-9.116-8.369-17.891-17.135-26.448-26.08-7.535-7.878-14.514-16.283-21.874-24.33-2.362-2.582-5.275-4.65-7.734-7.151-7.392-7.511-14.624-15.179-22.04-22.665-3.513-3.546-7.379-6.741-10.94-10.241-3.423-3.364-6.633-6.942-9.983-10.384-5.938-6.1-11.633-12.473-17.934-18.176C18.654,188.81,11.9,179.593,6.094,169.7a35.515,35.515,0,0,1-5.06-21.776c.47-4.789.752-9.478,2.66-14.075a37.7,37.7,0,0,1,10.471-14.125c7.127-6.17,14.406-12.183,21.866-17.946,8.78-6.783,17.761-13.312,26.773-19.789,6.458-4.64,13.378-8.668,19.616-13.574,11.762-9.252,23.718-18.265,34.425-28.826,8.681-8.563,17.671-16.852,26.976-24.728C150.734,9.008,158.4,3.992,167.462,1.93,170.854,1.163,174.414,1.139,177.9.775ZM25.727,134.417c-5.674-2.357-7.975-1.674-10.09,3.359l5.8,2.114.553-3.525,3.74-1.949c1.884-1.542,4.227-2.727,4.666-5.672C26.468,129.286,26.468,129.286,25.727,134.417ZM154.76,20.476c-1.571,2.764-2.633,4.7-1.468,7.221C156.586,25.286,156.621,25.148,154.76,20.476ZM47.268,113.315c-1.151,2.763-1.941,4.661-2.878,6.9C49.361,118.679,49.361,118.679,47.268,113.315Zm121.956,99.792c-.988-.642-1.819-1.407-2.013-1.271a12,12,0,0,0-1.893,2.05c.563.32,1.21.99,1.665.878C167.674,214.594,168.234,213.882,169.225,213.106Zm11.006,1.011c-.719.865-1.492,1.394-1.441,1.822a6.458,6.458,0,0,0,1.085,2.079c.6-.482,1.619-.91,1.694-1.464C181.65,215.936,180.872,215.207,180.23,214.117Zm-.755,57.435c.028.475.056.952.084,1.428l3.315-.494c-.038-.312-.077-.622-.113-.934ZM144.7,39.79c.123-.344.246-.688.371-1.032L141.8,37.5c-.131.377-.263.756-.4,1.133Zm7.989,170.1c-.253.622-.639,1.1-.545,1.457.1.392.647.667,1,.992a5.024,5.024,0,0,0,.775-1.514C153.953,210.611,153.241,210.289,152.691,209.888Zm10.328,2.827a10.419,10.419,0,0,0-2.351-.553c-.2.005-.394.728-.588,1.123a3.85,3.85,0,0,0,1.387.5C161.836,213.772,162.184,213.32,163.02,212.715Zm12.2,4.058c-.2-.246-.4-.491-.607-.736a5.527,5.527,0,0,0-.591,1.106c-.026.075.491.317.757.482C174.927,217.34,175.075,217.058,175.221,216.773ZM150.565,31.248c-.255-.214-.512-.426-.765-.638-.128.3-.409.631-.346.879s.464.427.717.635C150.3,31.834,150.436,31.542,150.565,31.248Z" transform="translate(490.133 -228.775)" fill="#0c196b"/>
      <path id="Path_16600" data-name="Path 16600" d="M151.552.775c8.161.249,15.936,2.325,23.636,4.6,5.278,1.562,10.387,3.693,15.633,5.377,7.186,2.31,14.457,4.365,21.648,6.664,8.243,2.635,16.548,5.126,24.618,8.22,7.188,2.756,14.588,3.437,22.123,3.955,11.191.768,22.111,3.252,32.962,5.947,6.1,1.516,12.125,3.406,18.1,5.373a53.984,53.984,0,0,1,22.365,14.414,91.62,91.62,0,0,0,8.684,7.994c5.225,4.218,8.876,9.692,12.68,15.069.448.631.795,1.458,1.409,1.828,5.646,3.405,8.762,8.912,11.828,14.379,2.38,4.248,4.437,8.688,6.429,13.137a17.1,17.1,0,0,1,1.553,5.9c.39,7.2,1.457,14.355.806,21.635a139.094,139.094,0,0,0-.27,17.477c.631,16.945-1.638,33.614-4.135,50.3-1.768,11.821-2.813,23.75-4.6,35.568a98.236,98.236,0,0,1-4.412,18.815,48.535,48.535,0,0,1-7.809,13.413,64.014,64.014,0,0,1-28.346,20.524c-5.031,1.84-9.969,4.016-15.12,5.42-6.975,1.9-14.072,3.415-21.186,4.721-10.843,1.988-21.726,3.756-32.623,5.432-11.593,1.783-23.151,2.146-34.709-.738-6.254-1.56-12.724-2.225-19.032-3.585a340.439,340.439,0,0,1-52.53-15.425,50.482,50.482,0,0,1-15.113-8.6c-4.135-3.6-9.222-6.118-13.249-9.813-7.759-7.123-15.228-14.584-22.512-22.2-6.413-6.705-12.354-13.86-18.618-20.709-2.01-2.2-4.49-3.958-6.583-6.086-6.292-6.393-12.447-12.92-18.76-19.292-2.99-3.018-6.28-5.737-9.312-8.717-2.913-2.863-5.646-5.909-8.5-8.838-5.054-5.192-9.9-10.616-15.265-15.471A95.58,95.58,0,0,1,5.317,144.555,30.23,30.23,0,0,1,1.01,126.02c.4-4.076.64-8.068,2.264-11.98a32.09,32.09,0,0,1,8.913-12.022c6.066-5.251,12.262-10.37,18.612-15.275C38.272,80.97,45.916,75.412,53.587,69.9c5.5-3.949,11.387-7.378,16.7-11.554,10.011-7.875,20.188-15.547,29.3-24.535,7.389-7.288,15.041-14.344,22.961-21.048,5.884-4.98,12.413-9.249,20.121-11A76.162,76.162,0,0,1,151.552.775ZM22.027,114.526c-4.83-2.006-6.788-1.425-8.588,2.859l4.937,1.8.471-3,3.183-1.659c1.6-1.312,3.6-2.321,3.971-4.828C22.658,110.159,22.658,110.159,22.027,114.526ZM131.855,17.544c-1.337,2.353-2.241,4-1.25,6.147C133.409,21.638,133.44,21.521,131.855,17.544ZM40.362,96.565c-.98,2.351-1.652,3.967-2.45,5.877C42.144,101.13,42.144,101.13,40.362,96.565ZM144.167,181.5c-.841-.546-1.549-1.2-1.714-1.082a10.214,10.214,0,0,0-1.611,1.745c.479.272,1.03.843,1.417.747C142.847,182.771,143.325,182.164,144.167,181.5Zm9.368.861c-.612.736-1.27,1.186-1.226,1.551a5.5,5.5,0,0,0,.923,1.769c.514-.41,1.378-.775,1.442-1.246C154.744,183.912,154.081,183.292,153.535,182.365Zm-.642,48.887c.023.4.048.811.071,1.215l2.822-.42c-.032-.265-.066-.53-.1-.795Zm-29.6-197.268c.1-.293.21-.585.316-.879l-2.787-1.074c-.111.321-.224.643-.338.964Zm6.8,144.781c-.215.53-.544.939-.464,1.24.087.333.551.568.852.844a4.276,4.276,0,0,0,.66-1.289C131.168,179.38,130.563,179.106,130.095,178.765Zm8.791,2.406a8.868,8.868,0,0,0-2-.471c-.174,0-.336.62-.5.956a3.277,3.277,0,0,0,1.181.427C137.878,182.07,138.175,181.686,138.886,181.171Zm10.386,3.454c-.172-.21-.345-.418-.516-.627a4.705,4.705,0,0,0-.5.941c-.022.064.418.27.644.41C149.021,185.107,149.147,184.868,149.272,184.625ZM128.285,26.713c-.217-.182-.436-.362-.651-.543-.109.252-.348.537-.294.748s.395.363.61.541C128.061,27.211,128.175,26.963,128.285,26.713Z" transform="translate(526.71 -36.403) rotate(-45)" fill="#31cbe7"/>
      <path id="Path_16601" data-name="Path 16601" d="M177.9.775c9.588.292,18.722,2.731,27.768,5.409,6.2,1.835,12.2,4.338,18.366,6.318,8.442,2.714,16.985,5.128,25.433,7.829,9.684,3.1,19.441,6.023,28.922,9.658,8.445,3.238,17.139,4.038,25.991,4.646,13.147.9,25.978,3.821,38.726,6.987,7.169,1.781,14.245,4,21.267,6.312a63.424,63.424,0,0,1,26.275,16.934,107.644,107.644,0,0,0,10.2,9.392c6.138,4.955,10.428,11.387,14.9,17.7.527.741.934,1.713,1.656,2.148,6.633,4,10.294,10.47,13.9,16.894,2.8,4.991,5.213,10.207,7.553,15.434a20.09,20.09,0,0,1,1.825,6.936c.458,8.461,1.712,16.865.947,25.419a163.416,163.416,0,0,0-.317,20.533c.741,19.908-1.924,39.492-4.858,59.095-2.077,13.887-3.3,27.9-5.4,41.787a115.415,115.415,0,0,1-5.183,22.1,57.021,57.021,0,0,1-9.175,15.758,75.207,75.207,0,0,1-33.3,24.113c-5.91,2.161-11.712,4.718-17.763,6.367-8.195,2.233-16.532,4.012-24.891,5.546-12.739,2.336-25.525,4.413-38.327,6.382-13.62,2.095-27.2,2.522-40.778-.867-7.347-1.833-14.949-2.615-22.36-4.211a399.97,399.97,0,0,1-61.716-18.122c-6.335-2.48-12.449-5.49-17.756-10.1-4.858-4.224-10.834-7.187-15.565-11.528-9.116-8.369-17.891-17.135-26.448-26.08-7.535-7.878-14.514-16.283-21.874-24.33-2.362-2.582-5.275-4.65-7.734-7.151-7.392-7.511-14.624-15.179-22.04-22.665-3.513-3.546-7.379-6.741-10.94-10.241-3.423-3.364-6.633-6.942-9.983-10.384-5.938-6.1-11.633-12.473-17.934-18.176C18.654,188.81,11.9,179.593,6.094,169.7a35.515,35.515,0,0,1-5.06-21.776c.47-4.789.752-9.478,2.66-14.075a37.7,37.7,0,0,1,10.471-14.125c7.127-6.17,14.406-12.183,21.866-17.946,8.78-6.783,17.761-13.312,26.773-19.789,6.458-4.64,13.378-8.668,19.616-13.574,11.762-9.252,23.718-18.265,34.425-28.826,8.681-8.563,17.671-16.852,26.976-24.728C150.734,9.008,158.4,3.992,167.462,1.93,170.854,1.163,174.414,1.139,177.9.775ZM25.727,134.417c-5.674-2.357-7.975-1.674-10.09,3.359l5.8,2.114.553-3.525,3.74-1.949c1.884-1.542,4.227-2.727,4.666-5.672C26.468,129.286,26.468,129.286,25.727,134.417ZM154.76,20.476c-1.571,2.764-2.633,4.7-1.468,7.221C156.586,25.286,156.621,25.148,154.76,20.476ZM47.268,113.315c-1.151,2.763-1.941,4.661-2.878,6.9C49.361,118.679,49.361,118.679,47.268,113.315Zm121.956,99.792c-.988-.642-1.819-1.407-2.013-1.271a12,12,0,0,0-1.893,2.05c.563.32,1.21.99,1.665.878C167.674,214.594,168.234,213.882,169.225,213.106Zm11.006,1.011c-.719.865-1.492,1.394-1.441,1.822a6.458,6.458,0,0,0,1.085,2.079c.6-.482,1.619-.91,1.694-1.464C181.65,215.936,180.872,215.207,180.23,214.117Zm-.755,57.435c.028.475.056.952.084,1.428l3.315-.494c-.038-.312-.077-.622-.113-.934ZM144.7,39.79c.123-.344.246-.688.371-1.032L141.8,37.5c-.131.377-.263.756-.4,1.133Zm7.989,170.1c-.253.622-.639,1.1-.545,1.457.1.392.647.667,1,.992a5.024,5.024,0,0,0,.775-1.514C153.953,210.611,153.241,210.289,152.691,209.888Zm10.328,2.827a10.419,10.419,0,0,0-2.351-.553c-.2.005-.394.728-.588,1.123a3.85,3.85,0,0,0,1.387.5C161.836,213.772,162.184,213.32,163.02,212.715Zm12.2,4.058c-.2-.246-.4-.491-.607-.736a5.527,5.527,0,0,0-.591,1.106c-.026.075.491.317.757.482C174.927,217.34,175.075,217.058,175.221,216.773ZM150.565,31.248c-.255-.214-.512-.426-.765-.638-.128.3-.409.631-.346.879s.464.427.717.635C150.3,31.834,150.436,31.542,150.565,31.248Z" transform="translate(-113.867 -136.775)" fill="#0c196b"/>
      <path id="Path_16602" data-name="Path 16602" d="M151.552.775c8.161.249,15.936,2.325,23.636,4.6,5.278,1.562,10.387,3.693,15.633,5.377,7.186,2.31,14.457,4.365,21.648,6.664,8.243,2.635,16.548,5.126,24.618,8.22,7.188,2.756,14.588,3.437,22.123,3.955,11.191.768,22.111,3.252,32.962,5.947,6.1,1.516,12.125,3.406,18.1,5.373a53.984,53.984,0,0,1,22.365,14.414,91.62,91.62,0,0,0,8.684,7.994c5.225,4.218,8.876,9.692,12.68,15.069.448.631.795,1.458,1.409,1.828,5.646,3.405,8.762,8.912,11.828,14.379,2.38,4.248,4.437,8.688,6.429,13.137a17.1,17.1,0,0,1,1.553,5.9c.39,7.2,1.457,14.355.806,21.635a139.094,139.094,0,0,0-.27,17.477c.631,16.945-1.638,33.614-4.135,50.3-1.768,11.821-2.813,23.75-4.6,35.568a98.236,98.236,0,0,1-4.412,18.815,48.535,48.535,0,0,1-7.809,13.413,64.014,64.014,0,0,1-28.346,20.524c-5.031,1.84-9.969,4.016-15.12,5.42-6.975,1.9-14.072,3.415-21.186,4.721-10.843,1.988-21.726,3.756-32.623,5.432-11.593,1.783-23.151,2.146-34.709-.738-6.254-1.56-12.724-2.225-19.032-3.585a340.439,340.439,0,0,1-52.53-15.425,50.482,50.482,0,0,1-15.113-8.6c-4.135-3.6-9.222-6.118-13.249-9.813-7.759-7.123-15.228-14.584-22.512-22.2-6.413-6.705-12.354-13.86-18.618-20.709-2.01-2.2-4.49-3.958-6.583-6.086-6.292-6.393-12.447-12.92-18.76-19.292-2.99-3.018-6.28-5.737-9.312-8.717-2.913-2.863-5.646-5.909-8.5-8.838-5.054-5.192-9.9-10.616-15.265-15.471A95.58,95.58,0,0,1,5.317,144.555,30.23,30.23,0,0,1,1.01,126.02c.4-4.076.64-8.068,2.264-11.98a32.09,32.09,0,0,1,8.913-12.022c6.066-5.251,12.262-10.37,18.612-15.275C38.272,80.97,45.916,75.412,53.587,69.9c5.5-3.949,11.387-7.378,16.7-11.554,10.011-7.875,20.188-15.547,29.3-24.535,7.389-7.288,15.041-14.344,22.961-21.048,5.884-4.98,12.413-9.249,20.121-11A76.162,76.162,0,0,1,151.552.775ZM22.027,114.526c-4.83-2.006-6.788-1.425-8.588,2.859l4.937,1.8.471-3,3.183-1.659c1.6-1.312,3.6-2.321,3.971-4.828C22.658,110.159,22.658,110.159,22.027,114.526ZM131.855,17.544c-1.337,2.353-2.241,4-1.25,6.147C133.409,21.638,133.44,21.521,131.855,17.544ZM40.362,96.565c-.98,2.351-1.652,3.967-2.45,5.877C42.144,101.13,42.144,101.13,40.362,96.565ZM144.167,181.5c-.841-.546-1.549-1.2-1.714-1.082a10.214,10.214,0,0,0-1.611,1.745c.479.272,1.03.843,1.417.747C142.847,182.771,143.325,182.164,144.167,181.5Zm9.368.861c-.612.736-1.27,1.186-1.226,1.551a5.5,5.5,0,0,0,.923,1.769c.514-.41,1.378-.775,1.442-1.246C154.744,183.912,154.081,183.292,153.535,182.365Zm-.642,48.887c.023.4.048.811.071,1.215l2.822-.42c-.032-.265-.066-.53-.1-.795Zm-29.6-197.268c.1-.293.21-.585.316-.879l-2.787-1.074c-.111.321-.224.643-.338.964Zm6.8,144.781c-.215.53-.544.939-.464,1.24.087.333.551.568.852.844a4.276,4.276,0,0,0,.66-1.289C131.168,179.38,130.563,179.106,130.095,178.765Zm8.791,2.406a8.868,8.868,0,0,0-2-.471c-.174,0-.336.62-.5.956a3.277,3.277,0,0,0,1.181.427C137.878,182.07,138.175,181.686,138.886,181.171Zm10.386,3.454c-.172-.21-.345-.418-.516-.627a4.705,4.705,0,0,0-.5.941c-.022.064.418.27.644.41C149.021,185.107,149.147,184.868,149.272,184.625ZM128.285,26.713c-.217-.182-.436-.362-.651-.543-.109.252-.348.537-.294.748s.395.363.61.541C128.061,27.211,128.175,26.963,128.285,26.713Z" transform="translate(-77.289 55.597) rotate(-45)" fill="#31cbe7"/>
      <g id="Mask_Group_26" data-name="Mask Group 26" clip-path="url(#clip-path-2)">
        <g id="Group_569" data-name="Group 569">
          <path id="Path_16603" data-name="Path 16603" d="M177.9.775c9.588.292,18.722,2.731,27.768,5.409,6.2,1.835,12.2,4.338,18.366,6.318,8.442,2.714,16.985,5.128,25.433,7.829,9.684,3.1,19.441,6.023,28.922,9.658,8.445,3.238,17.139,4.038,25.991,4.646,13.147.9,25.978,3.821,38.726,6.987,7.169,1.781,14.245,4,21.267,6.312a63.424,63.424,0,0,1,26.275,16.934,107.644,107.644,0,0,0,10.2,9.392c6.138,4.955,10.428,11.387,14.9,17.7.527.741.934,1.713,1.656,2.148,6.633,4,10.294,10.47,13.9,16.894,2.8,4.991,5.213,10.207,7.553,15.434a20.09,20.09,0,0,1,1.825,6.936c.458,8.461,1.712,16.865.947,25.419a163.416,163.416,0,0,0-.317,20.533c.741,19.908-1.924,39.492-4.858,59.095-2.077,13.887-3.3,27.9-5.4,41.787a115.415,115.415,0,0,1-5.183,22.1,57.021,57.021,0,0,1-9.175,15.758,75.207,75.207,0,0,1-33.3,24.113c-5.91,2.161-11.712,4.718-17.763,6.367-8.195,2.233-16.532,4.012-24.891,5.546-12.739,2.336-25.525,4.413-38.327,6.382-13.62,2.095-27.2,2.522-40.778-.867-7.347-1.833-14.949-2.615-22.36-4.211a399.97,399.97,0,0,1-61.716-18.122c-6.335-2.48-12.449-5.49-17.756-10.1-4.858-4.224-10.834-7.187-15.565-11.528-9.116-8.369-17.891-17.135-26.448-26.08-7.535-7.878-14.514-16.283-21.874-24.33-2.362-2.582-5.275-4.65-7.734-7.151-7.392-7.511-14.624-15.179-22.04-22.665-3.513-3.546-7.379-6.741-10.94-10.241-3.423-3.364-6.633-6.942-9.983-10.384-5.938-6.1-11.633-12.473-17.934-18.176C18.654,188.81,11.9,179.593,6.094,169.7a35.515,35.515,0,0,1-5.06-21.776c.47-4.789.752-9.478,2.66-14.075a37.7,37.7,0,0,1,10.471-14.125c7.127-6.17,14.406-12.183,21.866-17.946,8.78-6.783,17.761-13.312,26.773-19.789,6.458-4.64,13.378-8.668,19.616-13.574,11.762-9.252,23.718-18.265,34.425-28.826,8.681-8.563,17.671-16.852,26.976-24.728C150.734,9.008,158.4,3.992,167.462,1.93,170.854,1.163,174.414,1.139,177.9.775ZM25.727,134.417c-5.674-2.357-7.975-1.674-10.09,3.359l5.8,2.114.553-3.525,3.74-1.949c1.884-1.542,4.227-2.727,4.666-5.672C26.468,129.286,26.468,129.286,25.727,134.417ZM154.76,20.476c-1.571,2.764-2.633,4.7-1.468,7.221C156.586,25.286,156.621,25.148,154.76,20.476ZM47.268,113.315c-1.151,2.763-1.941,4.661-2.878,6.9C49.361,118.679,49.361,118.679,47.268,113.315Zm121.956,99.792c-.988-.642-1.819-1.407-2.013-1.271a12,12,0,0,0-1.893,2.05c.563.32,1.21.99,1.665.878C167.674,214.594,168.234,213.882,169.225,213.106Zm11.006,1.011c-.719.865-1.492,1.394-1.441,1.822a6.458,6.458,0,0,0,1.085,2.079c.6-.482,1.619-.91,1.694-1.464C181.65,215.936,180.872,215.207,180.23,214.117Zm-.755,57.435c.028.475.056.952.084,1.428l3.315-.494c-.038-.312-.077-.622-.113-.934ZM144.7,39.79c.123-.344.246-.688.371-1.032L141.8,37.5c-.131.377-.263.756-.4,1.133Zm7.989,170.1c-.253.622-.639,1.1-.545,1.457.1.392.647.667,1,.992a5.024,5.024,0,0,0,.775-1.514C153.953,210.611,153.241,210.289,152.691,209.888Zm10.328,2.827a10.419,10.419,0,0,0-2.351-.553c-.2.005-.394.728-.588,1.123a3.85,3.85,0,0,0,1.387.5C161.836,213.772,162.184,213.32,163.02,212.715Zm12.2,4.058c-.2-.246-.4-.491-.607-.736a5.527,5.527,0,0,0-.591,1.106c-.026.075.491.317.757.482C174.927,217.34,175.075,217.058,175.221,216.773ZM150.565,31.248c-.255-.214-.512-.426-.765-.638-.128.3-.409.631-.346.879s.464.427.717.635C150.3,31.834,150.436,31.542,150.565,31.248Z" transform="translate(500.133 287.225)" fill="#0c196b"/>
          <path id="Path_16604" data-name="Path 16604" d="M177.9.775c9.588.292,18.722,2.731,27.768,5.409,6.2,1.835,12.2,4.338,18.366,6.318,8.442,2.714,16.985,5.128,25.433,7.829,9.684,3.1,19.441,6.023,28.922,9.658,8.445,3.238,17.139,4.038,25.991,4.646,13.147.9,25.978,3.821,38.726,6.987,7.169,1.781,14.245,4,21.267,6.312a63.424,63.424,0,0,1,26.275,16.934,107.644,107.644,0,0,0,10.2,9.392c6.138,4.955,10.428,11.387,14.9,17.7.527.741.934,1.713,1.656,2.148,6.633,4,10.294,10.47,13.9,16.894,2.8,4.991,5.213,10.207,7.553,15.434a20.09,20.09,0,0,1,1.825,6.936c.458,8.461,1.712,16.865.947,25.419a163.416,163.416,0,0,0-.317,20.533c.741,19.908-1.924,39.492-4.858,59.095-2.077,13.887-3.3,27.9-5.4,41.787a115.415,115.415,0,0,1-5.183,22.1,57.021,57.021,0,0,1-9.175,15.758,75.207,75.207,0,0,1-33.3,24.113c-5.91,2.161-11.712,4.718-17.763,6.367-8.195,2.233-16.532,4.012-24.891,5.546-12.739,2.336-25.525,4.413-38.327,6.382-13.62,2.095-27.2,2.522-40.778-.867-7.347-1.833-14.949-2.615-22.36-4.211a399.97,399.97,0,0,1-61.716-18.122c-6.335-2.48-12.449-5.49-17.756-10.1-4.858-4.224-10.834-7.187-15.565-11.528-9.116-8.369-17.891-17.135-26.448-26.08-7.535-7.878-14.514-16.283-21.874-24.33-2.362-2.582-5.275-4.65-7.734-7.151-7.392-7.511-14.624-15.179-22.04-22.665-3.513-3.546-7.379-6.741-10.94-10.241-3.423-3.364-6.633-6.942-9.983-10.384-5.938-6.1-11.633-12.473-17.934-18.176C18.654,188.81,11.9,179.593,6.094,169.7a35.515,35.515,0,0,1-5.06-21.776c.47-4.789.752-9.478,2.66-14.075a37.7,37.7,0,0,1,10.471-14.125c7.127-6.17,14.406-12.183,21.866-17.946,8.78-6.783,17.761-13.312,26.773-19.789,6.458-4.64,13.378-8.668,19.616-13.574,11.762-9.252,23.718-18.265,34.425-28.826,8.681-8.563,17.671-16.852,26.976-24.728C150.734,9.008,158.4,3.992,167.462,1.93,170.854,1.163,174.414,1.139,177.9.775ZM25.727,134.417c-5.674-2.357-7.975-1.674-10.09,3.359l5.8,2.114.553-3.525,3.74-1.949c1.884-1.542,4.227-2.727,4.666-5.672C26.468,129.286,26.468,129.286,25.727,134.417ZM154.76,20.476c-1.571,2.764-2.633,4.7-1.468,7.221C156.586,25.286,156.621,25.148,154.76,20.476ZM47.268,113.315c-1.151,2.763-1.941,4.661-2.878,6.9C49.361,118.679,49.361,118.679,47.268,113.315Zm121.956,99.792c-.988-.642-1.819-1.407-2.013-1.271a12,12,0,0,0-1.893,2.05c.563.32,1.21.99,1.665.878C167.674,214.594,168.234,213.882,169.225,213.106Zm11.006,1.011c-.719.865-1.492,1.394-1.441,1.822a6.458,6.458,0,0,0,1.085,2.079c.6-.482,1.619-.91,1.694-1.464C181.65,215.936,180.872,215.207,180.23,214.117Zm-.755,57.435c.028.475.056.952.084,1.428l3.315-.494c-.038-.312-.077-.622-.113-.934ZM144.7,39.79c.123-.344.246-.688.371-1.032L141.8,37.5c-.131.377-.263.756-.4,1.133Zm7.989,170.1c-.253.622-.639,1.1-.545,1.457.1.392.647.667,1,.992a5.024,5.024,0,0,0,.775-1.514C153.953,210.611,153.241,210.289,152.691,209.888Zm10.328,2.827a10.419,10.419,0,0,0-2.351-.553c-.2.005-.394.728-.588,1.123a3.85,3.85,0,0,0,1.387.5C161.836,213.772,162.184,213.32,163.02,212.715Zm12.2,4.058c-.2-.246-.4-.491-.607-.736a5.527,5.527,0,0,0-.591,1.106c-.026.075.491.317.757.482C174.927,217.34,175.075,217.058,175.221,216.773ZM150.565,31.248c-.255-.214-.512-.426-.765-.638-.128.3-.409.631-.346.879s.464.427.717.635C150.3,31.834,150.436,31.542,150.565,31.248Z" transform="translate(629.264 330.04) rotate(19)" fill="#fcb1a5"/>
          <path id="Path_16605" data-name="Path 16605" d="M110.284.775c5.926.181,11.571,1.688,17.162,3.343,3.833,1.134,7.542,2.681,11.351,3.9,5.218,1.677,10.5,3.17,15.719,4.839,5.985,1.913,12.016,3.722,17.876,5.969,5.219,2,10.593,2.5,16.064,2.872,8.126.558,16.056,2.362,23.935,4.318,4.431,1.1,8.8,2.473,13.144,3.9a39.2,39.2,0,0,1,16.24,10.466,66.529,66.529,0,0,0,6.306,5.8c3.794,3.063,6.445,7.038,9.207,10.942.326.458.577,1.059,1.023,1.328,4.1,2.472,6.363,6.471,8.589,10.441,1.728,3.085,3.222,6.308,4.668,9.539A12.416,12.416,0,0,1,272.7,82.73c.283,5.229,1.058,10.423.585,15.71a101,101,0,0,0-.2,12.69c.458,12.3-1.189,24.408-3,36.524-1.284,8.583-2.043,17.246-3.338,25.827a71.331,71.331,0,0,1-3.2,13.662,35.242,35.242,0,0,1-5.67,9.739,46.483,46.483,0,0,1-20.583,14.9c-3.653,1.336-7.239,2.916-10.979,3.935-5.065,1.38-10.218,2.48-15.384,3.428-7.873,1.443-15.776,2.727-23.689,3.944-8.418,1.295-16.81,1.558-25.2-.536-4.541-1.133-9.239-1.616-13.82-2.6a247.2,247.2,0,0,1-38.144-11.2A36.656,36.656,0,0,1,99.1,202.509c-3-2.611-6.7-4.442-9.62-7.125-5.634-5.172-11.057-10.59-16.346-16.119-4.657-4.869-8.97-10.064-13.519-15.037-1.46-1.6-3.26-2.874-4.78-4.42-4.569-4.642-9.038-9.382-13.622-14.008-2.171-2.192-4.56-4.166-6.762-6.329-2.115-2.079-4.1-4.291-6.17-6.418-3.67-3.77-7.19-7.709-11.084-11.234A69.4,69.4,0,0,1,4.1,105.178,21.951,21.951,0,0,1,.971,91.719c.291-2.96.465-5.858,1.644-8.7a23.3,23.3,0,0,1,6.472-8.73c4.4-3.813,8.9-7.53,13.514-11.091,5.427-4.192,10.977-8.228,16.547-12.23,3.991-2.868,8.268-5.357,12.124-8.39,7.269-5.718,14.659-11.289,21.277-17.816C77.914,19.471,83.47,14.348,89.222,9.48c4.272-3.616,9.013-6.716,14.611-7.991A55.3,55.3,0,0,1,110.284.775Zm-94.052,82.6C12.725,81.917,11.3,82.339,10,85.449l3.585,1.307.342-2.179,2.311-1.2c1.164-.953,2.613-1.686,2.884-3.506C16.691,80.2,16.691,80.2,16.232,83.373ZM95.982,12.951c-.971,1.708-1.627,2.9-.908,4.463C97.11,15.924,97.132,15.839,95.982,12.951ZM29.546,70.331c-.712,1.707-1.2,2.881-1.779,4.267C30.84,73.646,30.84,73.646,29.546,70.331Zm75.376,61.677c-.61-.4-1.125-.87-1.244-.785a7.417,7.417,0,0,0-1.17,1.267c.348.2.748.612,1.029.542C103.963,132.927,104.31,132.487,104.922,132.008Zm6.8.625c-.444.534-.922.861-.891,1.126a3.991,3.991,0,0,0,.67,1.285c.373-.3,1-.563,1.047-.905C112.6,133.756,112.121,133.306,111.724,132.633Zm-.466,35.5c.017.294.035.589.052.882l2.049-.305c-.023-.193-.048-.385-.07-.577ZM89.766,24.889c.076-.213.152-.425.229-.638l-2.024-.78c-.081.233-.163.467-.245.7ZM94.7,130.018c-.156.385-.4.682-.337.9.063.242.4.412.619.613a3.1,3.1,0,0,0,.479-.936C95.483,130.465,95.043,130.266,94.7,130.018Zm6.384,1.747a6.439,6.439,0,0,0-1.453-.342c-.126,0-.244.45-.363.694a2.38,2.38,0,0,0,.857.31C100.355,132.419,100.57,132.14,101.087,131.766Zm7.541,2.508-.375-.455a3.416,3.416,0,0,0-.365.683c-.016.046.3.2.468.3C108.446,134.624,108.538,134.45,108.628,134.274ZM93.389,19.609l-.473-.394c-.079.183-.253.39-.214.543s.287.264.443.393C93.227,19.971,93.309,19.791,93.389,19.609Z" transform="translate(673.524 400.878) rotate(19)" fill="#fa9787"/>
          <g id="Group_512" data-name="Group 512" transform="matrix(-0.966, -0.259, 0.259, -0.966, 227.895, 5456.757)">
            <path id="Path_16337" data-name="Path 16337" d="M6412.3,4860.269c1.649-.856,7.009-2.117,9.759,6.13s2.278,11.446-3.219,8.7-8.405-6.1-9.336-9.122S6410.658,4861.125,6412.3,4860.269Z" transform="translate(-5299.948 -0.653)" fill="#0c196b"/>
            <path id="Path_16338" data-name="Path 16338" d="M6412.3,4860.269c1.649-.856,7.009-2.117,9.759,6.13s2.278,11.446-3.219,8.7-8.405-6.1-9.336-9.122S6410.658,4861.125,6412.3,4860.269Z" transform="translate(-5279.391 6.199)" fill="#0c196b"/>
            <path id="Path_16339" data-name="Path 16339" d="M6412.3,4860.269c1.649-.856,7.009-2.117,9.759,6.13s2.278,11.446-3.219,8.7-8.405-6.1-9.336-9.122S6410.658,4861.125,6412.3,4860.269Z" transform="translate(-5251.98 11.094)" fill="#0c196b"/>
            <path id="Path_16340" data-name="Path 16340" d="M6412.3,4860.269c1.649-.856,7.009-2.117,9.759,6.13s2.278,11.446-3.219,8.7-8.405-6.1-9.336-9.122S6410.658,4861.125,6412.3,4860.269Z" transform="translate(-5257.854 35.567)" fill="#0c196b"/>
            <path id="Path_16341" data-name="Path 16341" d="M6412.3,4860.269c1.649-.856,7.009-2.117,9.759,6.13s2.278,11.446-3.219,8.7-8.405-6.1-9.336-9.122S6410.658,4861.125,6412.3,4860.269Z" transform="translate(-5285.264 27.736)" fill="#0c196b"/>
            <path id="Path_16342" data-name="Path 16342" d="M6412.3,4860.269c1.649-.856,7.009-2.117,9.759,6.13s2.278,11.446-3.219,8.7-8.405-6.1-9.336-9.122S6410.658,4861.125,6412.3,4860.269Z" transform="translate(-5311.695 23.82)" fill="#0c196b"/>
            <path id="Path_16343" data-name="Path 16343" d="M6412.3,4860.269c1.649-.856,7.009-2.117,9.759,6.13s2.278,11.446-3.219,8.7-8.405-6.1-9.336-9.122S6410.658,4861.125,6412.3,4860.269Z" transform="translate(-5318.548 44.378)" fill="#0c196b"/>
            <path id="Path_16344" data-name="Path 16344" d="M6412.3,4860.269c1.649-.856,7.009-2.117,9.759,6.13s2.278,11.446-3.219,8.7-8.405-6.1-9.336-9.122S6410.658,4861.125,6412.3,4860.269Z" transform="translate(-5297.011 52.209)" fill="#0c196b"/>
            <path id="Path_16345" data-name="Path 16345" d="M6412.3,4860.269c1.649-.856,7.009-2.117,9.759,6.13s2.278,11.446-3.219,8.7-8.405-6.1-9.336-9.122S6410.658,4861.125,6412.3,4860.269Z" transform="translate(-5262.749 60.041)" fill="#0c196b"/>
            <path id="Path_16346" data-name="Path 16346" d="M6412.3,4860.269c1.649-.856,7.009-2.117,9.759,6.13s2.278,11.446-3.219,8.7-8.405-6.1-9.336-9.122S6410.658,4861.125,6412.3,4860.269Z" transform="translate(-5235.338 43.399)" fill="#0c196b"/>
            <path id="Path_16347" data-name="Path 16347" d="M6412.3,4860.269c1.649-.856,7.009-2.117,9.759,6.13s2.278,11.446-3.219,8.7-8.405-6.1-9.336-9.122S6410.658,4861.125,6412.3,4860.269Z" transform="translate(-5340.084 20.883)" fill="#0c196b"/>
            <path id="Path_16348" data-name="Path 16348" d="M6412.3,4860.269c1.649-.856,7.009-2.117,9.759,6.13s2.278,11.446-3.219,8.7-8.405-6.1-9.336-9.122S6410.658,4861.125,6412.3,4860.269Z" transform="translate(-5327.358 -4.569)" fill="#0c196b"/>
            <path id="Path_16349" data-name="Path 16349" d="M6412.3,4860.269c1.649-.856,7.009-2.117,9.759,6.13s2.278,11.446-3.219,8.7-8.405-6.1-9.336-9.122S6410.658,4861.125,6412.3,4860.269Z" transform="translate(-5322.464 -31)" fill="#0c196b"/>
            <path id="Path_16350" data-name="Path 16350" d="M6412.3,4860.269c1.649-.856,7.009-2.117,9.759,6.13s2.278,11.446-3.219,8.7-8.405-6.1-9.336-9.122S6410.658,4861.125,6412.3,4860.269Z" transform="translate(-5297.99 -27.085)" fill="#0c196b"/>
            <path id="Path_16351" data-name="Path 16351" d="M6412.3,4860.269c1.649-.856,7.009-2.117,9.759,6.13s2.278,11.446-3.219,8.7-8.405-6.1-9.336-9.122S6410.658,4861.125,6412.3,4860.269Z" transform="translate(-5344 46.336)" fill="#0c196b"/>
          </g>
        </g>
        <g id="Group_570" data-name="Group 570" transform="translate(-114 75)">
          <path id="Path_16603-2" data-name="Path 16603" d="M59.069.775A36.022,36.022,0,0,1,68.2,2.553c2.039.6,4.012,1.426,6.038,2.077C77.012,5.522,79.82,6.316,82.6,7.2c3.184,1.018,6.392,1.98,9.509,3.175a28.874,28.874,0,0,0,8.545,1.527,73.971,73.971,0,0,1,12.731,2.3c2.357.586,4.683,1.316,6.992,2.075a20.851,20.851,0,0,1,8.638,5.567,35.389,35.389,0,0,0,3.354,3.088,27.37,27.37,0,0,1,4.9,5.821c.173.244.307.563.544.706,2.181,1.315,3.384,3.442,4.569,5.554.919,1.641,1.714,3.356,2.483,5.074a6.6,6.6,0,0,1,.6,2.28,57.9,57.9,0,0,1,.311,8.357,53.725,53.725,0,0,0-.1,6.75c.244,6.545-.633,12.983-1.6,19.428-.683,4.566-1.087,9.174-1.776,13.738a37.943,37.943,0,0,1-1.7,7.267,18.746,18.746,0,0,1-3.016,5.181,24.725,24.725,0,0,1-10.949,7.927c-1.943.711-3.85,1.551-5.84,2.093-2.694.734-5.435,1.319-8.183,1.823-4.188.768-8.391,1.451-12.6,2.1a33.589,33.589,0,0,1-13.406-.285c-2.415-.6-4.914-.86-7.351-1.385a131.494,131.494,0,0,1-20.29-5.958,19.5,19.5,0,0,1-5.837-3.322c-1.6-1.389-3.562-2.363-5.117-3.79-3-2.751-5.882-5.633-8.7-8.574-2.477-2.59-4.771-5.353-7.191-8-.776-.849-1.734-1.529-2.543-2.351-2.43-2.469-4.808-4.99-7.246-7.451-1.155-1.166-2.426-2.216-3.6-3.367-1.125-1.106-2.181-2.282-3.282-3.414-1.952-2.005-3.825-4.1-5.9-5.976A36.917,36.917,0,0,1,2.586,56.31,11.676,11.676,0,0,1,.923,49.151,15.606,15.606,0,0,1,1.8,44.523,12.4,12.4,0,0,1,5.24,39.88c2.343-2.028,4.736-4.005,7.189-5.9,2.887-2.23,5.839-4.377,8.8-6.506,2.123-1.525,4.4-2.85,6.449-4.463A131.587,131.587,0,0,0,39,13.535c2.854-2.815,5.809-5.54,8.869-8.13a18.542,18.542,0,0,1,7.772-4.25A29.417,29.417,0,0,1,59.069.775ZM9.041,44.711c-1.866-.775-2.622-.55-3.317,1.1l1.907.7.182-1.159,1.229-.641c.619-.507,1.39-.9,1.534-1.865C9.284,43.024,9.284,43.024,9.041,44.711ZM51.461,7.252c-.516.909-.866,1.545-.483,2.374C52.062,8.833,52.073,8.788,51.461,7.252ZM16.123,37.773c-.379.908-.638,1.532-.946,2.27C16.811,39.537,16.811,39.537,16.123,37.773ZM56.217,70.581c-.325-.211-.6-.463-.662-.418a3.945,3.945,0,0,0-.622.674c.185.105.4.326.547.289C55.707,71.07,55.891,70.836,56.217,70.581Zm3.618.332c-.236.284-.49.458-.474.6a2.123,2.123,0,0,0,.357.683c.2-.158.532-.3.557-.481C60.3,71.511,60.046,71.272,59.835,70.913ZM59.587,89.8c.009.156.019.313.028.469L60.7,90.1c-.012-.1-.025-.2-.037-.307ZM48.155,13.6l.122-.339L47.2,12.848c-.043.124-.087.248-.13.373Zm2.626,55.921c-.083.2-.21.363-.179.479s.213.219.329.326a1.652,1.652,0,0,0,.255-.5C51.2,69.761,50.962,69.655,50.781,69.523Zm3.4.929a3.425,3.425,0,0,0-.773-.182c-.067,0-.13.239-.193.369a1.266,1.266,0,0,0,.456.165C53.788,70.8,53.9,70.651,54.177,70.452Zm4.011,1.334-.2-.242a1.817,1.817,0,0,0-.194.363c-.009.025.161.1.249.158ZM50.083,10.793l-.251-.21c-.042.1-.134.208-.114.289s.152.14.236.209C50,10.986,50.04,10.89,50.083,10.793Z" transform="translate(385.194 287.225)" fill="#0c196b"/>
          <path id="Path_16604-2" data-name="Path 16604" d="M58.2,0A36.022,36.022,0,0,1,67.33,1.778c2.039.6,4.012,1.426,6.038,2.077,2.775.892,5.584,1.686,8.361,2.574,3.184,1.018,6.392,1.98,9.509,3.175a28.874,28.874,0,0,0,8.545,1.527,73.972,73.972,0,0,1,12.731,2.3c2.357.586,4.683,1.316,6.992,2.075a20.851,20.851,0,0,1,8.638,5.567,35.389,35.389,0,0,0,3.354,3.088,27.37,27.37,0,0,1,4.9,5.821c.173.244.307.563.544.706,2.181,1.315,3.384,3.442,4.569,5.554.919,1.641,1.714,3.356,2.483,5.074a6.6,6.6,0,0,1,.6,2.28,57.9,57.9,0,0,1,.311,8.357,53.725,53.725,0,0,0-.1,6.75c.244,6.545-.633,12.983-1.6,19.428-.683,4.566-1.087,9.174-1.776,13.738a37.943,37.943,0,0,1-1.7,7.267,18.746,18.746,0,0,1-3.016,5.181,24.725,24.725,0,0,1-10.949,7.927c-1.943.711-3.85,1.551-5.84,2.093-2.694.734-5.435,1.319-8.183,1.823-4.188.768-8.391,1.451-12.6,2.1a33.589,33.589,0,0,1-13.406-.285c-2.415-.6-4.914-.86-7.351-1.385a131.494,131.494,0,0,1-20.29-5.958,19.5,19.5,0,0,1-5.837-3.322c-1.6-1.389-3.562-2.363-5.117-3.79-3-2.751-5.882-5.633-8.7-8.574-2.477-2.59-4.771-5.353-7.191-8-.776-.849-1.734-1.529-2.543-2.351-2.43-2.469-4.808-4.99-7.246-7.451-1.155-1.166-2.426-2.216-3.6-3.367-1.125-1.106-2.181-2.282-3.282-3.414-1.952-2.005-3.825-4.1-5.9-5.976a36.917,36.917,0,0,1-6.965-8.852A11.676,11.676,0,0,1,.055,48.376a15.606,15.606,0,0,1,.875-4.627A12.4,12.4,0,0,1,4.372,39.1c2.343-2.028,4.736-4.005,7.189-5.9,2.887-2.23,5.839-4.377,8.8-6.506,2.123-1.525,4.4-2.85,6.449-4.463A131.587,131.587,0,0,0,38.129,12.76C40.983,9.945,43.938,7.22,47,4.63A18.542,18.542,0,0,1,54.769.38,29.417,29.417,0,0,1,58.2,0ZM8.173,43.936c-1.866-.775-2.622-.55-3.317,1.1l1.907.7.182-1.159,1.229-.641c.619-.507,1.39-.9,1.534-1.865C8.416,42.249,8.416,42.249,8.173,43.936ZM50.593,6.477c-.516.909-.866,1.545-.483,2.374C51.194,8.058,51.205,8.013,50.593,6.477ZM15.254,37c-.379.908-.638,1.532-.946,2.27C15.943,38.762,15.943,38.762,15.254,37ZM55.349,69.806c-.325-.211-.6-.463-.662-.418a3.945,3.945,0,0,0-.622.674c.185.105.4.326.547.289C54.839,70.3,55.023,70.061,55.349,69.806Zm3.618.332c-.236.284-.49.458-.474.6a2.123,2.123,0,0,0,.357.683c.2-.158.532-.3.557-.481C59.434,70.736,59.178,70.5,58.967,70.138Zm-.248,18.882c.009.156.019.313.028.469l1.09-.162c-.012-.1-.025-.2-.037-.307ZM47.287,12.827l.122-.339-1.077-.415c-.043.124-.087.248-.13.373Zm2.626,55.921c-.083.2-.21.363-.179.479s.213.219.329.326a1.652,1.652,0,0,0,.255-.5C50.328,68.986,50.094,68.88,49.913,68.748Zm3.4.929a3.425,3.425,0,0,0-.773-.182c-.067,0-.13.239-.193.369a1.266,1.266,0,0,0,.456.165C52.92,70.025,53.034,69.876,53.309,69.677Zm4.011,1.334-.2-.242a1.817,1.817,0,0,0-.194.363c-.009.025.161.1.249.158ZM49.214,10.018l-.251-.21c-.042.1-.134.208-.114.289s.152.14.236.209C49.128,10.211,49.172,10.115,49.214,10.018Z" transform="translate(428.417 302.155) rotate(19)" fill="#fcb1a5"/>
          <path id="Path_16605-2" data-name="Path 16605" d="M35.971,0a22.264,22.264,0,0,1,5.642,1.1c1.26.373,2.48.882,3.732,1.284,1.715.551,3.451,1.042,5.168,1.591,1.968.629,3.95,1.224,5.877,1.962a17.846,17.846,0,0,0,5.281.944A45.719,45.719,0,0,1,69.54,8.3c1.457.362,2.894.813,4.321,1.283A12.887,12.887,0,0,1,79.2,13.023a21.872,21.872,0,0,0,2.073,1.908,16.917,16.917,0,0,1,3.027,3.6c.107.151.19.348.336.437A8.5,8.5,0,0,1,87.461,22.4c.568,1.014,1.059,2.074,1.535,3.136a4.082,4.082,0,0,1,.371,1.409,35.788,35.788,0,0,1,.192,5.165,33.2,33.2,0,0,0-.064,4.172,64.7,64.7,0,0,1-.987,12.008c-.422,2.822-.672,5.67-1.1,8.491a23.451,23.451,0,0,1-1.053,4.491,11.586,11.586,0,0,1-1.864,3.2,15.282,15.282,0,0,1-6.767,4.9c-1.2.439-2.38.959-3.609,1.294-1.665.454-3.359.815-5.058,1.127-2.588.475-5.186.9-7.788,1.3a20.76,20.76,0,0,1-8.286-.176c-1.493-.372-3.037-.531-4.543-.856A81.272,81.272,0,0,1,35.9,68.375a12.051,12.051,0,0,1-3.608-2.053c-.987-.858-2.2-1.46-3.163-2.342-1.852-1.7-3.635-3.482-5.374-5.3-1.531-1.6-2.949-3.309-4.445-4.944-.48-.525-1.072-.945-1.571-1.453-1.5-1.526-2.971-3.084-4.478-4.605-.714-.72-1.5-1.37-2.223-2.081-.7-.683-1.348-1.411-2.028-2.11-1.207-1.24-2.364-2.534-3.644-3.693a22.817,22.817,0,0,1-4.3-5.471A7.216,7.216,0,0,1,.034,29.9a9.646,9.646,0,0,1,.541-2.86A7.661,7.661,0,0,1,2.7,24.169c1.448-1.254,2.927-2.476,4.443-3.646,1.784-1.378,3.609-2.7,5.44-4.021,1.312-.943,2.718-1.761,3.986-2.758a81.328,81.328,0,0,0,6.995-5.857c1.764-1.74,3.591-3.424,5.481-5.025A11.46,11.46,0,0,1,33.85.235,18.182,18.182,0,0,1,35.971,0ZM5.051,27.155c-1.153-.479-1.62-.34-2.05.682l1.179.43.112-.716.76-.4C5.434,26.841,5.911,26.6,6,26,5.2,26.112,5.2,26.112,5.051,27.155ZM31.269,4c-.319.562-.535.955-.3,1.467C31.641,4.98,31.648,4.952,31.269,4ZM9.428,22.867l-.585,1.4C9.853,23.957,9.853,23.957,9.428,22.867ZM34.209,43.144c-.2-.13-.37-.286-.409-.258a2.438,2.438,0,0,0-.385.417c.114.065.246.2.338.178C33.894,43.446,34.007,43.3,34.209,43.144Zm2.236.205c-.146.176-.3.283-.293.37a1.312,1.312,0,0,0,.22.422c.123-.1.329-.185.344-.3S36.575,43.571,36.445,43.349Zm-.153,11.67c.006.1.011.193.017.29l.674-.1c-.008-.063-.016-.126-.023-.19ZM29.226,7.928l.075-.21-.665-.256-.081.23ZM30.849,42.49c-.051.126-.13.224-.111.3s.131.135.2.2a1.021,1.021,0,0,0,.158-.308C31.106,42.637,30.961,42.571,30.849,42.49Zm2.1.574a2.117,2.117,0,0,0-.478-.112c-.042,0-.08.148-.119.228a.782.782,0,0,0,.282.1C32.707,43.279,32.778,43.187,32.948,43.064Zm2.479.825-.123-.15a1.123,1.123,0,0,0-.12.225c-.005.015.1.064.154.1Zm-5.01-37.7-.155-.13c-.026.06-.083.128-.07.179s.094.087.146.129C30.364,6.311,30.391,6.252,30.417,6.192Z" transform="translate(442.967 325.444) rotate(19)" fill="#fa9787"/>
          <g id="Group_512-2" data-name="Group 512" transform="matrix(-0.966, -0.259, 0.259, -0.966, 368.854, 363.263)">
            <path id="Path_16337-2" data-name="Path 16337" d="M1,.205C1.537-.076,3.3-.491,4.2,2.22S4.952,5.983,3.145,5.08a5.56,5.56,0,0,1-3.069-3A1.546,1.546,0,0,1,1,.205Z" transform="translate(14.483 9.977)" fill="#0c196b"/>
            <path id="Path_16338-2" data-name="Path 16338" d="M1,.205C1.537-.076,3.3-.491,4.2,2.22S4.952,5.983,3.145,5.08a5.56,5.56,0,0,1-3.069-3A1.546,1.546,0,0,1,1,.205Z" transform="translate(21.241 12.23)" fill="#0c196b"/>
            <path id="Path_16339-2" data-name="Path 16339" d="M1,.205C1.537-.076,3.3-.491,4.2,2.22S4.952,5.983,3.145,5.08a5.56,5.56,0,0,1-3.069-3A1.546,1.546,0,0,1,1,.205Z" transform="translate(30.252 13.839)" fill="#0c196b"/>
            <path id="Path_16340-2" data-name="Path 16340" d="M1,.205C1.537-.076,3.3-.491,4.2,2.22S4.952,5.983,3.145,5.08a5.56,5.56,0,0,1-3.069-3A1.546,1.546,0,0,1,1,.205Z" transform="translate(28.321 21.885)" fill="#0c196b"/>
            <path id="Path_16341-2" data-name="Path 16341" d="M1,.205C1.537-.076,3.3-.491,4.2,2.22S4.952,5.983,3.145,5.08a5.56,5.56,0,0,1-3.069-3A1.546,1.546,0,0,1,1,.205Z" transform="translate(19.31 19.31)" fill="#0c196b"/>
            <path id="Path_16342-2" data-name="Path 16342" d="M1,.205C1.537-.076,3.3-.491,4.2,2.22S4.952,5.983,3.145,5.08a5.56,5.56,0,0,1-3.069-3A1.546,1.546,0,0,1,1,.205Z" transform="translate(10.621 18.023)" fill="#0c196b"/>
            <path id="Path_16343-2" data-name="Path 16343" d="M1,.205C1.537-.076,3.3-.491,4.2,2.22S4.952,5.983,3.145,5.08a5.56,5.56,0,0,1-3.069-3A1.546,1.546,0,0,1,1,.205Z" transform="translate(8.368 24.781)" fill="#0c196b"/>
            <path id="Path_16344-2" data-name="Path 16344" d="M1,.205C1.537-.076,3.3-.491,4.2,2.22S4.952,5.983,3.145,5.08a5.56,5.56,0,0,1-3.069-3A1.546,1.546,0,0,1,1,.205Z" transform="translate(15.448 27.356)" fill="#0c196b"/>
            <path id="Path_16345-2" data-name="Path 16345" d="M1,.205C1.537-.076,3.3-.491,4.2,2.22S4.952,5.983,3.145,5.08a5.56,5.56,0,0,1-3.069-3A1.546,1.546,0,0,1,1,.205Z" transform="translate(26.712 29.931)" fill="#0c196b"/>
            <path id="Path_16346-2" data-name="Path 16346" d="M1,.205C1.537-.076,3.3-.491,4.2,2.22S4.952,5.983,3.145,5.08a5.56,5.56,0,0,1-3.069-3A1.546,1.546,0,0,1,1,.205Z" transform="translate(35.724 24.459)" fill="#0c196b"/>
            <path id="Path_16347-2" data-name="Path 16347" d="M1,.205C1.537-.076,3.3-.491,4.2,2.22S4.952,5.983,3.145,5.08a5.56,5.56,0,0,1-3.069-3A1.546,1.546,0,0,1,1,.205Z" transform="translate(1.287 17.057)" fill="#0c196b"/>
            <path id="Path_16348-2" data-name="Path 16348" d="M1,.205C1.537-.076,3.3-.491,4.2,2.22S4.952,5.983,3.145,5.08a5.56,5.56,0,0,1-3.069-3A1.546,1.546,0,0,1,1,.205Z" transform="translate(5.471 8.69)" fill="#0c196b"/>
            <path id="Path_16349-2" data-name="Path 16349" d="M1,.205C1.537-.076,3.3-.491,4.2,2.22S4.952,5.983,3.145,5.08a5.56,5.56,0,0,1-3.069-3A1.546,1.546,0,0,1,1,.205Z" transform="translate(7.08)" fill="#0c196b"/>
            <path id="Path_16350-2" data-name="Path 16350" d="M1,.205C1.537-.076,3.3-.491,4.2,2.22S4.952,5.983,3.145,5.08a5.56,5.56,0,0,1-3.069-3A1.546,1.546,0,0,1,1,.205Z" transform="translate(15.126 1.287)" fill="#0c196b"/>
            <path id="Path_16351-2" data-name="Path 16351" d="M1,.205C1.537-.076,3.3-.491,4.2,2.22S4.952,5.983,3.145,5.08a5.56,5.56,0,0,1-3.069-3A1.546,1.546,0,0,1,1,.205Z" transform="translate(0 25.425)" fill="#0c196b"/>
          </g>
        </g>
      </g>
      <g id="male-telemarketer" transform="translate(939.19 206.651)">
        <path id="Path_16606" data-name="Path 16606" d="M111.219,43.773c2,4.421,6.293,6.346,8.422,6.346a9.545,9.545,0,0,0,5.738-2.66q-1.1.077-2.353.077c-.2,0-.4,0-.623-.005a2.441,2.441,0,0,1-1.487.508h-1.783a2.437,2.437,0,0,1,0-4.874h1.783a2.428,2.428,0,0,1,1.694.684l.438,0a19.785,19.785,0,0,0,4.811-.466,2.662,2.662,0,0,1-.2-1.014V36.194a2.657,2.657,0,0,1,.651-1.735,10.009,10.009,0,0,0-1.216-3.987c-1.229-1.989-3.6-2.915-7.455-2.915-3.2,0-5.41.664-6.756,2.031a7.953,7.953,0,0,0-1.93,4.854,2.653,2.653,0,0,1,.666,1.752v6.179A2.63,2.63,0,0,1,111.219,43.773Z" transform="translate(-101.997 -24.281)" fill="#0d2b91"/>
        <path id="Path_16607" data-name="Path 16607" d="M65.479,19.55h2.139a1.459,1.459,0,0,0,1.459-1.459V11.913a1.457,1.457,0,0,0-.726-1.26c.478-5.06,2.43-8.566,9.935-8.566,4.31,0,7,1.106,8.466,3.479a12.013,12.013,0,0,1,1.456,5.094,1.456,1.456,0,0,0-.713,1.252v6.179a1.458,1.458,0,0,0,1.136,1.422c-.943.617-2.9,1.247-6.937,1.247q-.491,0-1.024-.013a1.248,1.248,0,0,0-1.108-.674H77.778a1.248,1.248,0,0,0,0,2.5h1.783a1.245,1.245,0,0,0,1.011-.518c.375.01.743.015,1.1.015,4.556,0,7.453-.778,8.626-2.321q.075-.1.137-.2h.659a1.459,1.459,0,0,0,1.459-1.459V11.913a1.459,1.459,0,0,0-1.459-1.459h-.8a13.67,13.67,0,0,0-1.76-5.985C86.669,1.462,83.319,0,78.285,0S69.9,1.462,68.043,4.469a13.672,13.672,0,0,0-1.76,5.985h-.8a1.459,1.459,0,0,0-1.459,1.459v6.179A1.459,1.459,0,0,0,65.479,19.55Z" transform="translate(-60.642)" fill="#0d2b91"/>
        <path id="Path_16608" data-name="Path 16608" d="M70.88,221.256c-.485-3.016-1.483-6.9-3.486-8.28-1.365-.942-6.132-3.489-8.168-4.576l-.043-.023a.666.666,0,0,0-.725.063,8.655,8.655,0,0,1-3.475,1.678.666.666,0,0,0-.478.414l-1.261,3.324-1.261-3.324a.666.666,0,0,0-.478-.414,8.657,8.657,0,0,1-3.475-1.678.665.665,0,0,0-.725-.063c-2.013,1.075-6.841,3.676-8.2,4.595-2.306,1.554-3.313,7.173-3.492,8.284a.666.666,0,0,0,.03.328c.083.233,2.2,5.7,17.605,5.7s17.523-5.471,17.605-5.7A.666.666,0,0,0,70.88,221.256Zm-7.174-3.463H57.6v-1.285h6.1Z" transform="translate(-35.601 -183.536)" fill="#0d2b91"/>
      </g>
      <text id="_387_98" data-name="387*98" transform="translate(1096.5 112.5) rotate(90)" fill="#0c196b" font-size="70" font-family="SofiaPro-Bold, Sofia Pro" font-weight="700" opacity="0.87"><tspan x="0" y="0">387*98</tspan></text>
      <g id="Group_576" data-name="Group 576" transform="translate(618.5 24670.5) rotate(90)">
        <g id="Path_16568" data-name="Path 16568" transform="translate(-24543 -445)" fill="#3639a3">
          <path d="M 102.0830078125 203.6660003662109 C 95.19039916992188 203.6660003662109 88.30226898193359 202.9716339111328 81.60995483398438 201.6021881103516 C 75.08798217773438 200.2676086425781 68.67274475097656 198.2762145996094 62.54248046875 195.6833190917969 C 56.52337646484375 193.137451171875 50.71790313720703 189.9863433837891 45.28732299804688 186.3175354003906 C 39.90821838378906 182.6834869384766 34.84992980957031 178.510009765625 30.25298118591309 173.9130401611328 C 25.65600776672363 169.3160858154297 21.48253440856934 164.2577972412109 17.84848213195801 158.8786926269531 C 14.17966556549072 153.4481201171875 11.02856063842773 147.6426391601563 8.482691764831543 141.62353515625 C 5.889797210693359 135.4932708740234 3.898402452468872 129.0780334472656 2.563823699951172 122.5560607910156 C 1.194376230239868 115.8637466430664 0.5000078082084656 108.9756164550781 0.5000078082084656 102.0830078125 C 0.5000078082084656 95.19039916992188 1.194376230239868 88.30226898193359 2.563823699951172 81.60995483398438 C 3.898402452468872 75.08798217773438 5.889797210693359 68.67274475097656 8.482691764831543 62.54248046875 C 11.02856063842773 56.52337646484375 14.17966556549072 50.71790313720703 17.84848213195801 45.28732299804688 C 21.48253440856934 39.90821838378906 25.65600776672363 34.84992980957031 30.25298118591309 30.25298118591309 C 34.84992980957031 25.65600776672363 39.90821838378906 21.48253440856934 45.28732299804688 17.84848213195801 C 50.71790313720703 14.17966556549072 56.52337646484375 11.02856063842773 62.54248046875 8.482691764831543 C 68.67274475097656 5.889797210693359 75.08798217773438 3.898402452468872 81.60995483398438 2.563823699951172 C 88.30226898193359 1.194376230239868 95.19039916992188 0.5000078082084656 102.0830078125 0.5000078082084656 C 108.9756164550781 0.5000078082084656 115.8637466430664 1.194376230239868 122.5560607910156 2.563823699951172 C 129.0780334472656 3.898402452468872 135.4932708740234 5.889797210693359 141.62353515625 8.482691764831543 C 147.6426391601563 11.02856063842773 153.4481201171875 14.17966556549072 158.8786926269531 17.84848213195801 C 164.2577972412109 21.48253440856934 169.3160858154297 25.65600776672363 173.9130401611328 30.25298118591309 C 178.510009765625 34.84992980957031 182.6834869384766 39.90821838378906 186.3175354003906 45.28732299804688 C 189.9863433837891 50.71790313720703 193.137451171875 56.52337646484375 195.6833190917969 62.54248046875 C 198.2762145996094 68.67274475097656 200.2676086425781 75.08798217773438 201.6021881103516 81.60995483398438 C 202.9716339111328 88.30226898193359 203.6660003662109 95.19039916992188 203.6660003662109 102.0830078125 C 203.6660003662109 108.9756164550781 202.9716339111328 115.8637466430664 201.6021881103516 122.5560607910156 C 200.2676086425781 129.0780334472656 198.2762145996094 135.4932708740234 195.6833190917969 141.62353515625 C 193.137451171875 147.6426391601563 189.9863433837891 153.4481201171875 186.3175354003906 158.8786926269531 C 182.6834869384766 164.2577972412109 178.510009765625 169.3160858154297 173.9130401611328 173.9130401611328 C 169.3160858154297 178.510009765625 164.2577972412109 182.6834869384766 158.8786926269531 186.3175354003906 C 153.4481201171875 189.9863433837891 147.6426391601563 193.137451171875 141.62353515625 195.6833190917969 C 135.4932708740234 198.2762145996094 129.0780334472656 200.2676086425781 122.5560607910156 201.6021881103516 C 115.8637466430664 202.9716339111328 108.9756164550781 203.6660003662109 102.0830078125 203.6660003662109 Z" stroke="none"/>
          <path d="M 102.0830078125 1.000015258789063 C 95.22400665283203 1.000015258789063 88.36958312988281 1.690948486328125 81.71018981933594 3.053665161132813 C 75.22056579589844 4.381637573242188 68.83714294433594 6.3631591796875 62.73724365234375 8.943191528320313 C 56.74787902832031 11.47648620605469 50.97105407714844 14.612060546875 45.56724548339844 18.26280212402344 C 40.21450805664063 21.8790283203125 35.18098449707031 26.03205871582031 30.60653686523438 30.60653686523438 C 26.03205871582031 35.18098449707031 21.8790283203125 40.21450805664063 18.26280212402344 45.56724548339844 C 14.612060546875 50.97105407714844 11.47648620605469 56.74787902832031 8.943191528320313 62.73724365234375 C 6.3631591796875 68.83714294433594 4.381637573242188 75.22056579589844 3.053665161132813 81.71018981933594 C 1.690948486328125 88.36958312988281 1.000015258789063 95.22400665283203 1.000015258789063 102.0830078125 C 1.000015258789063 108.942008972168 1.690948486328125 115.7964324951172 3.053665161132813 122.4558258056641 C 4.381637573242188 128.9454650878906 6.3631591796875 135.3288726806641 8.943191528320313 141.4287719726563 C 11.47648620605469 147.4181365966797 14.612060546875 153.1949462890625 18.26280212402344 158.5987701416016 C 21.8790283203125 163.9515075683594 26.03205871582031 168.9850311279297 30.60653686523438 173.5594787597656 C 35.18098449707031 178.1339569091797 40.21450805664063 182.2869873046875 45.56724548339844 185.9032135009766 C 50.97105407714844 189.553955078125 56.74787902832031 192.6895294189453 62.73724365234375 195.2228240966797 C 68.83714294433594 197.8028564453125 75.22056579589844 199.7843780517578 81.71018981933594 201.1123504638672 C 88.36958312988281 202.4750671386719 95.22400665283203 203.1660003662109 102.0830078125 203.1660003662109 C 108.942008972168 203.1660003662109 115.7964324951172 202.4750671386719 122.4558258056641 201.1123504638672 C 128.9454650878906 199.7843780517578 135.3288726806641 197.8028564453125 141.4287719726563 195.2228240966797 C 147.4181365966797 192.6895294189453 153.1949462890625 189.553955078125 158.5987701416016 185.9032135009766 C 163.9515075683594 182.2869873046875 168.9850311279297 178.1339569091797 173.5594787597656 173.5594787597656 C 178.1339569091797 168.9850311279297 182.2869873046875 163.9515075683594 185.9032135009766 158.5987701416016 C 189.553955078125 153.1949462890625 192.6895294189453 147.4181365966797 195.2228240966797 141.4287719726563 C 197.8028564453125 135.3288726806641 199.7843780517578 128.9454650878906 201.1123504638672 122.4558258056641 C 202.4750671386719 115.7964324951172 203.1660003662109 108.942008972168 203.1660003662109 102.0830078125 C 203.1660003662109 95.22400665283203 202.4750671386719 88.36958312988281 201.1123504638672 81.71018981933594 C 199.7843780517578 75.22056579589844 197.8028564453125 68.83714294433594 195.2228240966797 62.73724365234375 C 192.6895294189453 56.74787902832031 189.553955078125 50.97105407714844 185.9032135009766 45.56724548339844 C 182.2869873046875 40.21450805664063 178.1339569091797 35.18098449707031 173.5594787597656 30.60653686523438 C 168.9850311279297 26.03205871582031 163.9515075683594 21.8790283203125 158.5987701416016 18.26280212402344 C 153.1949462890625 14.612060546875 147.4181365966797 11.47648620605469 141.4287719726563 8.943191528320313 C 135.3288726806641 6.3631591796875 128.9454650878906 4.381637573242188 122.4558258056641 3.053665161132813 C 115.7964324951172 1.690948486328125 108.942008972168 1.000015258789063 102.0830078125 1.000015258789063 M 102.0830078125 1.52587890625e-05 C 158.4618988037109 1.52587890625e-05 204.1660003662109 45.70411682128906 204.1660003662109 102.0830078125 C 204.1660003662109 158.4618988037109 158.4618988037109 204.1660003662109 102.0830078125 204.1660003662109 C 45.70411682128906 204.1660003662109 1.52587890625e-05 158.4618988037109 1.52587890625e-05 102.0830078125 C 1.52587890625e-05 45.70411682128906 45.70411682128906 1.52587890625e-05 102.0830078125 1.52587890625e-05 Z" stroke="none" fill="#21236e"/>
        </g>
        <path id="Path_16567" data-name="Path 16567" d="M-100.168-53.655v9.784a11.485,11.485,0,0,0-6.112-1.708c-7.548,0-12.924,5.461-12.924,13.105s5.376,13.131,12.924,13.131A11.377,11.377,0,0,0-98.861-22l.8,1.827h6.27v-33.48Zm-4.979,26.811a5.424,5.424,0,0,1-5.506-5.629,5.424,5.424,0,0,1,5.506-5.629,5.424,5.424,0,0,1,5.506,5.629A5.424,5.424,0,0,1-105.147-26.844Zm18.669,6.669h8.473v-24.6h-8.473Zm33.513-24.6-1.075,2.064A11.861,11.861,0,0,0-61.8-45.559,12.058,12.058,0,0,0-74.09-33.188,11.991,11.991,0,0,0-61.8-20.825a11.916,11.916,0,0,0,6.419-1.847v.734c0,2.925-2.282,4.729-5.121,4.729-2.058,0-4.157-.886-4.744-2.53H-73.42c1.132,5.829,6.018,9.349,13,9.349,8.125,0,13.185-4.788,13.185-12.518V-44.772ZM-60.391-27.8a5.125,5.125,0,0,1-5.251-5.388,5.133,5.133,0,0,1,5.251-5.361,5.113,5.113,0,0,1,5.232,5.361A5.124,5.124,0,0,1-60.391-27.8Zm18.508,7.625h8.473v-24.6h-8.473Zm38.79,0-8.442-12.874,7.666-11.724h-9.513l-5.86,9.636V-53.655h-8.473v33.48h8.473v-10.4l6.161,10.4Zm2.206,0H7.586v-24.6H-.887ZM26.252-27.6A2.609,2.609,0,0,1,23.4-30.42v-7.828h5.966v-6.525H23.187v-7.192H21.447L10.426-40.228v1.981h4.5v9.282c0,5.466,3.306,8.791,8.746,8.791H29.5V-27.6Z" transform="translate(-24396.006 -309.679)" fill="#fff"/>
        <g id="Mask_Group_23" data-name="Mask Group 23" transform="translate(-24543 -445)" clip-path="url(#clip-path-3)">
          <path id="Path_16569" data-name="Path 16569" d="M73.069.775A44.688,44.688,0,0,1,84.395,2.981c2.529.748,4.977,1.769,7.49,2.577,3.443,1.107,6.927,2.092,10.373,3.193,3.95,1.262,7.929,2.456,11.8,3.939a35.82,35.82,0,0,0,10.6,1.895,91.765,91.765,0,0,1,15.794,2.85c2.924.727,5.81,1.632,8.674,2.574a25.867,25.867,0,0,1,10.716,6.907A43.9,43.9,0,0,0,164,30.745c2.5,2.021,4.253,4.644,6.076,7.221.215.3.381.7.675.876,2.705,1.632,4.2,4.27,5.668,6.89,1.141,2.035,2.126,4.163,3.08,6.295a8.193,8.193,0,0,1,.744,2.829c.187,3.451.7,6.878.386,10.367A66.652,66.652,0,0,0,180.5,73.6c.3,8.119-.785,16.107-1.981,24.1-.847,5.664-1.348,11.38-2.2,17.043a47.07,47.07,0,0,1-2.114,9.015,23.255,23.255,0,0,1-3.742,6.427,30.673,30.673,0,0,1-13.582,9.834c-2.41.881-4.777,1.924-7.245,2.6-3.342.911-6.743,1.636-10.151,2.262-5.2.953-10.41,1.8-15.632,2.6a41.669,41.669,0,0,1-16.631-.354c-3-.747-6.1-1.066-9.119-1.718a163.126,163.126,0,0,1-25.17-7.391,24.189,24.189,0,0,1-7.242-4.121c-1.981-1.723-4.419-2.931-6.348-4.7-3.718-3.413-7.3-6.988-10.787-10.637-3.073-3.213-5.919-6.641-8.921-9.923-.963-1.053-2.151-1.9-3.154-2.916-3.015-3.063-5.964-6.191-8.989-9.244-1.433-1.446-3.009-2.749-4.462-4.177-1.4-1.372-2.705-2.831-4.071-4.235-2.422-2.488-4.745-5.087-7.314-7.413A45.8,45.8,0,0,1,3,69.668,14.485,14.485,0,0,1,.936,60.787a19.361,19.361,0,0,1,1.085-5.74,15.376,15.376,0,0,1,4.271-5.761c2.907-2.516,5.875-4.969,8.918-7.319C18.79,39.2,22.453,36.538,26.129,33.9c2.634-1.892,5.456-3.535,8-5.536A163.24,163.24,0,0,0,48.169,16.6c3.54-3.492,7.207-6.873,11-10.085a23,23,0,0,1,9.641-5.273A36.494,36.494,0,0,1,73.069.775ZM11.007,55.28c-2.314-.961-3.252-.683-4.115,1.37l2.366.862.225-1.438,1.525-.795c.768-.629,1.724-1.112,1.9-2.313C11.309,53.187,11.309,53.187,11.007,55.28ZM63.632,8.81c-.641,1.127-1.074,1.916-.6,2.945C64.376,10.772,64.391,10.715,63.632,8.81ZM19.792,46.674c-.47,1.127-.792,1.9-1.174,2.816C20.646,48.861,20.646,48.861,19.792,46.674Zm49.739,40.7c-.4-.262-.742-.574-.821-.518a4.894,4.894,0,0,0-.772.836c.23.13.494.4.679.358C68.9,87.98,69.127,87.689,69.531,87.373Zm4.489.412c-.293.353-.608.568-.588.743a2.634,2.634,0,0,0,.442.848c.246-.2.66-.371.691-.6C74.6,88.527,74.282,88.23,74.02,87.785Zm-.308,23.424c.011.194.023.388.034.582l1.352-.2c-.015-.127-.032-.254-.046-.381ZM59.53,16.687l.151-.421-1.336-.514c-.053.154-.107.308-.162.462ZM62.788,86.06c-.1.254-.261.45-.222.594.042.16.264.272.408.4a2.049,2.049,0,0,0,.316-.618C63.3,86.355,63.013,86.224,62.788,86.06ZM67,87.213a4.25,4.25,0,0,0-.959-.225c-.083,0-.161.3-.24.458a1.57,1.57,0,0,0,.566.2C66.518,87.644,66.66,87.46,67,87.213Zm4.976,1.655-.247-.3a2.254,2.254,0,0,0-.241.451c-.011.03.2.129.309.2C71.857,89.1,71.917,88.985,71.977,88.868ZM61.921,13.2l-.312-.26c-.052.121-.167.258-.141.358s.189.174.292.259C61.814,13.442,61.868,13.323,61.921,13.2Z" transform="translate(62.936 129.381)" fill="#292b87"/>
          <g id="Group_551" data-name="Group 551" transform="matrix(-0.966, -0.259, 0.259, -0.966, 193.111, 199.577)">
            <path id="Path_16337-3" data-name="Path 16337" d="M1.665.343c.909-.471,3.86-1.165,5.373,3.376s1.256,6.3-1.772,4.789S.638,5.149.127,3.484A2.59,2.59,0,0,1,1.665.343Z" transform="translate(24.256 16.709)" fill="#ffb0a3"/>
            <path id="Path_16338-3" data-name="Path 16338" d="M1.665.343c.909-.471,3.86-1.165,5.373,3.376s1.256,6.3-1.772,4.789S.638,5.149.127,3.484A2.59,2.59,0,0,1,1.665.343Z" transform="translate(44.068 21.025) rotate(90)" fill="#ffb0a3"/>
            <path id="Path_16339-3" data-name="Path 16339" d="M1.665.343c.909-.471,3.86-1.165,5.373,3.376s1.256,6.3-1.772,4.789S.638,5.149.127,3.484A2.59,2.59,0,0,1,1.665.343Z" transform="matrix(-0.259, -0.966, 0.966, -0.259, 51.302, 32.702)" fill="#ffb0a3"/>
            <path id="Path_16345-3" data-name="Path 16345" d="M1.665.343c.909-.471,3.86-1.165,5.373,3.376s1.256,6.3-1.772,4.789S.638,5.149.127,3.484A2.59,2.59,0,0,1,1.665.343Z" transform="translate(59.351 35.644)" fill="#ffb0a3"/>
            <path id="Path_16346-3" data-name="Path 16346" d="M1.665.343c.909-.471,3.86-1.165,5.373,3.376s1.256,6.3-1.772,4.789S.638,5.149.127,3.484A2.59,2.59,0,0,1,1.665.343Z" transform="translate(43.135 36.998) rotate(-30)" fill="#ffb0a3"/>
            <path id="Path_16347-3" data-name="Path 16347" d="M1.665.343c.909-.471,3.86-1.165,5.373,3.376s1.256,6.3-1.772,4.789S.638,5.149.127,3.484A2.59,2.59,0,0,1,1.665.343Z" transform="translate(2.157 28.568)" fill="#ffb0a3"/>
            <path id="Path_16348-3" data-name="Path 16348" d="M1.665.343c.909-.471,3.86-1.165,5.373,3.376s1.256,6.3-1.772,4.789S.638,5.149.127,3.484A2.59,2.59,0,0,1,1.665.343Z" transform="translate(9.163 14.553)" fill="#ffb0a3"/>
            <path id="Path_16349-3" data-name="Path 16349" d="M1.665.343c.909-.471,3.86-1.165,5.373,3.376s1.256,6.3-1.772,4.789S.638,5.149.127,3.484A2.59,2.59,0,0,1,1.665.343Z" transform="translate(11.858)" fill="#ffb0a3"/>
            <path id="Path_16350-3" data-name="Path 16350" d="M1.665.343c.909-.471,3.86-1.165,5.373,3.376s1.256,6.3-1.772,4.789S.638,5.149.127,3.484A2.59,2.59,0,0,1,1.665.343Z" transform="translate(28.458 3.961)" fill="#ffb0a3"/>
            <path id="Path_16351-3" data-name="Path 16351" d="M1.665.343c.909-.471,3.86-1.165,5.373,3.376s1.256,6.3-1.772,4.789S.638,5.149.127,3.484A2.59,2.59,0,0,1,1.665.343Z" transform="translate(0 42.582)" fill="#ffb0a3"/>
          </g>
          <path id="Path_16570" data-name="Path 16570" d="M72.2,147.366a44.687,44.687,0,0,0,11.325-2.206c2.529-.748,4.977-1.769,7.49-2.577,3.443-1.107,6.927-2.092,10.373-3.193,3.95-1.262,7.929-2.456,11.8-3.939a35.819,35.819,0,0,1,10.6-1.895,91.762,91.762,0,0,0,15.794-2.85c2.924-.727,5.81-1.632,8.674-2.574a25.867,25.867,0,0,0,10.716-6.907,43.9,43.9,0,0,1,4.161-3.83c2.5-2.021,4.253-4.644,6.076-7.221.215-.3.381-.7.675-.876,2.705-1.632,4.2-4.27,5.668-6.89,1.141-2.035,2.126-4.163,3.08-6.295a8.193,8.193,0,0,0,.744-2.829c.187-3.451.7-6.878.386-10.367a66.649,66.649,0,0,1-.129-8.374c.3-8.119-.785-16.107-1.981-24.1-.847-5.664-1.348-11.38-2.2-17.043a47.07,47.07,0,0,0-2.114-9.015,23.256,23.256,0,0,0-3.742-6.427,30.672,30.672,0,0,0-13.582-9.834c-2.41-.881-4.776-1.924-7.245-2.6-3.342-.911-6.742-1.636-10.151-2.262-5.2-.953-10.41-1.8-15.631-2.6a41.668,41.668,0,0,0-16.631.354c-3,.747-6.1,1.066-9.119,1.718a163.122,163.122,0,0,0-25.17,7.391,24.189,24.189,0,0,0-7.241,4.121c-1.981,1.723-4.419,2.931-6.348,4.7-3.718,3.413-7.3,6.988-10.787,10.637-3.073,3.213-5.919,6.641-8.921,9.923-.963,1.053-2.151,1.9-3.154,2.916-3.015,3.063-5.964,6.191-8.989,9.244-1.433,1.446-3.009,2.749-4.462,4.177-1.4,1.372-2.705,2.831-4.071,4.235-2.422,2.488-4.744,5.087-7.314,7.413A45.8,45.8,0,0,0,2.131,78.473,14.485,14.485,0,0,0,.068,87.354a19.361,19.361,0,0,0,1.085,5.74,15.377,15.377,0,0,0,4.271,5.761c2.907,2.516,5.875,4.969,8.918,7.319,3.581,2.766,7.244,5.429,10.919,8.071,2.634,1.892,5.456,3.535,8,5.536A163.24,163.24,0,0,1,47.3,131.537c3.54,3.492,7.207,6.873,11,10.085a23,23,0,0,0,9.641,5.273A36.492,36.492,0,0,0,72.2,147.366Zm-62.062-54.5c-2.314.961-3.252.683-4.115-1.37l2.366-.862.225,1.438,1.525.795c.768.629,1.724,1.112,1.9,2.313C10.441,94.954,10.441,94.954,10.138,92.861Zm52.624,46.47c-.641-1.127-1.074-1.916-.6-2.945C63.507,137.37,63.522,137.426,62.763,139.332ZM18.924,101.468c-.47-1.127-.792-1.9-1.174-2.816C19.777,99.28,19.777,99.28,18.924,101.468Zm49.738-40.7c-.4.262-.742.574-.821.518a4.894,4.894,0,0,1-.772-.836c.23-.13.494-.4.679-.358C68.03,60.162,68.258,60.452,68.662,60.768Zm4.489-.412c-.293-.353-.608-.568-.588-.743a2.634,2.634,0,0,1,.442-.848c.246.2.66.371.691.6C73.73,59.615,73.412,59.912,73.151,60.356Zm-.308-23.424c.011-.194.023-.388.034-.582l1.352.2c-.015.127-.032.254-.046.381ZM58.661,131.454l.151.421-1.336.514c-.053-.154-.107-.308-.162-.462Zm3.258-69.373c-.1-.254-.261-.45-.222-.594.042-.16.264-.272.408-.4a2.049,2.049,0,0,1,.316.618C62.434,61.786,62.144,61.918,61.919,62.081Zm4.212-1.153a4.25,4.25,0,0,1-.959.225c-.083,0-.161-.3-.24-.458a1.57,1.57,0,0,1,.566-.2C65.649,60.5,65.791,60.681,66.132,60.928Zm4.976-1.655-.247.3a2.254,2.254,0,0,1-.241-.451c-.011-.03.2-.129.309-.2C70.988,59.042,71.048,59.157,71.108,59.273ZM61.052,134.938l-.312.26c-.052-.121-.167-.258-.141-.358s.189-.174.292-.259C60.945,134.7,61,134.818,61.052,134.938Z" transform="translate(-78.037 -73.426)" fill="#292b87"/>
          <path id="Path_16573" data-name="Path 16573" d="M72.2,147.366a44.687,44.687,0,0,0,11.325-2.206c2.529-.748,4.977-1.769,7.49-2.577,3.443-1.107,6.927-2.092,10.373-3.193,3.95-1.262,7.929-2.456,11.8-3.939a35.819,35.819,0,0,1,10.6-1.895,91.762,91.762,0,0,0,15.794-2.85c2.924-.727,5.81-1.632,8.674-2.574a25.867,25.867,0,0,0,10.716-6.907,43.9,43.9,0,0,1,4.161-3.83c2.5-2.021,4.253-4.644,6.076-7.221.215-.3.381-.7.675-.876,2.705-1.632,4.2-4.27,5.668-6.89,1.141-2.035,2.126-4.163,3.08-6.295a8.193,8.193,0,0,0,.744-2.829c.187-3.451.7-6.878.386-10.367a66.649,66.649,0,0,1-.129-8.374c.3-8.119-.785-16.107-1.981-24.1-.847-5.664-1.348-11.38-2.2-17.043a47.07,47.07,0,0,0-2.114-9.015,23.256,23.256,0,0,0-3.742-6.427,30.672,30.672,0,0,0-13.582-9.834c-2.41-.881-4.776-1.924-7.245-2.6-3.342-.911-6.742-1.636-10.151-2.262-5.2-.953-10.41-1.8-15.631-2.6a41.668,41.668,0,0,0-16.631.354c-3,.747-6.1,1.066-9.119,1.718a163.122,163.122,0,0,0-25.17,7.391,24.189,24.189,0,0,0-7.241,4.121c-1.981,1.723-4.419,2.931-6.348,4.7-3.718,3.413-7.3,6.988-10.787,10.637-3.073,3.213-5.919,6.641-8.921,9.923-.963,1.053-2.151,1.9-3.154,2.916-3.015,3.063-5.964,6.191-8.989,9.244-1.433,1.446-3.009,2.749-4.462,4.177-1.4,1.372-2.705,2.831-4.071,4.235-2.422,2.488-4.744,5.087-7.314,7.413A45.8,45.8,0,0,0,2.131,78.473,14.485,14.485,0,0,0,.068,87.354a19.361,19.361,0,0,0,1.085,5.74,15.377,15.377,0,0,0,4.271,5.761c2.907,2.516,5.875,4.969,8.918,7.319,3.581,2.766,7.244,5.429,10.919,8.071,2.634,1.892,5.456,3.535,8,5.536A163.24,163.24,0,0,1,47.3,131.537c3.54,3.492,7.207,6.873,11,10.085a23,23,0,0,0,9.641,5.273A36.492,36.492,0,0,0,72.2,147.366Zm-62.062-54.5c-2.314.961-3.252.683-4.115-1.37l2.366-.862.225,1.438,1.525.795c.768.629,1.724,1.112,1.9,2.313C10.441,94.954,10.441,94.954,10.138,92.861Zm52.624,46.47c-.641-1.127-1.074-1.916-.6-2.945C63.507,137.37,63.522,137.426,62.763,139.332ZM18.924,101.468c-.47-1.127-.792-1.9-1.174-2.816C19.777,99.28,19.777,99.28,18.924,101.468Zm49.738-40.7c-.4.262-.742.574-.821.518a4.894,4.894,0,0,1-.772-.836c.23-.13.494-.4.679-.358C68.03,60.162,68.258,60.452,68.662,60.768Zm4.489-.412c-.293-.353-.608-.568-.588-.743a2.634,2.634,0,0,1,.442-.848c.246.2.66.371.691.6C73.73,59.615,73.412,59.912,73.151,60.356Zm-.308-23.424c.011-.194.023-.388.034-.582l1.352.2c-.015.127-.032.254-.046.381ZM58.661,131.454l.151.421-1.336.514c-.053-.154-.107-.308-.162-.462Zm3.258-69.373c-.1-.254-.261-.45-.222-.594.042-.16.264-.272.408-.4a2.049,2.049,0,0,1,.316.618C62.434,61.786,62.144,61.918,61.919,62.081Zm4.212-1.153a4.25,4.25,0,0,1-.959.225c-.083,0-.161-.3-.24-.458a1.57,1.57,0,0,1,.566-.2C65.649,60.5,65.791,60.681,66.132,60.928Zm4.976-1.655-.247.3a2.254,2.254,0,0,1-.241-.451c-.011-.03.2-.129.309-.2C70.988,59.042,71.048,59.157,71.108,59.273ZM61.052,134.938l-.312.26c-.052-.121-.167-.258-.141-.358s.189-.174.292-.259C60.945,134.7,61,134.818,61.052,134.938Z" transform="translate(-148.037 125.574)" fill="#292b87"/>
          <path id="Path_16571" data-name="Path 16571" d="M775.04,430.357c11.991-10.2,29.58-14.992,40.48-12.858,11.045,3.292,21.347,12.164,23.935,23.278,1.235,10.751-10.02,32.238-33.59,31.764-12.392-.933-22.574-14.15-30.769-24.49C769.386,440.461,769.907,435.308,775.04,430.357Z" transform="translate(-687.928 -240.031)" fill="#ffb0a3"/>
        </g>
      </g>
    </g>
  </g>
</svg>
