<svg xmlns="http://www.w3.org/2000/svg" xmlns:xlink="http://www.w3.org/1999/xlink" width="458" height="227" viewBox="0 0 458 227">
  <defs>
    <clipPath id="clip-path">
      <rect id="Rectangle_733" data-name="Rectangle 733" width="458" height="227" rx="10" transform="translate(731 4697)" fill="#3639a3"/>
    </clipPath>
  </defs>
  <g id="box-particle-2" transform="translate(-731 -4697)" clip-path="url(#clip-path)">
    <g id="Group_490" data-name="Group 490" transform="matrix(-0.966, -0.259, 0.259, -0.966, 960.9, 9727.641)">
      <path id="Path_16322" data-name="Path 16322" d="M6412.371,4860.282c1.684-.875,7.159-2.162,9.967,6.262s2.327,11.692-3.289,8.884-8.585-6.23-9.536-9.318S6410.687,4861.156,6412.371,4860.282Z" transform="translate(-5299)" fill="#ffb0a3"/>
      <path id="Path_16323" data-name="Path 16323" d="M6412.371,4860.282c1.684-.875,7.159-2.162,9.967,6.262s2.327,11.692-3.289,8.884-8.585-6.23-9.536-9.318S6410.687,4861.156,6412.371,4860.282Z" transform="translate(-5278 7)" fill="#ffb0a3"/>
      <path id="Path_16324" data-name="Path 16324" d="M6412.371,4860.282c1.684-.875,7.159-2.162,9.967,6.262s2.327,11.692-3.289,8.884-8.585-6.23-9.536-9.318S6410.687,4861.156,6412.371,4860.282Z" transform="translate(-5250 12)" fill="#ffb0a3"/>
      <path id="Path_16325" data-name="Path 16325" d="M6412.371,4860.282c1.684-.875,7.159-2.162,9.967,6.262s2.327,11.692-3.289,8.884-8.585-6.23-9.536-9.318S6410.687,4861.156,6412.371,4860.282Z" transform="translate(-5256 37)" fill="#ffb0a3"/>
      <path id="Path_16326" data-name="Path 16326" d="M6412.371,4860.282c1.684-.875,7.159-2.162,9.967,6.262s2.327,11.692-3.289,8.884-8.585-6.23-9.536-9.318S6410.687,4861.156,6412.371,4860.282Z" transform="translate(-5284 29)" fill="#ffb0a3"/>
      <path id="Path_16327" data-name="Path 16327" d="M6412.371,4860.282c1.684-.875,7.159-2.162,9.967,6.262s2.327,11.692-3.289,8.884-8.585-6.23-9.536-9.318S6410.687,4861.156,6412.371,4860.282Z" transform="translate(-5311 25)" fill="#ffb0a3"/>
      <path id="Path_16328" data-name="Path 16328" d="M6412.371,4860.282c1.684-.875,7.159-2.162,9.967,6.262s2.327,11.692-3.289,8.884-8.585-6.23-9.536-9.318S6410.687,4861.156,6412.371,4860.282Z" transform="translate(-5318 46)" fill="#ffb0a3"/>
      <path id="Path_16329" data-name="Path 16329" d="M6412.371,4860.282c1.684-.875,7.159-2.162,9.967,6.262s2.327,11.692-3.289,8.884-8.585-6.23-9.536-9.318S6410.687,4861.156,6412.371,4860.282Z" transform="translate(-5296 54)" fill="#ffb0a3"/>
      <path id="Path_16330" data-name="Path 16330" d="M6412.371,4860.282c1.684-.875,7.159-2.162,9.967,6.262s2.327,11.692-3.289,8.884-8.585-6.23-9.536-9.318S6410.687,4861.156,6412.371,4860.282Z" transform="translate(-5261 62)" fill="#ffb0a3"/>
      <path id="Path_16331" data-name="Path 16331" d="M6412.371,4860.282c1.684-.875,7.159-2.162,9.967,6.262s2.327,11.692-3.289,8.884-8.585-6.23-9.536-9.318S6410.687,4861.156,6412.371,4860.282Z" transform="translate(-5233 45)" fill="#ffb0a3"/>
      <path id="Path_16332" data-name="Path 16332" d="M6412.371,4860.282c1.684-.875,7.159-2.162,9.967,6.262s2.327,11.692-3.289,8.884-8.585-6.23-9.536-9.318S6410.687,4861.156,6412.371,4860.282Z" transform="translate(-5340 22)" fill="#ffb0a3"/>
      <path id="Path_16333" data-name="Path 16333" d="M6412.371,4860.282c1.684-.875,7.159-2.162,9.967,6.262s2.327,11.692-3.289,8.884-8.585-6.23-9.536-9.318S6410.687,4861.156,6412.371,4860.282Z" transform="translate(-5327 -4)" fill="#ffb0a3"/>
      <path id="Path_16334" data-name="Path 16334" d="M6412.371,4860.282c1.684-.875,7.159-2.162,9.967,6.262s2.327,11.692-3.289,8.884-8.585-6.23-9.536-9.318S6410.687,4861.156,6412.371,4860.282Z" transform="translate(-5322 -31)" fill="#ffb0a3"/>
      <path id="Path_16335" data-name="Path 16335" d="M6412.371,4860.282c1.684-.875,7.159-2.162,9.967,6.262s2.327,11.692-3.289,8.884-8.585-6.23-9.536-9.318S6410.687,4861.156,6412.371,4860.282Z" transform="translate(-5297 -27)" fill="#ffb0a3"/>
      <path id="Path_16336" data-name="Path 16336" d="M6412.371,4860.282c1.684-.875,7.159-2.162,9.967,6.262s2.327,11.692-3.289,8.884-8.585-6.23-9.536-9.318S6410.687,4861.156,6412.371,4860.282Z" transform="translate(-5344 48)" fill="#ffb0a3"/>
    </g>
  </g>
</svg>
