<svg xmlns="http://www.w3.org/2000/svg" width="325.815" height="323.401" viewBox="0 0 325.815 323.401">
  <g id="footer-shape" transform="matrix(-0.966, -0.259, 0.259, -0.966, 41.243, 5277.886)">
    <path id="Path_16337" data-name="Path 16337" d="M6417.24,4861.286c4.335-2.251,18.429-5.565,25.66,16.119s5.991,30.1-8.466,22.87-22.1-16.036-24.549-23.987S6412.908,4863.537,6417.24,4861.286Z" transform="translate(-5228.16 48.801)" fill="#292b87"/>
    <path id="Path_16338" data-name="Path 16338" d="M6417.24,4861.286c4.335-2.251,18.429-5.565,25.66,16.119s5.991,30.1-8.466,22.87-22.1-16.036-24.549-23.987S6412.908,4863.537,6417.24,4861.286Z" transform="translate(-5174.102 66.82)" fill="#292b87"/>
    <path id="Path_16339" data-name="Path 16339" d="M6417.24,4861.286c4.335-2.251,18.429-5.565,25.66,16.119s5.991,30.1-8.466,22.87-22.1-16.036-24.549-23.987S6412.908,4863.537,6417.24,4861.286Z" transform="translate(-5102.023 79.692)" fill="#292b87"/>
    <path id="Path_16340" data-name="Path 16340" d="M6417.24,4861.286c4.335-2.251,18.429-5.565,25.66,16.119s5.991,30.1-8.466,22.87-22.1-16.036-24.549-23.987S6412.908,4863.537,6417.24,4861.286Z" transform="translate(-5117.469 144.047)" fill="#292b87"/>
    <path id="Path_16341" data-name="Path 16341" d="M6417.24,4861.286c4.335-2.251,18.429-5.565,25.66,16.119s5.991,30.1-8.466,22.87-22.1-16.036-24.549-23.987S6412.908,4863.537,6417.24,4861.286Z" transform="translate(-5189.547 123.454)" fill="#292b87"/>
    <path id="Path_16342" data-name="Path 16342" d="M6417.24,4861.286c4.335-2.251,18.429-5.565,25.66,16.119s5.991,30.1-8.466,22.87-22.1-16.036-24.549-23.987S6412.908,4863.537,6417.24,4861.286Z" transform="translate(-5259.051 113.157)" fill="#292b87"/>
    <path id="Path_16343" data-name="Path 16343" d="M6417.24,4861.286c4.335-2.251,18.429-5.565,25.66,16.119s5.991,30.1-8.466,22.87-22.1-16.036-24.549-23.987S6412.908,4863.537,6417.24,4861.286Z" transform="translate(-5277.071 167.215)" fill="#292b87"/>
    <path id="Path_16344" data-name="Path 16344" d="M6417.24,4861.286c4.335-2.251,18.429-5.565,25.66,16.119s5.991,30.1-8.466,22.87-22.1-16.036-24.549-23.987S6412.908,4863.537,6417.24,4861.286Z" transform="translate(-5220.438 187.809)" fill="#292b87"/>
    <path id="Path_16345" data-name="Path 16345" d="M6417.24,4861.286c4.335-2.251,18.429-5.565,25.66,16.119s5.991,30.1-8.466,22.87-22.1-16.036-24.549-23.987S6412.908,4863.537,6417.24,4861.286Z" transform="translate(-5130.341 208.403)" fill="#292b87"/>
    <path id="Path_16346" data-name="Path 16346" d="M6417.24,4861.286c4.335-2.251,18.429-5.565,25.66,16.119s5.991,30.1-8.466,22.87-22.1-16.036-24.549-23.987S6412.908,4863.537,6417.24,4861.286Z" transform="translate(-5058.261 164.641)" fill="#292b87"/>
    <path id="Path_16347" data-name="Path 16347" d="M6417.24,4861.286c4.335-2.251,18.429-5.565,25.66,16.119s5.991,30.1-8.466,22.87-22.1-16.036-24.549-23.987S6412.908,4863.537,6417.24,4861.286Z" transform="translate(-5333.704 105.434)" fill="#292b87"/>
    <path id="Path_16348" data-name="Path 16348" d="M6417.24,4861.286c4.335-2.251,18.429-5.565,25.66,16.119s5.991,30.1-8.466,22.87-22.1-16.036-24.549-23.987S6412.908,4863.537,6417.24,4861.286Z" transform="translate(-5300.239 38.504)" fill="#292b87"/>
    <path id="Path_16349" data-name="Path 16349" d="M6417.24,4861.286c4.335-2.251,18.429-5.565,25.66,16.119s5.991,30.1-8.466,22.87-22.1-16.036-24.549-23.987S6412.908,4863.537,6417.24,4861.286Z" transform="translate(-5287.368 -31)" fill="#292b87"/>
    <path id="Path_16350" data-name="Path 16350" d="M6417.24,4861.286c4.335-2.251,18.429-5.565,25.66,16.119s5.991,30.1-8.466,22.87-22.1-16.036-24.549-23.987S6412.908,4863.537,6417.24,4861.286Z" transform="translate(-5223.011 -20.704)" fill="#292b87"/>
    <path id="Path_16351" data-name="Path 16351" d="M6417.24,4861.286c4.335-2.251,18.429-5.565,25.66,16.119s5.991,30.1-8.466,22.87-22.1-16.036-24.549-23.987S6412.908,4863.537,6417.24,4861.286Z" transform="translate(-5344.001 172.364)" fill="#292b87"/>
  </g>
</svg>
