<svg xmlns="http://www.w3.org/2000/svg" xmlns:xlink="http://www.w3.org/1999/xlink" width="842.984" height="770.563" viewBox="0 0 842.984 770.563">
  <defs>
    <linearGradient id="linear-gradient" x1="0.5" x2="0.5" y2="1" gradientUnits="objectBoundingBox">
      <stop offset="0" stop-color="#450b7c"/>
      <stop offset="0.339" stop-color="#563cc9"/>
      <stop offset="1" stop-color="#49e9fb"/>
    </linearGradient>
    <linearGradient id="linear-gradient-2" x1="0.019" x2="0.937" y2="0.974" xlink:href="#linear-gradient"/>
  </defs>
  <g id="grad-illustration" transform="translate(-0.001 -0.001)">
    <path id="Path_16664" data-name="Path 16664" d="M965.457,522.184a298.783,298.783,0,0,0-20.94-262.906L467.171,325.372l457.451-95.336A297.756,297.756,0,0,0,688.241,113.659c-164.729,0-298.268,133.539-298.268,298.268a300.564,300.564,0,0,0,2.766,40.63Z" transform="translate(-178.508 -64.718)" fill="#f2f2f2"/>
    <path id="Path_16665" data-name="Path 16665" d="M409.909,519.317C453.021,630.98,561.372,710.2,688.24,710.2c119.048,0,221.791-69.753,269.628-170.611Z" transform="translate(-178.508 -64.718)" fill="#f2f2f2"/>
    <path id="Path_16666" data-name="Path 16666" d="M950.5,623.055c0,117.214-172.82,212.227-385.994,212.227-114.523,0-217.4-27.417-288.08-70.976-46.12-28.411-78.544-63.7-91.551-102.7a120.875,120.875,0,0,1-6.363-38.553c0-117.2,319.872-645.886,385.994-212.215S950.5,505.853,950.5,623.055Z" transform="translate(-178.508 -64.718)" fill="url(#linear-gradient)"/>
    <path id="Path_16667" data-name="Path 16667" d="M756.33,700.02c0,43.278-136.677,78.369-305.286,78.369-64.941,0-125.144-5.205-174.622-14.083-46.12-28.411-78.544-63.7-91.551-102.7,52.343-23.85,151.93-39.957,266.172-39.957C619.653,621.651,756.33,656.742,756.33,700.02Z" transform="translate(-178.508 -64.718)" opacity="0.1"/>
    <path id="Path_16668" data-name="Path 16668" d="M535.965,253.633c-24.194-40.881-72.061-42.786-72.061-42.786s-46.643-5.965-76.565,56.3c-27.889,58.034-66.38,114.066-6.2,127.651l10.871-33.834,6.732,36.354a235.475,235.475,0,0,0,25.75.44c64.451-2.081,125.831.609,123.855-22.519C545.724,344.491,559.245,292.969,535.965,253.633Z" transform="translate(-178.508 -64.718)" fill="#2f2e41"/>
    <path id="Path_16669" data-name="Path 16669" d="M377.707,611.647c-.9,4.462-1.561,9-3.086,13.286-1.514,4.257-3.851,8.194-5.236,12.5-4.413,13.71,1.7,29,11.474,39.579a64.586,64.586,0,0,0,31.489,18.7c8.814,2.217,17.978,2.536,27.061,2.844,25.151.853,50.95,1.616,74.782-6.467a129.927,129.927,0,0,0,21.726-9.87,16.267,16.267,0,0,0,5.638-4.439c1.818-2.588,2.05-5.944,2.034-9.106-.053-10.662-2.215-21.27-1.7-31.92.284-5.9,1.388-11.794.845-17.674-1.232-13.337-11.823-25.274-24.919-28.086-6.761-1.452-13.773-.661-20.656,0a526.662,526.662,0,0,1-53.758,2.4c-18.339-.117-36.565-2.917-54.812-3.209-5.4-.086-5.287,1.577-7.005,6.8a127.224,127.224,0,0,0-3.876,14.665Z" transform="translate(-178.508 -64.718)" fill="#2f2e41"/>
    <path id="Path_16670" data-name="Path 16670" d="M429.751,348.369c-.881,4.615-1.834,9.4-4.607,13.19-3.19,4.363-8.392,6.856-11.825,11.031-5.166,6.285-5.463,15.129-5.484,23.265-.02,7.495.133,15.489,4.312,21.71,2.713,4.038,6.84,6.868,10.874,9.587,15.674,10.563,32.612,21.315,51.509,21.664,7.83.144,16.226-1.878,21.378-7.776a32.1,32.1,0,0,0,5.176-9.234,122.625,122.625,0,0,0,8.68-37.33c.43-6.032.389-12.24-1.652-17.932-2.3-6.4-6.938-11.668-10.006-17.736a39.484,39.484,0,0,1-3.8-23.365,2.522,2.522,0,0,0-.133-1.693,2.466,2.466,0,0,0-2.033-.824l-37.471-2.7a81.54,81.54,0,0,1-10.4-1.19c-2.02-.411-7.355-3.28-9.281-2.517C431.418,327.933,430.482,344.542,429.751,348.369Z" transform="translate(-178.508 -64.718)" fill="#ffb0a3"/>
    <path id="Path_16671" data-name="Path 16671" d="M429.751,349.539c-.881,4.615-1.834,9.4-4.607,13.19-3.19,4.363-8.392,6.856-11.825,11.031-5.166,6.285-5.463,15.129-5.484,23.265-.02,7.495.133,15.489,4.312,21.71,2.713,4.038,6.84,6.868,10.874,9.587,15.674,10.563,32.612,21.315,51.509,21.664,7.83.144,16.226-1.878,21.378-7.776a32.1,32.1,0,0,0,5.176-9.234,122.624,122.624,0,0,0,8.68-37.33c.43-6.032.389-12.24-1.652-17.933-2.3-6.4-6.938-11.668-10.006-17.736a39.484,39.484,0,0,1-3.8-23.365,2.522,2.522,0,0,0-.133-1.693,2.467,2.467,0,0,0-2.033-.824l-37.471-2.7a81.54,81.54,0,0,1-10.4-1.19c-2.02-.411-7.355-3.28-9.281-2.517C431.418,329.1,430.482,345.712,429.751,349.539Z" transform="translate(-178.508 -61.718)" fill="#6d372e" opacity="0.1"/>
    <circle id="Ellipse_715" data-name="Ellipse 715" cx="54.975" cy="54.975" r="54.975" transform="translate(232.103 178.726)" fill="#ffb0a3"/>
    <path id="Path_16672" data-name="Path 16672" d="M437.462,421.549c2.865,2.995,5.9,5.96,9.656,7.716,3.735,1.746,7.942,2.181,12.063,2.3,9.91.279,20.653-1.537,27.546-8.661,8.886-9.184,8.594-24,15.559-34.71a7.733,7.733,0,0,1,2.245-2.455,7.276,7.276,0,0,1,3.818-.878c8.8-.082,16.46,5.623,23.376,11.061,3.1,2.436,6.273,4.959,8.228,8.382a28.406,28.406,0,0,1,2.775,8.5c3.432,16.754,4.543,33.883,5.646,50.949.609,9.426,1.219,18.862,1.174,28.307-.149,31.12-7.382,61.719-14.575,92-.927,3.9-2.2,8.262-5.743,10.131a14.16,14.16,0,0,1-5.011,1.223c-20.6,2.419-41.247,4.842-61.988,5.161q-12.141.187-24.272-.588a13.072,13.072,0,0,1-4.089-.713,11.529,11.529,0,0,1-4.458-3.785c-11.219-14.138-11.881-33.683-11.81-51.731q.263-66.19,4.73-132.273c.246-3.636.3-8.053-2.321-10.913C424.728,408.114,431.29,415.1,437.462,421.549Z" transform="translate(-178.508 -64.718)" fill="#d0cde1"/>
    <path id="Path_16673" data-name="Path 16673" d="M425.817,358.072c-1.857,3.361-15.546,11.707-18.189,14.493-14.766,15.564-41.715,14.98-55.22,31.65-4.751,5.865-7.22,13.235-9.035,20.561-2.568,10.362-3.939,21.663.363,31.434,4.139,9.4,12.852,15.9,18.767,24.3,6.5,9.221,9.416,20.417,12.214,31.343,2.066,8.067,4.15,16.335,3.345,24.623-.915,9.424-5.475,18.054-8.168,27.131s-3.158,19.89,3.068,27.024c4.574,5.241,11.748,7.319,18.605,8.488,8.753,1.492,17.648,1.917,26.519,2.309,7.839.346,16.48.414,22.506-4.612,4.755-3.965,6.822-10.4,7.089-16.585s-1.019-12.316-1.826-18.455c-.836-6.364-1.157-12.783-1.426-19.2q-1.808-43.159-.494-86.373c.183-5.995.4-12.063-.874-17.923-1.681-7.707-5.846-14.594-9.322-21.675-6.9-14.055-10.161-27.708-9.094-43.33C425.7,357.859,432.424,346.112,425.817,358.072Z" transform="translate(-178.508 -64.718)" fill="#575a89"/>
    <path id="Path_16674" data-name="Path 16674" d="M503.016,359.242c2.828,2.907,12.438,3.865,16.036,5.737,3.3,1.72,6.962,2.618,10.541,3.65a136.853,136.853,0,0,1,37.032,17,22.474,22.474,0,0,1,6.193,5.349c2.013,2.8,2.743,6.294,3.426,9.674,1.762,8.726,3.532,17.557,3.136,26.45-.42,9.44-3.264,18.583-6.085,27.6l-10.54,33.7c-7.868,25.153-15.785,50.553-18,76.815a180.685,180.685,0,0,0,1.622,43.628c.232,1.45.426,3.112-.532,4.226a4.161,4.161,0,0,1-2.581,1.188c-5.087.8-10.01-1.8-14.62-4.094a161.9,161.9,0,0,0-44.629-14.6,103.754,103.754,0,0,0,13.862-28.575,172.94,172.94,0,0,0,4.188-19.652l4.9-28.359c1.8-10.4,3.6-20.825,4.206-31.361a39.26,39.26,0,0,0-.683-11.814c-.939-3.744-2.806-7.175-4.478-10.654-8.081-16.809-11.872-35.991-8.693-54.368,1.391-8.043,4.1-16.1,2.968-24.18-1.084-7.772.043-13.812-1.952-21.5C490.149,333.509,497.7,353.774,503.016,359.242Z" transform="translate(-178.508 -64.718)" fill="#575a89"/>
    <path id="Path_16675" data-name="Path 16675" d="M352.269,430.792c-3.684,7.645-9.843,14.157-11.939,22.38a48.893,48.893,0,0,0-1.041,11.7c-.05,5.918-.082,11.956,1.735,17.589,1.17,3.626,3.073,6.97,4.445,10.526a38.165,38.165,0,0,1,2.5,15.594c-.37,7.364-2.872,14.512-3.067,21.882-.307,11.591,5.054,22.487,10.285,32.835a24.138,24.138,0,0,1,35.085-11.487c1.38-1.274,1.527-3.367,1.581-5.245q.58-20.17,1.119-40.342c.566-20.8,1.106-41.874-3.679-62.122-2.16-9.142-5.521-18.249-11.683-25.34-3.244-3.734-14.259-13.568-19.584-9.386-2.4,1.881-1.835,7-2.215,9.594a40.7,40.7,0,0,1-3.542,11.824Z" transform="translate(-178.508 -64.718)" fill="#575a89"/>
    <path id="Path_16676" data-name="Path 16676" d="M580.456,408.761c1.742,5.426,1.847,11.223,1.881,16.922q.106,17.437-.462,34.869c-.194,5.949-.461,11.981-2.265,17.654-1.19,3.741-3.026,7.249-4.254,10.978-3.682,11.174-1.67,23.293-1.355,35.054a39.829,39.829,0,0,1-.965,11.339c-1.943,7.291-7.165,13.182-10.81,19.789-3.462,6.274-5.55,13.307-9.685,19.16s-11.291,10.491-18.228,8.694c-5.256-1.361-8.991-6.014-11.574-10.789a52.921,52.921,0,0,1-5.472-34.328c2.594-14.274,10.978-26.937,14-41.127,4.152-19.485-2.159-39.592-1.971-59.514a28.769,28.769,0,0,1,1.254-9.225c1.586-4.551,4.993-8.184,8.14-11.834a149.412,149.412,0,0,0,10.94-14.357c2.253-3.36,5.313-12,9.307-12.72C567.857,387.721,578.244,401.872,580.456,408.761Z" transform="translate(-178.508 -64.718)" fill="#575a89"/>
    <path id="Path_16677" data-name="Path 16677" d="M305.995,602.981a54.261,54.261,0,0,0-15.094-1.6,37.673,37.673,0,0,0-34.976,44.411c1.05,5.725,3.408,11.123,5.981,16.344,4,8.124,8.8,16.229,16.215,21.435,4.335,3.045,9.352,4.944,14.31,6.812l39.031,14.7c5.742,2.163,11.485,4.326,17.283,6.332a338.058,338.058,0,0,0,90.273,17.946c9.372.558,18.886.713,28.029-1.42,2.17-.506,4.484-1.261,5.74-3.1a9.831,9.831,0,0,0,1.283-4.236l2.4-16.814c.338-2.367.664-4.859-.2-7.088-1.1-2.826-3.858-4.6-6.488-6.114-25.66-14.737-55.621-22.868-77.219-43.1-5.085-4.762-9.34-12.31-15.517-15.544-7.005-3.668-15.256-5.761-22.5-9.142C338.716,615.416,323.152,606.925,305.995,602.981Z" transform="translate(-178.508 -64.718)" fill="#2f2e41"/>
    <path id="Path_16678" data-name="Path 16678" d="M344.962,625.649c13.8,4.323,72.041,34.272,82.025,44.728-1.338.482-46.742-24.963-48.1-25.372-12.384-3.717-24.837-7.458-36.6-12.9-2.366-1.094-15.37-6.237-14.781-9.222C328.168,619.517,342.513,624.881,344.962,625.649Z" transform="translate(-178.508 -64.718)" opacity="0.1"/>
    <path id="Path_16679" data-name="Path 16679" d="M517.072,738.081a3.241,3.241,0,0,0,2.187-.644,3.378,3.378,0,0,0,.683-2.517q-.032-11.453-.064-22.906c-6.587-3.138-13.955-4.144-21.187-5.111l-33.744-4.51c.775.1-5.276,14.534-4.348,16.46,1.635,3.4,14.133,6.4,17.66,8.008C490.521,732.434,503.262,738.561,517.072,738.081Z" transform="translate(-178.508 -64.718)" fill="#ffb0a3"/>
    <path id="Path_16680" data-name="Path 16680" d="M411.2,711.935c-6.371,1.015-13.482,1.912-17.608,6.871-5.232,6.289-3,15.665-.509,23.456a10.1,10.1,0,0,0,2.17,4.268c1.7,1.68,4.314,1.927,6.7,2.078,5.81.368,11.994.656,17.07-2.194,2.4-1.35,4.391-3.322,6.631-4.929a42.516,42.516,0,0,1,12.192-5.574,123.279,123.279,0,0,1,24.473-5.044c3.257-.332,6.578-.546,9.641-1.7s5.9-3.442,6.79-6.592c1.176-4.163-1.243-8.407-3.564-12.057-2.89-4.548-5.953-9.336-10.262-12.684-6.287-4.884-9.4-1.135-15.731,1.991a133.47,133.47,0,0,1-38,12.109Z" transform="translate(-178.508 -64.718)" fill="#ffb0a3"/>
    <path id="Path_16681" data-name="Path 16681" d="M394.552,717.674,354.1,705.717c-4.92-1.454-9.924-2.921-15.055-2.917s-10.5,1.686-13.825,5.591c-3.137,3.682-4.035,8.714-4.817,13.487l-1.673,10.211c-.85,5.189-1.7,10.478-.937,15.68s3.421,10.4,8.037,12.918c5.6,3.054,12.459,1.562,18.707.285a203.66,203.66,0,0,1,38.336-4.111c4.842-.058,9.921,0,14.2-2.265,5.086-2.7,8.129-8.4,8.652-14.128C406.519,731.745,403.612,720.351,394.552,717.674Z" transform="translate(-178.508 -64.718)" fill="#2f2e41"/>
    <path id="Path_16682" data-name="Path 16682" d="M532.974,707.254c5.244-.919,9.873-3.9,14.9-5.659,7.073-2.476,14.738-2.476,22.232-2.449,2.751.01,5.681.072,7.971,1.6,3.3,2.2,4.147,6.6,4.708,10.521l3.387,23.686c.637,4.455,1.27,9.029.277,13.419s-3.985,8.621-8.341,9.753c-5.29,1.375-10.476-2-15.471-4.224-12.484-5.548-27-4.13-40.012-8.277-2.416-.77-5-1.946-5.988-4.282a9.744,9.744,0,0,1-.466-4.093c.223-7.613-1.383-18.009.909-25.285C519.139,705.416,527.12,707.254,532.974,707.254Z" transform="translate(-178.508 -64.718)" fill="#2f2e41"/>
    <path id="Path_16683" data-name="Path 16683" d="M618.584,593.448a70.25,70.25,0,0,1,24.747-1.691c6.616.729,13.432,2.57,18.262,7.149,5.879,5.573,7.768,14.193,7.926,22.292a69.647,69.647,0,0,1-15.138,44.479,40.362,40.362,0,0,1-8.655,8.331,56.966,56.966,0,0,1-11.26,5.426l-87.408,34.476c-22.995,9.07-46.071,18.166-70.056,24.145a5.46,5.46,0,0,1-7.347-2.664A181.09,181.09,0,0,1,450.5,700.35a2.361,2.361,0,0,1,1.044-3.723L513.366,661.1c4.428-2.544,8.906-5.126,12.583-8.67a31.24,31.24,0,0,0,6.46-8.994c1.281-2.677,1.4-8.993,3.038-10.972,1.6-1.937,7.085-2.092,9.617-2.854a87.273,87.273,0,0,0,10.47-3.958c13.83-6.187,26.145-15.176,39.4-22.42A101.1,101.1,0,0,1,618.584,593.448Z" transform="translate(-178.508 -64.718)" fill="#2f2e41"/>
    <path id="Path_16684" data-name="Path 16684" d="M583.535,619.976c-10.622,7.978-24.375,15.311-34.9,23.5-3.593,2.794-63.486,36.467-64.332,40.939,9.821,1.655,72.383-42.112,81.334-46.479s16.886-10.526,24.749-16.639c2-1.558,10.5-6.241,4.743-7.982C591.887,612.332,585.927,618.381,583.535,619.976Z" transform="translate(-178.508 -64.718)" opacity="0.1"/>
    <path id="Path_16685" data-name="Path 16685" d="M510.45,360.015H417.213A14.283,14.283,0,0,0,402.93,374.3v5.23h-1.013v11.7h1.013v8.188h-1.013v7.018h1.013v86.305a14.283,14.283,0,0,0,14.283,14.283h93.238a14.283,14.283,0,0,0,14.282-14.282V374.3a14.283,14.283,0,0,0-14.282-14.282Z" transform="translate(-178.508 -64.718)" fill="#3f3d56"/>
    <path id="Path_16686" data-name="Path 16686" d="M346.761,184.974,299.471,160.2l-65.305,10.134-13.511,59.675,33.634-1.294,9.4-21.924v21.563l15.519-.6,9.008-34.9,5.629,37.156,55.172-1.126Z" fill="#2f2e41"/>
    <path id="Path_16687" data-name="Path 16687" d="M364.641,585.719c2.336,3.488,5.074,6.9,8.827,8.782,4.69,2.351,10.478,1.932,15.174-.407a26.709,26.709,0,0,0,10.951-10.979c5.139-9.076,6.2-19.935,5.563-30.345s-2.864-20.661-3.848-31.044c-.715-7.548-.773-15.141-.831-22.722-.012-1.593.014-3.31.955-4.6,1.138-1.555,3.223-1.983,5.07-2.532,10.373-3.082,17.258-12.8,22.194-22.434,3.3-6.43,6.162-13.458,5.526-20.656s-5.809-14.448-13-15.182c-5.926-.605-11.4,3.159-15.672,7.307a67.2,67.2,0,0,0-19.677,39.324c-.938,7.318-.67,14.835-2.66,21.94-4.25,15.169-17.548,24.47-24.174,38.119C351.739,555.336,355.769,572.411,364.641,585.719Z" transform="translate(-178.508 -64.718)" fill="#ffb0a3"/>
    <path id="Path_16688" data-name="Path 16688" d="M560.321,527.766a28.668,28.668,0,0,1-16.077,15.447,22.2,22.2,0,0,1-13.976.856,15.5,15.5,0,0,1-10.238-9.158,24.672,24.672,0,0,1-1.153-6.878c-.665-10.229-.408-20.771,3.308-30.325,1.433-3.685,3.366-7.18,4.5-10.968,1.29-4.321,1.5-8.881,1.693-13.386l1.221-27.911a18.166,18.166,0,0,0-.415-6.052c-1.218-4.039-4.993-6.663-8.456-9.072-8.364-5.817-16.629-12.6-20.682-21.951-1.24-2.86-2.059-6.039-1.429-9.092,1.143-5.542,6.736-9.13,12.264-10.339a27.434,27.434,0,0,1,32.889,22.107c.547,3.15.539,6.367.86,9.548.679,6.747,2.821,13.252,4.161,19.9,3.3,16.375,1.59,33.3,4.855,49.674C556.372,503.855,566.663,512.787,560.321,527.766Z" transform="translate(-178.508 -64.718)" fill="#ffb0a3"/>
    <circle id="Ellipse_716" data-name="Ellipse 716" cx="11.697" cy="11.697" r="11.697" transform="translate(274.875 334.694)" fill="#d0cde1"/>
    <path id="Union_1" data-name="Union 1" d="M12902.166,2329.576a62.664,62.664,0,1,1,62.666,62.663A62.663,62.663,0,0,1,12902.166,2329.576Zm48.182,31.688c29.426,0,45.5-24.377,45.5-45.518,0-.693-.016-1.386-.049-2.063a32.543,32.543,0,0,0,7.971-8.285,32.325,32.325,0,0,1-9.177,2.527,16.035,16.035,0,0,0,7.032-8.847,31.741,31.741,0,0,1-10.151,3.877,15.975,15.975,0,0,0-27.644,10.927,15.683,15.683,0,0,0,.412,3.645,45.276,45.276,0,0,1-32.94-16.717,16.014,16.014,0,0,0,4.967,21.356,15.6,15.6,0,0,1-7.262-2v.2a15.992,15.992,0,0,0,12.819,15.677,16.015,16.015,0,0,1-4.2.563,15.163,15.163,0,0,1-3-.3,16,16,0,0,0,14.935,11.106,32.034,32.034,0,0,1-19.855,6.85,32.4,32.4,0,0,1-3.812-.232A44.653,44.653,0,0,0,12950.348,2361.264Zm-72.441-268.064a66.06,66.06,0,1,1,66.06,66.063A66.059,66.059,0,0,1,12877.906,2093.2Zm33.368-14.5v27.84a19.547,19.547,0,0,0,19.486,19.486h27.839a19.545,19.545,0,0,0,19.486-19.486V2078.7a19.546,19.546,0,0,0-19.486-19.486h-27.839A19.547,19.547,0,0,0,12911.274,2078.7Zm19.486,41.758a13.962,13.962,0,0,1-13.919-13.921V2078.7a13.961,13.961,0,0,1,13.919-13.918h27.839a13.961,13.961,0,0,1,13.919,13.918v27.84a13.962,13.962,0,0,1-13.919,13.918Zm-2.782-27.84a16.7,16.7,0,0,0,16.7,16.7h0a16.7,16.7,0,1,0-16.707-16.7Zm30.621-18.093a4.175,4.175,0,1,0,4.176-4.175A4.176,4.176,0,0,0,12958.6,2074.522Zm-25.054,18.093a11.134,11.134,0,1,1,11.136,11.136A11.134,11.134,0,0,1,12933.546,2092.615ZM12611,1973a65,65,0,1,1,65,65A65,65,0,0,1,12611,1973Zm44.507,2.593h10.818v35.827h15.086v-35.827h11.764l1.766-13.2h-13.529v-8.416c0-3.959,1.082-6.647,6.765-6.647h8.32v-12.208c-1.249-.167-6.624-.543-11.619-.543-10.443,0-18.552,6.366-18.552,18.057v9.756h-10.818Z" transform="translate(-12184.509 -1908)" fill="url(#linear-gradient-2)"/>
  </g>
</svg>
