<svg id="header-bg" xmlns="http://www.w3.org/2000/svg" width="1944.438" height="1016.192" viewBox="0 0 1944.438 1016.192">
  <g id="Group_570" data-name="Group 570">
    <path id="Path_16599" data-name="Path 16599" d="M1180.12,244.356C960.753,57.829,638.958-29.934,439.552,9.129,237.5,69.343,49.013,231.648,1.677,434.977c-22.6,196.677,183.286,589.773,614.508,581.073,226.7-17.056,412.975-258.85,562.9-448.022C1283.57,429.178,1274.02,334.933,1180.12,244.356Z" fill="#3639a4"/>
  </g>
  <g id="Group_571" data-name="Group 571" transform="translate(481.937)" opacity="0">
    <path id="Path_16600" data-name="Path 16600" d="M1461.292,61.995c-3.586-3.049-8.847-4.484-12.107-3.846-3.3.984-6.385,3.638-7.159,6.962-.369,3.215,3,9.642,10.047,9.5,3.706-.279,6.751-4.232,9.2-7.325C1462.984,65.017,1462.828,63.476,1461.292,61.995Z" fill="#fff"/>
  </g>
  <circle id="Ellipse_703" data-name="Ellipse 703" cx="13" cy="13" r="13" transform="translate(212 950)" fill="#ff7364"/>
  <circle id="Ellipse_704" data-name="Ellipse 704" cx="13" cy="13" r="13" transform="translate(82 958)" fill="#ff7364"/>
  <circle id="Ellipse_705" data-name="Ellipse 705" cx="17" cy="17" r="17" transform="translate(0 904)" fill="#2cc3ff"/>
  <circle id="Ellipse_706" data-name="Ellipse 706" cx="8.5" cy="8.5" r="8.5" transform="translate(301 984)" fill="#2cc3ff"/>
</svg>
