<svg xmlns="http://www.w3.org/2000/svg" width="587.159" height="446.853" viewBox="0 0 587.159 446.853">
  <g id="header-page" transform="translate(-1447 -330.478)">
    <g id="Group_530" data-name="Group 530" transform="matrix(-0.966, -0.259, 0.259, -0.966, 1749.586, 5608.363)">
      <path id="Path_16337" data-name="Path 16337" d="M6417.24,4861.286c4.335-2.251,18.429-5.565,25.66,16.119s5.991,30.1-8.466,22.87-22.1-16.036-24.549-23.987S6412.908,4863.537,6417.24,4861.286Z" transform="translate(-5228.16 48.801)" fill="#ffb0a3"/>
      <path id="Path_16338" data-name="Path 16338" d="M6417.24,4861.286c4.335-2.251,18.429-5.565,25.66,16.119s5.991,30.1-8.466,22.87-22.1-16.036-24.549-23.987S6412.908,4863.537,6417.24,4861.286Z" transform="translate(-5174.102 66.82)" fill="#ffb0a3"/>
      <path id="Path_16339" data-name="Path 16339" d="M6417.24,4861.286c4.335-2.251,18.429-5.565,25.66,16.119s5.991,30.1-8.466,22.87-22.1-16.036-24.549-23.987S6412.908,4863.537,6417.24,4861.286Z" transform="translate(-5102.023 79.692)" fill="#ffb0a3"/>
      <path id="Path_16340" data-name="Path 16340" d="M6417.24,4861.286c4.335-2.251,18.429-5.565,25.66,16.119s5.991,30.1-8.466,22.87-22.1-16.036-24.549-23.987S6412.908,4863.537,6417.24,4861.286Z" transform="translate(-5117.469 144.047)" fill="#ffb0a3"/>
      <path id="Path_16341" data-name="Path 16341" d="M6417.24,4861.286c4.335-2.251,18.429-5.565,25.66,16.119s5.991,30.1-8.466,22.87-22.1-16.036-24.549-23.987S6412.908,4863.537,6417.24,4861.286Z" transform="translate(-5189.547 123.454)" fill="#ffb0a3"/>
      <path id="Path_16342" data-name="Path 16342" d="M6417.24,4861.286c4.335-2.251,18.429-5.565,25.66,16.119s5.991,30.1-8.466,22.87-22.1-16.036-24.549-23.987S6412.908,4863.537,6417.24,4861.286Z" transform="translate(-5259.051 113.157)" fill="#ffb0a3"/>
      <path id="Path_16343" data-name="Path 16343" d="M6417.24,4861.286c4.335-2.251,18.429-5.565,25.66,16.119s5.991,30.1-8.466,22.87-22.1-16.036-24.549-23.987S6412.908,4863.537,6417.24,4861.286Z" transform="translate(-5277.071 167.215)" fill="#ffb0a3"/>
      <path id="Path_16344" data-name="Path 16344" d="M6417.24,4861.286c4.335-2.251,18.429-5.565,25.66,16.119s5.991,30.1-8.466,22.87-22.1-16.036-24.549-23.987S6412.908,4863.537,6417.24,4861.286Z" transform="translate(-5220.438 187.809)" fill="#ffb0a3"/>
      <path id="Path_16345" data-name="Path 16345" d="M6417.24,4861.286c4.335-2.251,18.429-5.565,25.66,16.119s5.991,30.1-8.466,22.87-22.1-16.036-24.549-23.987S6412.908,4863.537,6417.24,4861.286Z" transform="translate(-5130.341 208.403)" fill="#ffb0a3"/>
      <path id="Path_16346" data-name="Path 16346" d="M6417.24,4861.286c4.335-2.251,18.429-5.565,25.66,16.119s5.991,30.1-8.466,22.87-22.1-16.036-24.549-23.987S6412.908,4863.537,6417.24,4861.286Z" transform="translate(-5058.261 164.641)" fill="#ffb0a3"/>
      <path id="Path_16347" data-name="Path 16347" d="M6417.24,4861.286c4.335-2.251,18.429-5.565,25.66,16.119s5.991,30.1-8.466,22.87-22.1-16.036-24.549-23.987S6412.908,4863.537,6417.24,4861.286Z" transform="translate(-5333.704 105.434)" fill="#ffb0a3"/>
      <path id="Path_16348" data-name="Path 16348" d="M6417.24,4861.286c4.335-2.251,18.429-5.565,25.66,16.119s5.991,30.1-8.466,22.87-22.1-16.036-24.549-23.987S6412.908,4863.537,6417.24,4861.286Z" transform="translate(-5300.239 38.504)" fill="#ffb0a3"/>
      <path id="Path_16349" data-name="Path 16349" d="M6417.24,4861.286c4.335-2.251,18.429-5.565,25.66,16.119s5.991,30.1-8.466,22.87-22.1-16.036-24.549-23.987S6412.908,4863.537,6417.24,4861.286Z" transform="translate(-5287.368 -31)" fill="#ffb0a3"/>
      <path id="Path_16350" data-name="Path 16350" d="M6417.24,4861.286c4.335-2.251,18.429-5.565,25.66,16.119s5.991,30.1-8.466,22.87-22.1-16.036-24.549-23.987S6412.908,4863.537,6417.24,4861.286Z" transform="translate(-5223.011 -20.704)" fill="#ffb0a3"/>
      <path id="Path_16351" data-name="Path 16351" d="M6417.24,4861.286c4.335-2.251,18.429-5.565,25.66,16.119s5.991,30.1-8.466,22.87-22.1-16.036-24.549-23.987S6412.908,4863.537,6417.24,4861.286Z" transform="translate(-5344.001 172.364)" fill="#ffb0a3"/>
    </g>
    <path id="Path_16599" data-name="Path 16599" d="M177.9.775c9.588.292,18.722,2.731,27.768,5.409,6.2,1.835,12.2,4.338,18.366,6.318,8.442,2.714,16.985,5.128,25.433,7.829,9.684,3.1,19.441,6.023,28.922,9.658,8.445,3.238,17.139,4.038,25.991,4.646,13.147.9,25.978,3.821,38.726,6.987,7.169,1.781,14.245,4,21.267,6.312a63.424,63.424,0,0,1,26.275,16.934,107.644,107.644,0,0,0,10.2,9.392c6.138,4.955,10.428,11.387,14.9,17.7.527.741.934,1.713,1.656,2.148,6.633,4,10.294,10.47,13.9,16.894,2.8,4.991,5.213,10.207,7.553,15.434a20.09,20.09,0,0,1,1.825,6.936c.458,8.461,1.712,16.865.947,25.419a163.416,163.416,0,0,0-.317,20.533c.741,19.908-1.924,39.492-4.858,59.095-2.077,13.887-3.3,27.9-5.4,41.787a115.415,115.415,0,0,1-5.183,22.1,57.021,57.021,0,0,1-9.175,15.758,75.207,75.207,0,0,1-33.3,24.113c-5.91,2.161-11.712,4.718-17.763,6.367-8.195,2.233-16.532,4.012-24.891,5.546-12.739,2.336-25.525,4.413-38.327,6.382-13.62,2.095-27.2,2.522-40.778-.867-7.347-1.833-14.949-2.615-22.36-4.211a399.97,399.97,0,0,1-61.716-18.122c-6.335-2.48-12.449-5.49-17.756-10.1-4.858-4.224-10.834-7.187-15.565-11.528-9.116-8.369-17.891-17.135-26.448-26.08-7.535-7.878-14.514-16.283-21.874-24.33-2.362-2.582-5.275-4.65-7.734-7.151-7.392-7.511-14.624-15.179-22.04-22.665-3.513-3.546-7.379-6.741-10.94-10.241-3.423-3.364-6.633-6.942-9.983-10.384-5.938-6.1-11.633-12.473-17.934-18.176C18.654,188.81,11.9,179.593,6.094,169.7a35.515,35.515,0,0,1-5.06-21.776c.47-4.789.752-9.478,2.66-14.075a37.7,37.7,0,0,1,10.471-14.125c7.127-6.17,14.406-12.183,21.866-17.946,8.78-6.783,17.761-13.312,26.773-19.789,6.458-4.64,13.378-8.668,19.616-13.574,11.762-9.252,23.718-18.265,34.425-28.826,8.681-8.563,17.671-16.852,26.976-24.728C150.734,9.008,158.4,3.992,167.462,1.93,170.854,1.163,174.414,1.139,177.9.775ZM25.727,134.417c-5.674-2.357-7.975-1.674-10.09,3.359l5.8,2.114.553-3.525,3.74-1.949c1.884-1.542,4.227-2.727,4.666-5.672C26.468,129.286,26.468,129.286,25.727,134.417ZM154.76,20.476c-1.571,2.764-2.633,4.7-1.468,7.221C156.586,25.286,156.621,25.148,154.76,20.476ZM47.268,113.315c-1.151,2.763-1.941,4.661-2.878,6.9C49.361,118.679,49.361,118.679,47.268,113.315Zm121.956,99.792c-.988-.642-1.819-1.407-2.013-1.271a12,12,0,0,0-1.893,2.05c.563.32,1.21.99,1.665.878C167.674,214.594,168.234,213.882,169.225,213.106Zm11.006,1.011c-.719.865-1.492,1.394-1.441,1.822a6.458,6.458,0,0,0,1.085,2.079c.6-.482,1.619-.91,1.694-1.464C181.65,215.936,180.872,215.207,180.23,214.117Zm-.755,57.435c.028.475.056.952.084,1.428l3.315-.494c-.038-.312-.077-.622-.113-.934ZM144.7,39.79c.123-.344.246-.688.371-1.032L141.8,37.5c-.131.377-.263.756-.4,1.133Zm7.989,170.1c-.253.622-.639,1.1-.545,1.457.1.392.647.667,1,.992a5.024,5.024,0,0,0,.775-1.514C153.953,210.611,153.241,210.289,152.691,209.888Zm10.328,2.827a10.419,10.419,0,0,0-2.351-.553c-.2.005-.394.728-.588,1.123a3.85,3.85,0,0,0,1.387.5C161.836,213.772,162.184,213.32,163.02,212.715Zm12.2,4.058c-.2-.246-.4-.491-.607-.736a5.527,5.527,0,0,0-.591,1.106c-.026.075.491.317.757.482C174.927,217.34,175.075,217.058,175.221,216.773ZM150.565,31.248c-.255-.214-.512-.426-.765-.638-.128.3-.409.631-.346.879s.464.427.717.635C150.3,31.834,150.436,31.542,150.565,31.248Z" transform="translate(1446.132 415.225)" fill="#292b87"/>
  </g>
</svg>
