<svg xmlns="http://www.w3.org/2000/svg" xmlns:xlink="http://www.w3.org/1999/xlink" width="1944.438" height="1016.192" viewBox="0 0 1944.438 1016.192">
  <defs>
    <linearGradient id="linear-gradient" x1="0.831" y1="0.021" x2="0.102" y2="1" gradientUnits="objectBoundingBox">
      <stop offset="0" stop-color="#2caee9"/>
      <stop offset="1" stop-color="#5225c5"/>
    </linearGradient>
    <linearGradient id="linear-gradient-2" x1="1.101" y1="1.041" x2="0.18" y2="0.125" gradientUnits="objectBoundingBox">
      <stop offset="0" stop-color="#23218e"/>
      <stop offset="1" stop-color="#d72f86"/>
    </linearGradient>
    <clipPath id="clip-path">
      <path id="Path_16599" data-name="Path 16599" d="M1180.12,244.356C960.753,57.829,638.958-29.934,439.552,9.129,237.5,69.343,49.013,231.648,1.677,434.977c-22.6,196.677,183.286,589.773,614.508,581.073,226.7-17.056,412.975-258.85,562.9-448.022C1283.57,429.178,1274.02,334.933,1180.12,244.356Z" transform="translate(-20930 -1812)" fill="url(#linear-gradient)"/>
    </clipPath>
  </defs>
  <g id="header-bg-grad" transform="translate(0 -18)">
    <g id="Group_571" data-name="Group 571" transform="translate(481.937)" opacity="0">
      <path id="Path_16600" data-name="Path 16600" d="M1461.29,61.995c-3.586-3.049-8.847-4.484-12.107-3.846-3.3.984-6.385,3.638-7.159,6.962-.369,3.215,3,9.642,10.047,9.5,3.706-.279,6.751-4.232,9.2-7.325C1462.98,65.017,1462.83,63.476,1461.29,61.995Z" fill="#fff"/>
    </g>
    <circle id="Ellipse_703" data-name="Ellipse 703" cx="13" cy="13" r="13" transform="translate(212 950)" fill="#ff7364"/>
    <circle id="Ellipse_704" data-name="Ellipse 704" cx="13" cy="13" r="13" transform="translate(82 958)" fill="#ff7364"/>
    <circle id="Ellipse_705" data-name="Ellipse 705" cx="17" cy="17" r="17" transform="translate(0 904)" fill="#2cc3ff"/>
    <circle id="Ellipse_706" data-name="Ellipse 706" cx="8.5" cy="8.5" r="8.5" transform="translate(301 984)" fill="#2cc3ff"/>
    <path id="Path_16599-2" data-name="Path 16599" d="M1180.12,244.356C960.753,57.829,638.958-29.934,439.552,9.129,237.5,69.343,49.013,231.648,1.677,434.977c-22.6,196.677,183.286,589.773,614.508,581.073,226.7-17.056,412.975-258.85,562.9-448.022C1283.57,429.178,1274.02,334.933,1180.12,244.356Z" transform="translate(0 18)" fill="url(#linear-gradient-2)"/>
    <g id="Mask_Group_30" data-name="Mask Group 30" transform="translate(20930 1830)" clip-path="url(#clip-path)">
      <g id="Path_16614" data-name="Path 16614" transform="translate(-21313 -2259)" fill="#fff" opacity="0.05">
        <path d="M 573.5 1146.5 C 553.9544067382813 1146.5 534.2429809570313 1145.504760742188 514.9134521484375 1143.541625976563 C 495.8638610839844 1141.607055664063 476.7219848632813 1138.685668945313 458.0199890136719 1134.858764648438 C 439.5598449707031 1131.081176757813 421.0845642089844 1126.330688476563 403.1071472167969 1120.739135742188 C 385.3308715820313 1115.210083007813 367.6187133789063 1108.727416992188 350.4627075195313 1101.470947265625 C 333.4651489257813 1094.28173828125 316.6130065917969 1086.16357421875 300.3745727539063 1077.34228515625 C 284.2514343261719 1068.583740234375 268.3562927246094 1058.927124023438 253.1305694580078 1048.640869140625 C 237.9784240722656 1038.404296875 223.1371459960938 1027.30615234375 209.0189971923828 1015.654846191406 C 194.9352874755859 1004.031982421875 181.2448577880859 991.5891723632813 168.3278503417969 978.672119140625 C 155.4108581542969 965.755126953125 142.9680023193359 952.064697265625 131.3451385498047 937.9810180664063 C 119.6938552856445 923.8628540039063 108.5957107543945 909.0215454101563 98.35914611816406 893.8694458007813 C 88.07286071777344 878.6437377929688 78.41628265380859 862.7485961914063 69.65771484375 846.6254272460938 C 60.83642959594727 830.3870239257813 52.71828460693359 813.5348510742188 45.52899932861328 796.5372924804688 C 38.2725715637207 779.3812866210938 31.78985786437988 761.6691284179688 26.26085662841797 743.8928833007813 C 20.66928482055664 725.9154052734375 15.91885757446289 707.4401245117188 12.14128589630127 688.97998046875 C 8.314285278320313 670.2780151367188 5.39300012588501 651.1361694335938 3.458428621292114 632.0865478515625 C 1.495285749435425 612.7570190429688 0.5 593.0455932617188 0.5 573.5 C 0.5 553.9544067382813 1.495285749435425 534.2429809570313 3.458428621292114 514.9134521484375 C 5.39300012588501 495.8638610839844 8.314285278320313 476.7219848632813 12.14128589630127 458.0199890136719 C 15.91885757446289 439.5598449707031 20.66928482055664 421.0845642089844 26.26085662841797 403.1071472167969 C 31.78985786437988 385.3308715820313 38.2725715637207 367.6187133789063 45.52899932861328 350.4627075195313 C 52.71828460693359 333.4651489257813 60.83642959594727 316.6130065917969 69.65771484375 300.3745727539063 C 78.41628265380859 284.2514343261719 88.07286071777344 268.3562927246094 98.35914611816406 253.1305694580078 C 108.5957107543945 237.9784240722656 119.6938552856445 223.1371459960938 131.3451385498047 209.0189971923828 C 142.9680023193359 194.9352874755859 155.4108581542969 181.2448577880859 168.3278503417969 168.3278503417969 C 181.2448577880859 155.4108581542969 194.9352874755859 142.9680023193359 209.0189971923828 131.3451385498047 C 223.1371459960938 119.6938552856445 237.9784240722656 108.5957107543945 253.1305694580078 98.35914611816406 C 268.3562927246094 88.07286071777344 284.2514343261719 78.41628265380859 300.3745727539063 69.65771484375 C 316.6130065917969 60.83642959594727 333.4651489257813 52.71828460693359 350.4627075195313 45.52899932861328 C 367.6187133789063 38.2725715637207 385.3308715820313 31.78985786437988 403.1071472167969 26.26085662841797 C 421.0845642089844 20.66928482055664 439.5598449707031 15.91885757446289 458.0199890136719 12.14128589630127 C 476.7219848632813 8.314285278320313 495.8638610839844 5.39300012588501 514.9134521484375 3.458428621292114 C 534.2429809570313 1.495285749435425 553.9544067382813 0.5 573.5 0.5 C 593.0455932617188 0.5 612.7570190429688 1.495285749435425 632.0865478515625 3.458428621292114 C 651.1361694335938 5.39300012588501 670.2780151367188 8.314285278320313 688.97998046875 12.14128589630127 C 707.4401245117188 15.91885757446289 725.9154052734375 20.66928482055664 743.8928833007813 26.26085662841797 C 761.6691284179688 31.78985786437988 779.3812866210938 38.2725715637207 796.5372924804688 45.52899932861328 C 813.5348510742188 52.71828460693359 830.3870239257813 60.83642959594727 846.6254272460938 69.65771484375 C 862.7485961914063 78.41628265380859 878.6437377929688 88.07286071777344 893.8694458007813 98.35914611816406 C 909.0215454101563 108.5957107543945 923.8628540039063 119.6938552856445 937.9810180664063 131.3451385498047 C 952.064697265625 142.9680023193359 965.755126953125 155.4108581542969 978.672119140625 168.3278503417969 C 991.5891723632813 181.2448577880859 1004.031982421875 194.9352874755859 1015.654846191406 209.0189971923828 C 1027.30615234375 223.1371459960938 1038.404296875 237.9784240722656 1048.640869140625 253.1305694580078 C 1058.927124023438 268.3562927246094 1068.583740234375 284.2514343261719 1077.34228515625 300.3745727539063 C 1086.16357421875 316.6130065917969 1094.28173828125 333.4651489257813 1101.470947265625 350.4627075195313 C 1108.727416992188 367.6187133789063 1115.210083007813 385.3308715820313 1120.739135742188 403.1071472167969 C 1126.330688476563 421.0845642089844 1131.081176757813 439.5598449707031 1134.858764648438 458.0199890136719 C 1138.685668945313 476.7219848632813 1141.607055664063 495.8638610839844 1143.541625976563 514.9134521484375 C 1145.504760742188 534.2429809570313 1146.5 553.9544067382813 1146.5 573.5 C 1146.5 593.0455932617188 1145.504760742188 612.7570190429688 1143.541625976563 632.0865478515625 C 1141.607055664063 651.1361694335938 1138.685668945313 670.2780151367188 1134.858764648438 688.97998046875 C 1131.081176757813 707.4401245117188 1126.330688476563 725.9154052734375 1120.739135742188 743.8928833007813 C 1115.210083007813 761.6691284179688 1108.727416992188 779.3812866210938 1101.470947265625 796.5372924804688 C 1094.28173828125 813.5348510742188 1086.16357421875 830.3870239257813 1077.34228515625 846.6254272460938 C 1068.583740234375 862.7485961914063 1058.927124023438 878.6437377929688 1048.640869140625 893.8694458007813 C 1038.404296875 909.0215454101563 1027.30615234375 923.8628540039063 1015.654846191406 937.9810180664063 C 1004.031982421875 952.064697265625 991.5891723632813 965.755126953125 978.672119140625 978.672119140625 C 965.755126953125 991.5891723632813 952.064697265625 1004.031982421875 937.9810180664063 1015.654846191406 C 923.8628540039063 1027.30615234375 909.0215454101563 1038.404296875 893.8694458007813 1048.640869140625 C 878.6437377929688 1058.927124023438 862.7485961914063 1068.583740234375 846.6254272460938 1077.34228515625 C 830.3870239257813 1086.16357421875 813.5348510742188 1094.28173828125 796.5372924804688 1101.470947265625 C 779.3812866210938 1108.727416992188 761.6691284179688 1115.210083007813 743.8928833007813 1120.739135742188 C 725.9154052734375 1126.330688476563 707.4401245117188 1131.081176757813 688.97998046875 1134.858764648438 C 670.2780151367188 1138.685668945313 651.1361694335938 1141.607055664063 632.0865478515625 1143.541625976563 C 612.7570190429688 1145.504760742188 593.0455932617188 1146.5 573.5 1146.5 Z" stroke="none"/>
        <path d="M 573.5 1 C 553.9711303710938 1 534.27685546875 1.994384765625 514.9639892578125 3.955810546875 C 495.9310302734375 5.888671875 476.8060302734375 8.8076171875 458.1203002929688 12.631103515625 C 439.6764526367188 16.4052734375 421.21728515625 21.1517333984375 403.2557373046875 26.73828125 C 385.4949951171875 32.262451171875 367.7984008789063 38.7393798828125 350.6574096679688 45.9893798828125 C 333.6748657226563 53.172607421875 316.8375854492188 61.283447265625 300.6131591796875 70.09716796875 C 284.504150390625 78.8480224609375 268.6228637695313 88.49609375 253.4105834960938 98.7734375 C 238.2715454101563 109.0010986328125 223.443115234375 120.089599609375 209.3372802734375 131.7308349609375 C 195.265869140625 143.3435668945313 181.587158203125 155.7755737304688 168.6814575195313 168.6814575195313 C 155.7755737304688 181.587158203125 143.3435668945313 195.265869140625 131.7308349609375 209.3372802734375 C 120.089599609375 223.443115234375 109.0010986328125 238.2715454101563 98.7734375 253.4105834960938 C 88.49609375 268.6228637695313 78.8480224609375 284.504150390625 70.09716796875 300.6131591796875 C 61.283447265625 316.8375854492188 53.172607421875 333.6748657226563 45.9893798828125 350.6574096679688 C 38.7393798828125 367.7984008789063 32.262451171875 385.4949951171875 26.73828125 403.2557373046875 C 21.1517333984375 421.21728515625 16.4052734375 439.6764526367188 12.631103515625 458.1203002929688 C 8.8076171875 476.8060302734375 5.888671875 495.9310302734375 3.955810546875 514.9639892578125 C 1.994384765625 534.27685546875 1 553.9711303710938 1 573.5 C 1 593.0288696289063 1.994384765625 612.72314453125 3.955810546875 632.0360107421875 C 5.888671875 651.0689697265625 8.8076171875 670.1939697265625 12.631103515625 688.8796997070313 C 16.4052734375 707.3236083984375 21.1517333984375 725.78271484375 26.73828125 743.7442626953125 C 32.262451171875 761.5050048828125 38.7393798828125 779.2015380859375 45.9893798828125 796.342529296875 C 53.172607421875 813.3251342773438 61.283447265625 830.1624145507813 70.09716796875 846.3868408203125 C 78.8480224609375 862.495849609375 88.49609375 878.3771362304688 98.7734375 893.5894165039063 C 109.0010986328125 908.7283935546875 120.089599609375 923.556884765625 131.7308349609375 937.6627197265625 C 143.3435668945313 951.734130859375 155.7755737304688 965.412841796875 168.6814575195313 978.318603515625 C 181.587158203125 991.2244262695313 195.265869140625 1003.656433105469 209.3372802734375 1015.269165039063 C 223.443115234375 1026.910400390625 238.2715454101563 1037.998901367188 253.4105834960938 1048.2265625 C 268.6228637695313 1058.50390625 284.504150390625 1068.151977539063 300.6131591796875 1076.90283203125 C 316.8375854492188 1085.716552734375 333.6748657226563 1093.827392578125 350.6574096679688 1101.010620117188 C 367.7984008789063 1108.260620117188 385.4949951171875 1114.737548828125 403.2557373046875 1120.26171875 C 421.21728515625 1125.848266601563 439.6764526367188 1130.5947265625 458.1203002929688 1134.368896484375 C 476.8060302734375 1138.1923828125 495.9310302734375 1141.111328125 514.9639892578125 1143.044189453125 C 534.27685546875 1145.005615234375 553.9711303710938 1146 573.5 1146 C 593.0288696289063 1146 612.72314453125 1145.005615234375 632.0360107421875 1143.044189453125 C 651.0689697265625 1141.111328125 670.1939697265625 1138.1923828125 688.8796997070313 1134.368896484375 C 707.3236083984375 1130.5947265625 725.78271484375 1125.848266601563 743.7442626953125 1120.26171875 C 761.5050048828125 1114.737548828125 779.2015380859375 1108.260620117188 796.342529296875 1101.010620117188 C 813.3251342773438 1093.827392578125 830.1624145507813 1085.716552734375 846.3868408203125 1076.90283203125 C 862.495849609375 1068.151977539063 878.3771362304688 1058.50390625 893.5894165039063 1048.2265625 C 908.7283935546875 1037.998901367188 923.556884765625 1026.910400390625 937.6627197265625 1015.269165039063 C 951.734130859375 1003.656433105469 965.412841796875 991.2244262695313 978.318603515625 978.318603515625 C 991.2244262695313 965.412841796875 1003.656433105469 951.734130859375 1015.269165039063 937.6627197265625 C 1026.910400390625 923.556884765625 1037.998901367188 908.7283935546875 1048.2265625 893.5894165039063 C 1058.50390625 878.3771362304688 1068.151977539063 862.495849609375 1076.90283203125 846.3868408203125 C 1085.716552734375 830.1624145507813 1093.827392578125 813.3251342773438 1101.010620117188 796.342529296875 C 1108.260620117188 779.2015380859375 1114.737548828125 761.5050048828125 1120.26171875 743.7442626953125 C 1125.848266601563 725.78271484375 1130.5947265625 707.3236083984375 1134.368896484375 688.8796997070313 C 1138.1923828125 670.1939697265625 1141.111328125 651.0689697265625 1143.044189453125 632.0360107421875 C 1145.005615234375 612.72314453125 1146 593.0288696289063 1146 573.5 C 1146 553.9711303710938 1145.005615234375 534.27685546875 1143.044189453125 514.9639892578125 C 1141.111328125 495.9310302734375 1138.1923828125 476.8060302734375 1134.368896484375 458.1203002929688 C 1130.5947265625 439.6764526367188 1125.848266601563 421.21728515625 1120.26171875 403.2557373046875 C 1114.737548828125 385.4949951171875 1108.260620117188 367.7984008789063 1101.010620117188 350.6574096679688 C 1093.827392578125 333.6748657226563 1085.716552734375 316.8375854492188 1076.90283203125 300.6131591796875 C 1068.151977539063 284.504150390625 1058.50390625 268.6228637695313 1048.2265625 253.4105834960938 C 1037.998901367188 238.2715454101563 1026.910400390625 223.443115234375 1015.269165039063 209.3372802734375 C 1003.656433105469 195.265869140625 991.2244262695313 181.587158203125 978.318603515625 168.6814575195313 C 965.412841796875 155.7755737304688 951.734130859375 143.3435668945313 937.6627197265625 131.7308349609375 C 923.556884765625 120.089599609375 908.7283935546875 109.0010986328125 893.5894165039063 98.7734375 C 878.3771362304688 88.49609375 862.495849609375 78.8480224609375 846.3868408203125 70.09716796875 C 830.1624145507813 61.283447265625 813.3251342773438 53.172607421875 796.342529296875 45.9893798828125 C 779.2015380859375 38.7393798828125 761.5050048828125 32.262451171875 743.7442626953125 26.73828125 C 725.78271484375 21.1517333984375 707.3236083984375 16.4052734375 688.8796997070313 12.631103515625 C 670.1939697265625 8.8076171875 651.0689697265625 5.888671875 632.0360107421875 3.955810546875 C 612.72314453125 1.994384765625 593.0288696289063 1 573.5 1 M 573.5 0 C 890.2352905273438 0 1147 256.7647094726563 1147 573.5 C 1147 890.2352905273438 890.2352905273438 1147 573.5 1147 C 256.7647094726563 1147 0 890.2352905273438 0 573.5 C 0 256.7647094726563 256.7647094726563 0 573.5 0 Z" stroke="none" fill="#707070"/>
      </g>
    </g>
  </g>
</svg>
