<svg xmlns="http://www.w3.org/2000/svg" xmlns:xlink="http://www.w3.org/1999/xlink" width="721" height="803.699" viewBox="0 0 721 803.699">
  <defs>
    <linearGradient id="linear-gradient" x1="1.004" y1="0.97" x2="0.091" y2="0.024" gradientUnits="objectBoundingBox">
      <stop offset="0" stop-color="#450b7c"/>
      <stop offset="0.339" stop-color="#563cc9"/>
      <stop offset="1" stop-color="#49e9fb"/>
    </linearGradient>
    <linearGradient id="linear-gradient-2" x1="0.326" y1="-0.275" x2="0.697" y2="1.037" xlink:href="#linear-gradient"/>
    <linearGradient id="linear-gradient-3" x1="0.093" y1="1.088" x2="1" y2="0" xlink:href="#linear-gradient"/>
    <clipPath id="clip-path">
      <path id="Path_16663" data-name="Path 16663" d="M86,0H382.261a86,86,0,0,1,86,86V338.426a86,86,0,0,1-86,86H86a86,86,0,0,1-86-86V86A86,86,0,0,1,86,0Z" transform="translate(17.803 186.65) rotate(-8)" fill="url(#linear-gradient)"/>
    </clipPath>
    <clipPath id="clip-path-2">
      <circle id="Ellipse_40" data-name="Ellipse 40" cx="162.5" cy="162.5" r="162.5" transform="translate(0.36 0.18)" fill="#ffb0a3" stroke="#707070" stroke-width="1"/>
    </clipPath>
    <linearGradient id="linear-gradient-5" x1="0.5" y1="0" x2="0.5" y2="1" xlink:href="#linear-gradient"/>
    <filter id="Path_16352" x="80" y="36.699" width="641" height="767" filterUnits="userSpaceOnUse">
      <feOffset dy="30" input="SourceAlpha"/>
      <feGaussianBlur stdDeviation="36" result="blur"/>
      <feFlood flood-opacity="0.102"/>
      <feComposite operator="in" in2="blur"/>
      <feComposite in="SourceGraphic"/>
    </filter>
    <linearGradient id="linear-gradient-6" x1="0" y1="1" x2="1.008" y2="0" xlink:href="#linear-gradient"/>
    <linearGradient id="linear-gradient-7" x1="0" y1="1" x2="1" y2="0" xlink:href="#linear-gradient"/>
    <linearGradient id="linear-gradient-8" x1="-0.036" y1="1.334" x2="1.055" y2="-0.054" xlink:href="#linear-gradient"/>
    <filter id="Path_16353" x="0" y="426.699" width="211" height="213" filterUnits="userSpaceOnUse">
      <feOffset dy="14" input="SourceAlpha"/>
      <feGaussianBlur stdDeviation="15" result="blur-2"/>
      <feFlood flood-opacity="0.11"/>
      <feComposite operator="in" in2="blur-2"/>
      <feComposite in="SourceGraphic"/>
    </filter>
  </defs>
  <g id="hero-grad" transform="translate(-1047 -236.301)">
    <g id="Group_429" data-name="Group 429" transform="translate(1100.085 325.811)">
      <path id="Path_16199" data-name="Path 16199" d="M945.541,729.437c37.479-37.478,41.5-101.032,8.586-133.975-28.364-28.35-95.566-50.716-156.615-15.126-23.212,14.711-39.14,33.286-37.38,70.121,3.892,31.212,13.51,40.2,8.329,59.146q-2.763,9.088-5.51,19.907c-1.589,7.384,0,12.693,4.293,14.453,4.68,1.574,11.205,1.345,18.146.444,5.638-.8,11.907-2.662,18.389-2.762C819.064,753.765,895.511,779.523,945.541,729.437Z" transform="translate(-760 -562)" fill="url(#linear-gradient-2)"/>
    </g>
    <path id="Path_16225" data-name="Path 16225" d="M774.412,428.28c10.126-8.61,24.98-12.661,34.186-10.858,9.327,2.78,18.027,10.272,20.213,19.658,1.043,9.079-8.461,27.225-28.367,26.824-10.465-.788-19.064-11.95-25.985-20.682C769.637,436.812,770.077,432.461,774.412,428.28Z" transform="translate(352.422 152.944)" fill="url(#linear-gradient-3)"/>
    <g id="Group_74" data-name="Group 74" transform="translate(1191.322 114.82)">
      <g id="Mask_Group_35" data-name="Mask Group 35" clip-path="url(#clip-path)">
        <path id="Path_16659" data-name="Path 16659" d="M86,0H382.261a86,86,0,0,1,86,86V338.426a86,86,0,0,1-86,86H86a86,86,0,0,1-86-86V86A86,86,0,0,1,86,0Z" transform="translate(17.803 186.65) rotate(-8)" fill="url(#linear-gradient)"/>
        <g id="Mask_Group_13" data-name="Mask Group 13" transform="translate(298.318)" opacity="0.33" clip-path="url(#clip-path-2)">
          <path id="Path_16660" data-name="Path 16660" d="M86,0H382.261a86,86,0,0,1,86,86V338.426a86,86,0,0,1-86,86H86a86,86,0,0,1-86-86V86A86,86,0,0,1,86,0Z" transform="translate(-280.515 186.65) rotate(-8)" fill="#fff" style="mix-blend-mode: overlay;isolation: isolate"/>
        </g>
      </g>
      <rect id="Rectangle_741" data-name="Rectangle 741" width="388.261" height="351.426" rx="86" transform="matrix(0.966, -0.259, 0.259, 0.966, 100.952, 438.607)" fill="#3639a3" opacity="0.21"/>
      <path id="Path_16662" data-name="Path 16662" d="M86,0H223.748a86,86,0,0,1,86,86v72.156a86,86,0,0,1-86,86H86a86,86,0,0,1-86-86V86A86,86,0,0,1,86,0Z" transform="translate(0 578.381) rotate(-8)" fill="url(#linear-gradient-5)"/>
      <path id="Path_154" data-name="Path 154" d="M-4682.516,390s-79.92,97.649-26.357,82.345-73.967-81.619-113.077-18.7-41.66,39.109-41.66,39.109" transform="translate(4894.802 -227.172)" fill="none" stroke="#fff" stroke-linecap="round" stroke-width="10" style="mix-blend-mode: soft-light;isolation: isolate"/>
      <g transform="matrix(1, 0, 0, 1, -144.32, 121.48)" filter="url(#Path_16352)">
        <path id="Path_16352-2" data-name="Path 16352" d="M30,0H395a30,30,0,0,1,30,30V521a30,30,0,0,1-30,30H30A30,30,0,0,1,0,521V30A30,30,0,0,1,30,0Z" transform="translate(188 114.7)" fill="#fff"/>
      </g>
      <path id="Path_16657" data-name="Path 16657" d="M30,0H309a30,30,0,0,1,30,30v93a30,30,0,0,1-30,30H30A30,30,0,0,1,0,123V30A30,30,0,0,1,30,0Z" transform="translate(83.678 279.18)" fill="url(#linear-gradient-6)"/>
      <path id="Path_16658" data-name="Path 16658" d="M60.5,0A60.5,60.5,0,0,1,121,60.5v2a60.5,60.5,0,0,1-121,0v-2A60.5,60.5,0,0,1,60.5,0Z" transform="translate(192.678 294.18)" fill="#ffb0a3" style="mix-blend-mode: color-burn;isolation: isolate"/>
      <g id="video-camera" transform="translate(220.458 327.019)">
        <g id="Group_73" data-name="Group 73" transform="translate(0 0)">
          <g id="Group_72" data-name="Group 72">
            <path id="Path_155" data-name="Path 155" d="M269.844,165.583a2.688,2.688,0,0,0-3.72-.95l-9.024,5.224-2.3,1.346V183.71l2.137,1.267c.079,0,.079.079.158.079l8.866,5.145a2.436,2.436,0,0,0,1.5.475,2.669,2.669,0,0,0,2.691-2.691V177.378l.079-10.449A2.072,2.072,0,0,0,269.844,165.583Z" transform="translate(-204.38 -136.058)" fill="#fff"/>
            <path id="Path_156" data-name="Path 156" d="M12.745,47.291A12.744,12.744,0,1,0,0,34.546,12.736,12.736,0,0,0,12.745,47.291Zm0-17.969a5.224,5.224,0,1,1-5.224,5.224A5.122,5.122,0,0,1,12.745,29.322Z" transform="translate(0 -21.802)" fill="#fff"/>
            <path id="Path_157" data-name="Path 157" d="M56.595,150.994a15.17,15.17,0,0,1-6.807,1.662,14.8,14.8,0,0,1-8.232-2.454H32.531a14.8,14.8,0,0,1-8.232,2.454,14.2,14.2,0,0,1-6.807-1.662,6.189,6.189,0,0,0-3.087,5.3v19.314a6.436,6.436,0,0,0,6.412,6.412H53.349a6.436,6.436,0,0,0,6.412-6.412V156.3A6.438,6.438,0,0,0,56.595,150.994Z" transform="translate(-11.554 -124.793)" fill="#fff"/>
            <path id="Path_158" data-name="Path 158" d="M141.548,47.291A12.744,12.744,0,1,0,128.8,34.546,12.736,12.736,0,0,0,141.548,47.291Zm0-17.969a5.224,5.224,0,1,1-5.224,5.224A5.219,5.219,0,0,1,141.548,29.322Z" transform="translate(-103.315 -21.802)" fill="#fff"/>
          </g>
        </g>
      </g>
      <rect id="Rectangle_112" data-name="Rectangle 112" width="166" height="11" rx="5.5" transform="translate(83.678 458.18)" fill="#ff7364" opacity="0.24"/>
      <rect id="Rectangle_113" data-name="Rectangle 113" width="164" height="11" rx="5.5" transform="translate(258.678 458.18)" fill="#ff7364" opacity="0.24"/>
      <rect id="Rectangle_114" data-name="Rectangle 114" width="127" height="10" rx="5" transform="translate(206.678 488.18)" fill="#ff7364" opacity="0.24"/>
      <rect id="Rectangle_118" data-name="Rectangle 118" width="84" height="10" rx="5" transform="translate(338.678 488.18)" fill="#ff7364" opacity="0.24"/>
      <rect id="Rectangle_119" data-name="Rectangle 119" width="55" height="10" rx="5" transform="translate(367.678 517.18)" fill="#ff7364" opacity="0.24"/>
      <rect id="Rectangle_115" data-name="Rectangle 115" width="116" height="10" rx="5" transform="translate(83.678 488.18)" fill="#ff7364" opacity="0.24"/>
      <rect id="Rectangle_116" data-name="Rectangle 116" width="136" height="10" rx="5" transform="translate(83.678 517.18)" fill="#ff7364" opacity="0.24"/>
      <rect id="Rectangle_123" data-name="Rectangle 123" width="164" height="10" rx="5" transform="translate(83.678 675.18)" fill="#161616" opacity="0.09"/>
      <rect id="Rectangle_130" data-name="Rectangle 130" width="49" height="10" rx="5" transform="translate(255.678 675.18)" fill="#161616" opacity="0.09"/>
      <rect id="Rectangle_124" data-name="Rectangle 124" width="84" height="11" rx="5.5" transform="translate(83.678 696.18)" fill="#161616" opacity="0.09"/>
      <rect id="Rectangle_129" data-name="Rectangle 129" width="167" height="11" rx="5.5" transform="translate(255.678 696.18)" fill="#161616" opacity="0.09"/>
      <rect id="Rectangle_125" data-name="Rectangle 125" width="136" height="11" rx="5.5" transform="translate(83.678 721.18)" fill="#161616" opacity="0.09"/>
      <rect id="Rectangle_128" data-name="Rectangle 128" width="138" height="11" rx="5.5" transform="translate(255.678 721.18)" fill="#161616" opacity="0.09"/>
      <rect id="Rectangle_126" data-name="Rectangle 126" width="47" height="11" rx="5.5" transform="translate(83.678 744.18)" fill="#161616" opacity="0.09"/>
      <rect id="Rectangle_127" data-name="Rectangle 127" width="165" height="11" rx="5.5" transform="translate(255.678 744.18)" fill="#161616" opacity="0.09"/>
      <rect id="Rectangle_117" data-name="Rectangle 117" width="136" height="10" rx="5" transform="translate(226.678 517.18)" fill="#ff7364" opacity="0.24"/>
      <path id="Path_16661" data-name="Path 16661" d="M10,0H156a10,10,0,0,1,10,10V88a10,10,0,0,1-10,10H10A10,10,0,0,1,0,88V10A10,10,0,0,1,10,0Z" transform="translate(83.678 558.18)" fill="url(#linear-gradient-7)"/>
      <rect id="Rectangle_122" data-name="Rectangle 122" width="165" height="98" rx="10" transform="translate(258.678 558.18)" fill="url(#linear-gradient-8)"/>
    </g>
    <g transform="matrix(1, 0, 0, 1, 1047, 236.3)" filter="url(#Path_16353)">
      <path id="Path_16353-2" data-name="Path 16353" d="M60.5,0A60.5,60.5,0,0,1,121,60.5v2a60.5,60.5,0,0,1-121,0v-2A60.5,60.5,0,0,1,60.5,0Z" transform="translate(45 457.7)" fill="#fff"/>
    </g>
    <g id="_ionicons_svg_md-planet_1_" data-name="_ionicons_svg_md-planet (1)" transform="translate(1086.181 651.944)">
      <path id="Path_16354" data-name="Path 16354" d="M129.617,103.881c-.388.466-.76.931-1.117,1.428a145.473,145.473,0,0,0,19.275,17.645,150.473,150.473,0,0,0,17.288,11.655c.916.512,1.816,1.009,2.685,1.459.388-.466.76-.931,1.117-1.428a23.238,23.238,0,0,0,3.616-8.318c.124-.5.233-.993.326-1.474A24.942,24.942,0,0,0,137.92,97.5,23.163,23.163,0,0,0,129.617,103.881Z" transform="translate(-81.492 -16.195)" fill="url(#linear-gradient-5)"/>
      <path id="Path_16355" data-name="Path 16355" d="M91.967,114.969a28.912,28.912,0,0,1-1.148,2.716,38.789,38.789,0,0,1,4.951,7.2c.372.636,1.148,2.033.14,1.924a7.4,7.4,0,0,1-.854-.2,58.872,58.872,0,0,1-13.083-5.8,154.083,154.083,0,0,1-17.583-11.841,145,145,0,0,1-20.268-18.7,53.266,53.266,0,0,1-5.54-7.434,11.723,11.723,0,0,1-.869-1.614c-.388-.962.776-.791,1.086-.714a32.518,32.518,0,0,1,9.032,3.694,13.043,13.043,0,0,1,2.157-1.769,50.71,50.71,0,0,0-10.118-5.509c-3.585-1.366-6.378-1.055-7.372.574C30.6,80.579,34.67,88.711,42.631,97.975A24.94,24.94,0,0,0,78.837,125.91a88.509,88.509,0,0,0,15.038,5.416c3.709.947,6.27.854,7.263-.76,1.723-2.824-1.878-8.039-9.172-15.6Z" fill="url(#linear-gradient-5)"/>
    </g>
    <path id="_ionicons_svg_logo-sass" d="M118.971,137.908a10.747,10.747,0,0,0-4.834-7.536c.664.474,1.226.875-.013-.01-1.671-1.193-.786-.56-.011-.007-6.625-4.719-15.267-3.67-22.487-1.049-2.893-4.718-3.019-8.318-1.352-13.468.216-.651.069-1.012-.61-1.3-1.647-.7-4.02-.332-5.677.108a1.351,1.351,0,0,0-1.116,1.018c-1.2,5.636-4.884,10.8-8.1,15.549-2.262-4.336-2.083-7.692-.561-12.208a.783.783,0,0,0-.45-1.134c-1.688-.873-4.278-.444-6,.064-1.978.577-4.949,10.366-5.9,12.308-1.983,4.055-3.741,10.383-7.11,13.6-2.859-3.675,5.236-11.976,2.53-15.308a2.492,2.492,0,0,0-3.623-.143,9.286,9.286,0,0,0-.074-4.431,3.31,3.31,0,0,0-3.508-2.439c-4.183.122-7.867,3.211-10.377,6.136-2.389,2.814-8.69,4.563-12.077,6.26-5.819-5.069-18.416-10.449-18.744-19.081C8.528,105.106,20.116,98.5,27.852,94.557c10.061-5.138,25.562-11.532,36.994-5.913A6.515,6.515,0,0,1,68.264,96.4c-2.178,7.989-10.972,13.319-18.621,15.763a33.458,33.458,0,0,1-11.879,1.866c-5.336-.312-9.491-3.539-10.061-3.739-.476-.09-.439.526-.313.852,5.536,14.513,33.572,3.878,40.9-3.573a21.513,21.513,0,0,0,6.591-12.528c1.073-6.412-3.634-10.424-7.207-12.078-18.113-8.385-43.154,2.6-56.85,13.791C4.884,101.607-2.552,109.327.861,117.425c3.7,8.788,15.049,13.295,22.433,18.67-5.975,2.969-13.451,6.04-17.323,11.608-2.214,3.191-3,6.592-1.351,10.22,2.923,6.409,13.549,3.632,18.033.807a17.621,17.621,0,0,0,8.066-10.514,16.59,16.59,0,0,0-.9-11.51l6.645-3.361c-1.789,5.364-2.58,12.089,1.135,16.936,1.488,1.938,5.351,2.017,6.931.072,2.049-2.544,3.409-5.731,4.766-8.649-.159,2.179-.431,4.648.32,6.547.862,2.179,2.819,2.625,4.833,1.242,6.165-4.232,10.088-15.959,13.126-22.8a38.128,38.128,0,0,0,3.244,8.456,1.226,1.226,0,0,1-.185,1.673c-2.251,2.482-7.631,6.62-8.152,9.972a1.526,1.526,0,0,0,1.322,1.713c3.62.722,7.634-.588,10.573-2.575a7.324,7.324,0,0,0,3.311-8.256c-1.064-4.828,2.555-10.224,6-14.187A24.632,24.632,0,0,0,86.978,132c-3.039,2.669-7.574,6.454-6.923,10.912a2.7,2.7,0,0,0,3.374,2.263,15.585,15.585,0,0,0,9.152-5.148c2.1-2.523,1.346-5.277.431-8.051,5.549-1.584,11.163-1.9,16.7-.006a10.318,10.318,0,0,1,6.1,4.839c1.564,2.939.683,5.647-2.336,7.579-.764.489-1.293.891-1.034,1.1s1.139.491,3.088-.733a6.939,6.939,0,0,0,3.446-5.05,8.623,8.623,0,0,0-.006-1.8ZM26.256,143.78a13.429,13.429,0,0,1-5.387,9.558,12.171,12.171,0,0,1-6.165,2.811c-2.189.213-3.894-.34-4.04-2.611-.41-6.391,9.513-12.652,15.023-14.537a12.978,12.978,0,0,1,.565,4.786Zm23.967-16.843c-.907,5.186-3.447,14.493-7.512,18.21-.548.5-1.072.469-1.35-.179-2.4-5.593.853-17.125,7.69-18.906C49.855,125.856,50.353,126.2,50.223,126.937Zm16.345,19.008q2.937-3.125,5.874-6.26C72.684,142.015,68.357,146.651,66.568,145.945Zm18.763-4.114c-.546.3-1.772.585-1.819.194-.345-2.809,2.747-5.782,4.665-7.175A5.619,5.619,0,0,1,85.331,141.832Z" transform="translate(1299.156 614.174)" fill="#fff"/>
    <g id="_ionicons_svg_logo-angular" transform="translate(1472.174 661.173)">
      <path id="Path_16356" data-name="Path 16356" d="M213.573,183.364h15.876l-7.939-16.72Z" transform="translate(-147.598 -109.45)" fill="#fff"/>
      <path id="Path_16357" data-name="Path 16357" d="M73.91,32,32,46.969l8.63,50.895,33.284,17.963,33.259-17.963,8.654-50.895ZM90.379,91.876,85.4,81.4H62.422L57.447,91.876H49.963l23.95-52.392,23.95,52.392Z" fill="#fff"/>
    </g>
  </g>
</svg>
