<svg xmlns="http://www.w3.org/2000/svg" width="189.785" height="187.857" viewBox="0 0 189.785 187.857">
  <g id="settings" transform="translate(-0.002 -4.737)">
    <path id="Path_16622" data-name="Path 16622" d="M12.461,73.308a46.206,46.206,0,0,0,4.133,9.813l-4.988,6.291a5.164,5.164,0,0,0,.387,6.841l8.592,8.592a5.141,5.141,0,0,0,6.841.387l6.25-4.947a45.411,45.411,0,0,0,10.2,4.316l.937,8.042a5.15,5.15,0,0,0,5.11,4.561H62.077a5.15,5.15,0,0,0,5.11-4.561l.9-7.757a45.934,45.934,0,0,0,10.933-4.418l6.047,4.784a5.164,5.164,0,0,0,6.841-.387l8.592-8.592a5.141,5.141,0,0,0,.387-6.841l-4.7-5.965a44.868,44.868,0,0,0,4.5-10.75l7.248-.835a5.15,5.15,0,0,0,4.561-5.11V54.618a5.15,5.15,0,0,0-4.561-5.11l-7.146-.835a45.158,45.158,0,0,0-4.316-10.628l4.4-5.558a5.164,5.164,0,0,0-.387-6.841L91.9,17.075a5.141,5.141,0,0,0-6.841-.387l-5.4,4.275A45.311,45.311,0,0,0,68.49,16.281L67.676,9.3a5.15,5.15,0,0,0-5.11-4.561H50.411A5.15,5.15,0,0,0,45.3,9.3l-.814,6.983a45.122,45.122,0,0,0-11.462,4.846l-5.6-4.438a5.164,5.164,0,0,0-6.841.387l-8.592,8.592a5.141,5.141,0,0,0-.387,6.841l4.683,5.925a44.289,44.289,0,0,0-4.235,10.729l-7.492.855A5.15,5.15,0,0,0,0,55.127V67.281a5.15,5.15,0,0,0,4.561,5.11ZM56.5,40.427A20.095,20.095,0,1,1,36.4,60.522,20.124,20.124,0,0,1,56.5,40.427Z" fill="#3639a3"/>
    <path id="Path_16623" data-name="Path 16623" d="M557.277,301.7l-6.413-5.416a5.073,5.073,0,0,0-6.759.183l-3.543,3.319a36.619,36.619,0,0,0-9.447-3.054l-1-4.886a5.12,5.12,0,0,0-5.416-4.072l-8.368.713a5.1,5.1,0,0,0-4.662,4.907l-.163,4.968a36.717,36.717,0,0,0-9.019,4.744l-4.235-2.81a5.087,5.087,0,0,0-6.7.957l-5.416,6.454a5.073,5.073,0,0,0,.183,6.759l3.706,3.95a37.947,37.947,0,0,0-2.728,9.04l-5.293,1.079a5.12,5.12,0,0,0-4.072,5.416l.713,8.368a5.1,5.1,0,0,0,4.907,4.662l5.721.183a37.388,37.388,0,0,0,4.052,7.737l-3.2,4.825a5.087,5.087,0,0,0,.957,6.7l6.413,5.416a5.073,5.073,0,0,0,6.76-.183l4.194-3.929a36.762,36.762,0,0,0,8.612,2.81l1.161,5.741a5.12,5.12,0,0,0,5.416,4.072l8.368-.713a5.1,5.1,0,0,0,4.662-4.907l.183-5.619a37.634,37.634,0,0,0,8.612-4.357l4.622,3.054a5.087,5.087,0,0,0,6.7-.957l5.416-6.413a5.073,5.073,0,0,0-.183-6.759l-3.726-3.95a36.667,36.667,0,0,0,2.932-9.081l5.09-1.038a5.12,5.12,0,0,0,4.072-5.416l-.713-8.368a5.1,5.1,0,0,0-4.907-4.662L559.66,321a36.974,36.974,0,0,0-4.255-8.388l2.789-4.194A5.061,5.061,0,0,0,557.277,301.7Zm-31.536,48.374a16.448,16.448,0,1,1,15-17.774A16.45,16.45,0,0,1,525.741,350.075Z" transform="translate(-380.618 -225.4)" fill="#ff7364"/>
    <path id="Path_16624" data-name="Path 16624" d="M186.919,588.4a5.086,5.086,0,0,0-4.561,5.008l-.061,5.151a5.074,5.074,0,0,0,4.438,5.11l3.787.488a29.377,29.377,0,0,0,2.687,6.576l-2.443,3.013a5.076,5.076,0,0,0,.305,6.759l3.6,3.685a5.083,5.083,0,0,0,6.759.468l3.033-2.341a29.737,29.737,0,0,0,6.759,2.952l.407,3.909a5.086,5.086,0,0,0,5.008,4.561l5.151.061a5.074,5.074,0,0,0,5.11-4.438l.468-3.705a30.587,30.587,0,0,0,7.329-2.85l2.85,2.3a5.076,5.076,0,0,0,6.76-.305L248,621.2a5.083,5.083,0,0,0,.468-6.759l-2.179-2.83a29.526,29.526,0,0,0,3.095-7.126l3.38-.346a5.086,5.086,0,0,0,4.561-5.008l.061-5.151a5.074,5.074,0,0,0-4.438-5.11l-3.3-.427a30.672,30.672,0,0,0-2.789-7.126l2.056-2.525a5.076,5.076,0,0,0-.305-6.759l-3.6-3.685a5.083,5.083,0,0,0-6.76-.468l-2.464,1.893a29.944,29.944,0,0,0-7.411-3.217l-.326-3.2a5.086,5.086,0,0,0-5.008-4.56l-5.151-.061a5.074,5.074,0,0,0-5.11,4.438l-.407,3.176a30.75,30.75,0,0,0-7.675,3.135l-2.545-2.077a5.077,5.077,0,0,0-6.76.305l-3.705,3.624a5.083,5.083,0,0,0-.468,6.759l2.178,2.81a29.8,29.8,0,0,0-2.911,7.126Zm33.247-5.823a13.4,13.4,0,1,1-13.56,13.234A13.408,13.408,0,0,1,220.166,582.575Z" transform="translate(-145.181 -441.206)" fill="rgba(54,57,163,0.2)"/>
  </g>
</svg>
