<svg xmlns="http://www.w3.org/2000/svg" width="160.878" height="87.529" viewBox="0 0 160.878 87.529">
  <g id="sign" transform="translate(-119.044 -281.295)">
    <path id="Path_33" data-name="Path 33" d="M148.467,368.269c11.768-11.132,24.985-41.844,27-50.707,1.793-7.879-3.357,13.164-2.653,33.7.174,5.068,2.087,1.394-10.83-.445-11.566-1.646-22.811,2.336-42.349,12.371-3.195,1.641,32.541-16.061,70.191-36.807,23.228-12.8,39.841-16.943,89.558-44.554" transform="translate(0)" fill="none" stroke="#000" stroke-linecap="round" stroke-linejoin="round" stroke-width="0.786"/>
    <path id="Path_34" data-name="Path 34" d="M156.029,320.64c-4.1-5.112-10.721,1.139-9.414,8.723,1.657,9.62,13.1-3.213,14.095-8.067.413-2.007.614-4.833-1.646-3.943-5.517,2.172-4.035,15.38,1.579,11.738,4.915-3.188,10.4-11.476,9.223-13.987-1.164-2.485-4.588,10.8,1.088,8.255s10.261-11.489,9.6-13.729-5.66,6.438-1.285,8.48c2.9,1.352,10.008-7.628,11.087-9.854,2.171-4.481-2.851-6.128-1.956,2.163.984,9.115,15.87-10.834,12.9-10.242-3.53.7-1.623,10.9,2.358,7.415s8.71-10.325,7.407-11.33-4.016,3.44.055,6.881c4.93,4.166,2.535,10.955-1.2,11.2-1.693.109-4.807-1.315-1.148-6.608,4.82-6.973,10.012-15.143,11.455-14.924a22.281,22.281,0,0,0-2.623,6.1c-.446,2.61,1.324,4.721,4.22,3.149,4.19-2.275,4.695-5.176,3.866-7.195s-3.712-3.911-6.119-.66" transform="translate(33.148 13.023)" fill="none" stroke="#000" stroke-linecap="round" stroke-linejoin="round" stroke-width="0.786"/>
  </g>
</svg>
