<svg xmlns="http://www.w3.org/2000/svg" width="753.525" height="652.334" viewBox="0 0 753.525 652.334">
  <g id="testimonials" transform="translate(0.527 0.522)">
    <path id="Path_16196" data-name="Path 16196" d="M575.968,636.049C692.315,519.7,704.8,322.416,602.623,220.151c-88.048-88-296.663-157.438-486.176-46.955C44.391,218.863-5.052,276.526.412,390.873,12.5,487.762,42.349,515.66,26.266,574.477q-8.573,28.209-17.1,61.794c-4.931,22.923,0,39.4,13.327,44.868,14.527,4.887,34.784,4.176,56.329,1.377,17.5-2.488,36.961-8.263,57.085-8.573C183.35,711.57,420.663,791.534,575.968,636.049Z" transform="translate(81.102 -76.42)" fill="#3639a4"/>
    <path id="Path_16197" data-name="Path 16197" d="M720.279,368.109l10.675-1.877h0l10.667-1.915a12.134,12.134,0,0,0,9.689-13.567A221.386,221.386,0,0,1,920.458,107.617a12.134,12.134,0,0,0,9.351-13.8l-1.914-10.669-1.922-10.708a11.2,11.2,0,0,0-13.389-9.118,266.153,266.153,0,0,0-205.469,295.4A11.2,11.2,0,0,0,720.279,368.109Z" transform="translate(-704.711 -63.052)" fill="#fff" stroke="#d6d9de" stroke-width="1"/>
    <path id="Path_16198" data-name="Path 16198" d="M773.506,425.283c7.436-6.322,18.344-9.3,25.1-7.974,6.849,2.041,13.238,7.543,14.843,14.435.766,6.667-6.213,19.992-20.831,19.7-7.685-.579-14-8.775-19.081-15.187C770,431.549,770.322,428.353,773.506,425.283Z" transform="translate(-637.867 -151.949)" fill="#ffb0a3"/>
  </g>
</svg>
