<svg xmlns="http://www.w3.org/2000/svg" xmlns:xlink="http://www.w3.org/1999/xlink" width="753.553" height="652.314" viewBox="0 0 753.553 652.314">
  <defs>
    <linearGradient id="linear-gradient" y1="0.955" x2="0.8" y2="0.035" gradientUnits="objectBoundingBox">
      <stop offset="0" stop-color="#23218e"/>
      <stop offset="1" stop-color="#d72f86"/>
    </linearGradient>
  </defs>
  <g id="testimonials-grad" transform="translate(0.553 0.502)">
    <path id="Path_16196" data-name="Path 16196" d="M575.968,636.049C692.315,519.7,704.8,322.416,602.623,220.151c-88.048-88-296.663-157.438-486.176-46.955C44.391,218.863-5.052,276.526.412,390.873,12.5,487.762,42.349,515.66,26.266,574.477q-8.573,28.209-17.1,61.794c-4.931,22.923,0,39.4,13.327,44.868,14.527,4.887,34.784,4.176,56.329,1.377,17.5-2.488,36.961-8.263,57.085-8.573C183.35,711.57,420.663,791.534,575.968,636.049Z" transform="translate(81.102 -76.42)" fill="url(#linear-gradient)"/>
    <path id="Path_16197" data-name="Path 16197" d="M720.279,368.109l10.675-1.877h0l10.667-1.915a12.134,12.134,0,0,0,9.689-13.567A221.386,221.386,0,0,1,920.458,107.617a12.134,12.134,0,0,0,9.351-13.8L927.9,83.148,925.973,72.44a11.2,11.2,0,0,0-13.389-9.118c-134.76,30.241-224,158.537-205.469,295.4a11.2,11.2,0,0,0,13.164,9.387Z" transform="translate(-704.711 -63.052)" fill="#fff" stroke="#d6d9de" stroke-width="1"/>
    <path id="Path_16198" data-name="Path 16198" d="M773.506,425.283c7.436-6.322,18.344-9.3,25.1-7.974,6.849,2.041,13.238,7.543,14.843,14.435.766,6.667-6.213,19.992-20.831,19.7-7.685-.579-14-8.775-19.081-15.187C770,431.549,770.322,428.353,773.506,425.283Z" transform="translate(-637.867 -151.949)" fill="#fff" style="mix-blend-mode: overlay;isolation: isolate"/>
  </g>
</svg>
