<svg xmlns="http://www.w3.org/2000/svg" width="753.528" height="652.334" viewBox="0 0 753.528 652.334">
  <g id="testimonials-white" transform="translate(-922.472 -4091.478)">
    <g id="footer-element-left" transform="translate(923 4092)">
      <path id="Path_16196" data-name="Path 16196" d="M575.968,636.049C692.315,519.7,704.8,322.416,602.623,220.151c-88.048-88-296.663-157.438-486.176-46.955C44.391,218.863-5.052,276.526.412,390.873,12.5,487.762,42.349,515.66,26.266,574.477q-8.573,28.209-17.1,61.794c-4.931,22.923,0,39.4,13.327,44.868,14.527,4.887,34.784,4.176,56.329,1.377,17.5-2.488,36.961-8.263,57.085-8.573C183.35,711.57,420.663,791.534,575.968,636.049Z" transform="translate(81.102 -76.42)" fill="#fff"/>
      <path id="Path_16197" data-name="Path 16197" d="M720.279,368.109l10.675-1.877h0l10.667-1.915a12.134,12.134,0,0,0,9.689-13.567A221.386,221.386,0,0,1,920.458,107.617a12.134,12.134,0,0,0,9.351-13.8l-1.914-10.669-1.922-10.708a11.2,11.2,0,0,0-13.389-9.118,266.153,266.153,0,0,0-205.469,295.4A11.2,11.2,0,0,0,720.279,368.109Z" transform="translate(-704.711 -63.052)" fill="#fff" stroke="#d6d9de" stroke-width="1"/>
      <path id="Path_16198" data-name="Path 16198" d="M773.506,425.283c7.436-6.322,18.344-9.3,25.1-7.974,6.849,2.041,13.238,7.543,14.843,14.435.766,6.667-6.213,19.992-20.831,19.7-7.685-.579-14-8.775-19.081-15.187C770,431.549,770.322,428.353,773.506,425.283Z" transform="translate(-637.867 -151.949)" fill="#ffb0a3"/>
      <path id="Path_16226" data-name="Path 16226" d="M778.12,437.693c21.128-15.8,52.122-23.228,71.329-19.921,19.461,5.1,37.615,18.845,42.175,36.064,2.177,16.656-17.654,49.945-59.188,49.21C810.6,501.6,792.659,481.124,778.218,465.1,768.155,453.346,769.074,445.364,778.12,437.693Z" transform="matrix(-0.995, 0.105, -0.105, -0.995, 1272.559, 555.686)" fill="#ffb0a3"/>
    </g>
    <g id="text-quotes-_1_" data-name="text-quotes- (1)" transform="translate(1039.778 4634.736)">
      <path id="Path_16227" data-name="Path 16227" d="M36.978,8.264A11.77,11.77,0,0,0,25.23,20.151,11.947,11.947,0,0,0,37.187,32.039c.066,0,.165-.009.23-.01a15.058,15.058,0,0,1-9.424,3.312,2.964,2.964,0,0,0-2.963,2.972,2.75,2.75,0,0,0,2.7,2.972A20.926,20.926,0,0,0,48.588,20.151v-.008A11.65,11.65,0,0,0,36.978,8.264Z" transform="translate(2.829)" fill="#3639a3"/>
      <path id="Path_16228" data-name="Path 16228" d="M11.965,8.264A11.777,11.777,0,0,0,.208,20.151,11.943,11.943,0,0,0,12.161,32.039c.066,0,.163-.009.228-.01a15.061,15.061,0,0,1-9.425,3.312A2.965,2.965,0,0,0,0,38.313a2.763,2.763,0,0,0,2.715,2.972A20.94,20.94,0,0,0,23.591,20.151v-.008A11.664,11.664,0,0,0,11.965,8.264Z" fill="#3639a3"/>
    </g>
  </g>
</svg>
