<svg xmlns="http://www.w3.org/2000/svg" width="685.386" height="488.751" viewBox="0 0 685.386 488.751">
  <g id="about-illustration3" transform="translate(-289.613 -1095.124)">
    <path id="Path_16374" data-name="Path 16374" d="M62,0H528a62,62,0,0,1,62,62V377a62,62,0,0,1-62,62H62A62,62,0,0,1,0,377V62A62,62,0,0,1,62,0Z" transform="matrix(0.996, 0.087, -0.087, 0.996, 350.888, 1095.124)" fill="#ffb0a3"/>
    <g id="Group_509" data-name="Group 509" transform="matrix(-0.966, -0.259, 0.259, -0.966, 369.527, 6227.491)">
      <path id="Path_16337" data-name="Path 16337" d="M6413.431,4860.5c2.262-1.175,9.615-2.9,13.388,8.409s3.126,15.7-4.416,11.932-11.532-8.367-12.809-12.515S6411.172,4861.675,6413.431,4860.5Z" transform="translate(-5283.564 10.633)" fill="#ec9385"/>
      <path id="Path_16338" data-name="Path 16338" d="M6413.431,4860.5c2.262-1.175,9.615-2.9,13.388,8.409s3.126,15.7-4.416,11.932-11.532-8.367-12.809-12.515S6411.172,4861.675,6413.431,4860.5Z" transform="translate(-5255.362 20.034)" fill="#ec9385"/>
      <path id="Path_16339" data-name="Path 16339" d="M6413.431,4860.5c2.262-1.175,9.615-2.9,13.388,8.409s3.126,15.7-4.416,11.932-11.532-8.367-12.809-12.515S6411.172,4861.675,6413.431,4860.5Z" transform="translate(-5217.758 26.749)" fill="#ec9385"/>
      <path id="Path_16340" data-name="Path 16340" d="M6413.431,4860.5c2.262-1.175,9.615-2.9,13.388,8.409s3.126,15.7-4.416,11.932-11.532-8.367-12.809-12.515S6411.172,4861.675,6413.431,4860.5Z" transform="translate(-5225.816 60.324)" fill="#ec9385"/>
      <path id="Path_16341" data-name="Path 16341" d="M6413.431,4860.5c2.262-1.175,9.615-2.9,13.388,8.409s3.126,15.7-4.416,11.932-11.532-8.367-12.809-12.515S6411.172,4861.675,6413.431,4860.5Z" transform="translate(-5263.42 49.58)" fill="#ec9385"/>
      <path id="Path_16342" data-name="Path 16342" d="M6413.431,4860.5c2.262-1.175,9.615-2.9,13.388,8.409s3.126,15.7-4.416,11.932-11.532-8.367-12.809-12.515S6411.172,4861.675,6413.431,4860.5Z" transform="translate(-5299.68 44.208)" fill="#ec9385"/>
      <path id="Path_16343" data-name="Path 16343" d="M6413.431,4860.5c2.262-1.175,9.615-2.9,13.388,8.409s3.126,15.7-4.416,11.932-11.532-8.367-12.809-12.515S6411.172,4861.675,6413.431,4860.5Z" transform="translate(-5309.082 72.411)" fill="#ec9385"/>
      <path id="Path_16344" data-name="Path 16344" d="M6413.431,4860.5c2.262-1.175,9.615-2.9,13.388,8.409s3.126,15.7-4.416,11.932-11.532-8.367-12.809-12.515S6411.172,4861.675,6413.431,4860.5Z" transform="translate(-5279.536 83.155)" fill="#ec9385"/>
      <path id="Path_16345" data-name="Path 16345" d="M6413.431,4860.5c2.262-1.175,9.615-2.9,13.388,8.409s3.126,15.7-4.416,11.932-11.532-8.367-12.809-12.515S6411.172,4861.675,6413.431,4860.5Z" transform="translate(-5232.532 93.899)" fill="#ec9385"/>
      <path id="Path_16346" data-name="Path 16346" d="M6413.431,4860.5c2.262-1.175,9.615-2.9,13.388,8.409s3.126,15.7-4.416,11.932-11.532-8.367-12.809-12.515S6411.172,4861.675,6413.431,4860.5Z" transform="translate(-5194.926 71.068)" fill="#ec9385"/>
      <path id="Path_16347" data-name="Path 16347" d="M6413.431,4860.5c2.262-1.175,9.615-2.9,13.388,8.409s3.126,15.7-4.416,11.932-11.532-8.367-12.809-12.515S6411.172,4861.675,6413.431,4860.5Z" transform="translate(-5338.628 40.179)" fill="#ec9385"/>
      <path id="Path_16348" data-name="Path 16348" d="M6413.431,4860.5c2.262-1.175,9.615-2.9,13.388,8.409s3.126,15.7-4.416,11.932-11.532-8.367-12.809-12.515S6411.172,4861.675,6413.431,4860.5Z" transform="translate(-5321.168 5.261)" fill="#ec9385"/>
      <path id="Path_16349" data-name="Path 16349" d="M6413.431,4860.5c2.262-1.175,9.615-2.9,13.388,8.409s3.126,15.7-4.416,11.932-11.532-8.367-12.809-12.515S6411.172,4861.675,6413.431,4860.5Z" transform="translate(-5314.454 -31)" fill="#ec9385"/>
      <path id="Path_16350" data-name="Path 16350" d="M6413.431,4860.5c2.262-1.175,9.615-2.9,13.388,8.409s3.126,15.7-4.416,11.932-11.532-8.367-12.809-12.515S6411.172,4861.675,6413.431,4860.5Z" transform="translate(-5280.878 -25.628)" fill="#ec9385"/>
      <path id="Path_16351" data-name="Path 16351" d="M6413.431,4860.5c2.262-1.175,9.615-2.9,13.388,8.409s3.126,15.7-4.416,11.932-11.532-8.367-12.809-12.515S6411.172,4861.675,6413.431,4860.5Z" transform="translate(-5344 75.097)" fill="#ec9385"/>
    </g>
    <g id="Group_548" data-name="Group 548" transform="translate(289.614 1105)">
      <circle id="Ellipse_665" data-name="Ellipse 665" cx="58.702" cy="58.702" r="58.702" transform="translate(517.503 298.672)" fill="#2f2e41"/>
      <path id="Path_16506" data-name="Path 16506" d="M877.685,624.8l17.548-3.177-5.692-36.642-17.548,3.177Z" transform="translate(-278.808 -187.039)" fill="#2f2e41"/>
      <rect id="Rectangle_801" data-name="Rectangle 801" width="17.833" height="31.951" transform="translate(581.328 435.732) rotate(169.739)" fill="#2f2e41"/>
      <ellipse id="Ellipse_666" data-name="Ellipse 666" cx="14.861" cy="5.573" rx="14.861" ry="5.573" transform="matrix(0.763, -0.646, 0.646, 0.763, 554.553, 446.63)" fill="#2f2e41"/>
      <ellipse id="Ellipse_667" data-name="Ellipse 667" cx="14.861" cy="5.573" rx="14.861" ry="5.573" transform="matrix(0.763, -0.646, 0.646, 0.763, 588.918, 445.61)" fill="#2f2e41"/>
      <circle id="Ellipse_668" data-name="Ellipse 668" cx="20.063" cy="20.063" r="20.063" transform="translate(552.033 322.952)" fill="#fff"/>
      <circle id="Ellipse_669" data-name="Ellipse 669" cx="6.688" cy="6.688" r="6.688" transform="translate(557.162 329.136)" fill="#3f3d56"/>
      <path id="Path_16507" data-name="Path 16507" d="M970.5,529.585c.883-21.732-17.847-40.14-41.835-41.114s-44.149,15.853-45.031,37.585,15.792,26.67,39.779,27.644S969.611,551.317,970.5,529.585Z" transform="translate(-347.983 -236.072)" fill="#3639a3"/>
      <ellipse id="Ellipse_670" data-name="Ellipse 670" cx="9.214" cy="29.351" rx="9.214" ry="29.351" transform="matrix(0.223, -0.975, 0.975, 0.223, 491.333, 349.103)" fill="#2f2e41"/>
      <ellipse id="Ellipse_671" data-name="Ellipse 671" cx="9.214" cy="29.351" rx="9.214" ry="29.351" transform="matrix(0.223, -0.975, 0.975, 0.223, 606.562, 368.263)" fill="#2f2e41"/>
      <path id="Path_16508" data-name="Path 16508" d="M954.5,673.534a13.375,13.375,0,1,1-26.322,4.765c-1.316-7.269,4.3-9.841,11.573-11.157S953.189,666.266,954.5,673.534Z" transform="translate(-362.178 -293.027)" fill="#fff"/>
      <path id="Path_16509" data-name="Path 16509" d="M397.567,580.909l-2.041,26.53,19.728,2.041-4.762-31.972Z" transform="translate(-126.464 -184.65)" fill="#ffb9b9"/>
      <path id="Path_16510" data-name="Path 16510" d="M368.927,344.118h0c16.816,5.182,25.785,24.511,20.035,43.172L381.655,411l-7.292-2.247-1.515-10.086-1.652,9.11-46.87-14.444-1.377-9.169-1.5,8.282-5.277-1.626,5.737-18.616C328.525,350.729,349.576,338.154,368.927,344.118Z" transform="translate(-166.557 -189.456)" fill="#2f2e41"/>
      <path id="Path_16511" data-name="Path 16511" d="M349.286,449.355a11.042,11.042,0,0,0-12.825,10.156c-.293,4.111,1.126,8.923,7.5,12.487,13.611,7.612,43.126,24.207,43.126,24.207L443.4,507.021s28.458,22.708,32.023,9.792-27-20.8-27-20.8l-51.737-13.268L363.718,458.9S357.677,450.836,349.286,449.355Z" transform="translate(-173.033 -223.53)" fill="#fff"/>
      <path id="Path_16512" data-name="Path 16512" d="M232.636,407.812l5.66,15.952,33.962-8.233L263.51,403.7Z" transform="translate(-74.382 -129.076)" fill="#ffb9b9"/>
      <path id="Path_16513" data-name="Path 16513" d="M87.032,620.814,61.3,618.241l18.01-17.495,12.864,8.747Z" transform="translate(-19.601 -192.08)" fill="#ffb9b9"/>
      <circle id="Ellipse_672" data-name="Ellipse 672" cx="21.131" cy="21.131" r="21.131" transform="translate(175.291 165.785)" fill="#fff"/>
      <path id="Path_16514" data-name="Path 16514" d="M344.652,397.1s-11.835,13.893-18.01,15.952-21.612,21.612-13.894,34.476,36.02-3.087,36.02-3.087l-1.029-12.864s11.835-20.583,14.408-22.127S344.652,397.1,344.652,397.1Z" transform="translate(-164.786 -206.87)" fill="#fff"/>
      <path id="Path_16515" data-name="Path 16515" d="M342.44,429.98c-7.868-11.846-26.117-9.726-30.644,3.754q-.121.36-.231.732c-4.117,13.893,2.058,37.564,2.058,37.564l9.262,27.787s24.185-11.321,41.68,7.719l-2.573-19.554s7.2-16.466-2.058-28.3C354.04,452.148,348.562,439.2,342.44,429.98Z" transform="translate(-164.632 -214.906)" fill="#575a89"/>
      <path id="Path_16516" data-name="Path 16516" d="M152.346,727.342l-1.029,7.719s-33.962-6.689-41.166-.515-7.2,10.291-12.864,6.175c-2.406-1.75-.35-6.009,2.81-10.328a51.988,51.988,0,0,1,19.16-15.909c8.492-4.158,20.225-10.2,20.225-11.841,0-2.573,9.262-10.291,12.864-6.175S162.637,711.9,162.637,711.9Z" transform="translate(-96.235 -302.21)" fill="#2f2e41"/>
      <path id="Path_16517" data-name="Path 16517" d="M487.554,720.968s-7.543,26.742-4.8,28.113,8.228,5.485,16.456,5.485c4.862,0,12.118,2.634,17.241,4.788a41.561,41.561,0,0,0,18.943,3.259c4.319-.3,7.991-1.31,7.7-3.933-.686-6.171-13.714-7.543-13.714-7.543L515.667,733.31S513.267,722,511.21,722a4.505,4.505,0,0,1-3.086-1.028Z" transform="translate(-219.627 -310.422)" fill="#2f2e41"/>
      <path id="Path_16518" data-name="Path 16518" d="M362.138,353.06a16.709,16.709,0,0,1,14.581-2.547l.6.184c11.525,3.552,17.655,16.86,13.69,29.725h0l-3.862-1.19.839-4.939-2.377,4.465L362.7,371.7l-.681-4.608-.758,4.164-4.506-1.389q-7.981,14.691-.59,34.12l-7.676-2.365-1.363-9.215-1.516,8.328-14.632-4.509,2.815-19.362C338.059,363.029,349.713,353.774,362.138,353.06Z" transform="translate(-171.292 -191.758)" fill="#2f2e41"/>
      <path id="Path_16526" data-name="Path 16526" d="M0,0H174.828V327.207H0Z" transform="translate(285.444 36.054)" fill="#fff"/>
      <path id="Path_16519" data-name="Path 16519" d="M732.529,481.4H514.844V117.459H732.529ZM516.2,480.04H731.168V118.82H516.2Z" transform="translate(-230.08 -117.459)" fill="#3f3d56"/>
      <rect id="Rectangle_803" data-name="Rectangle 803" width="655.441" height="1.524" transform="translate(29.945 450.907)" fill="#3f3d56"/>
      <path id="Path_16520" data-name="Path 16520" d="M718.468,327.478H553.844V176.459H718.468ZM555.2,326.117h161.9V177.82H555.2Z" transform="translate(-242.549 -136.324)" fill="#3f3d56"/>
      <path id="Path_16521" data-name="Path 16521" d="M458.863,173.429l-.962-.962,51.308-51.308,30.125,30.125,81.491-81.491.962.962-82.453,82.453-30.125-30.125Z" transform="translate(-146.407 -22.315)" fill="#3f3d56"/>
      <circle id="Ellipse_673" data-name="Ellipse 673" cx="10.204" cy="10.204" r="10.204" transform="translate(352.79 89.795)" fill="#3639a3"/>
      <circle id="Ellipse_674" data-name="Ellipse 674" cx="10.204" cy="10.204" r="10.204" transform="translate(383.402 117.686)" fill="#3639a3"/>
      <circle id="Ellipse_675" data-name="Ellipse 675" cx="10.204" cy="10.204" r="10.204" transform="translate(465.034 37.414)" fill="#3639a3"/>
      <rect id="Rectangle_804" data-name="Rectangle 804" width="123.808" height="12.245" transform="translate(331.702 233.331)" fill="#3f3d56"/>
      <path id="Path_16522" data-name="Path 16522" d="M593.75,464.142H536.608V407h38.775v1.361H537.968v54.421H592.39V435.571h1.36Z" transform="translate(-171.573 -130.133)" fill="#3f3d56"/>
      <path id="Path_16523" data-name="Path 16523" d="M572.494,447.214,560.408,431.1l4.354-3.265,8.322,11.1,38.257-38.257,3.848,3.848Z" transform="translate(-179.183 -128.109)" fill="#6c63ff"/>
      <path id="Path_16524" data-name="Path 16524" d="M326.427,544.918s-12.35-16.466-37.564-6.689l-4.631,12.864s-26.758,21.1-11.835,53.516l-1.029,48.37-4.117,13.894L192.638,660.7l-2.573,23.67,13.379,1.029s75.643,29.845,87.477,11.321,36.535-91.594,36.535-91.594l64.068,9.594s-1.875,20.051.183,22.624,1.029,13.379,2.058,15.437.171,7.409.171,7.409l21.258-.7V649.194s2.573-13.894,2.573-17.5,15.437-50.943-11.321-55.059-72.816-11.652-72.816-11.652Z" transform="translate(-126.236 -251.003)" fill="#2f2e41"/>
      <path id="Path_16525" data-name="Path 16525" d="M343.135,427.48a12.757,12.757,0,0,0-17.672-6.7c-4.251,2.145-8.183,6.4-7.942,14.836.515,18.01,1.544,57.118,1.544,57.118L341.7,554.995s-5.66,41.68,9.262,37.564,4.631-39.108,4.631-39.108l-17.5-59.176,4.117-46.826S346.637,436.679,343.135,427.48Z" transform="translate(-166.985 -213.996)" fill="#fff"/>
    </g>
  </g>
</svg>
