<svg xmlns="http://www.w3.org/2000/svg" width="763.644" height="537.066" viewBox="0 0 763.644 537.066">
  <g id="home2-illustration" transform="translate(-981.356 -1294.81)">
    <path id="Path_16374" data-name="Path 16374" d="M62,0H528a62,62,0,0,1,62,62V377a62,62,0,0,1-62,62H62A62,62,0,0,1,0,377V62A62,62,0,0,1,62,0Z" transform="matrix(0.996, 0.087, -0.087, 0.996, 1157.245, 1343.124)" fill="#a20c48"/>
    <g id="undraw_personal_information_962o" transform="translate(981.356 1294.81)">
      <path id="Path_16362" data-name="Path 16362" d="M52,70V322.85H304.85V70ZM180.486,317.353a6.871,6.871,0,1,1,6.871-6.871A6.871,6.871,0,0,1,180.486,317.353Z" transform="translate(-52 -70)" fill="#3639a3"/>
      <path id="Path_16364" data-name="Path 16364" d="M987.081,166.879l19.692-6.14,1.7-17.343s-47.9-18.092-63.208,13.91c-5.407,11.3-12.221,18.086-18.774,22.137-9.027,5.58-20.154,6.235-30.123,2.594-33.194-12.123-41.011,22.352-41.011,22.352s2.87,4.908,23.331,6.114c10.183.6,18.515,8.263,24.317,15.811,12.423,16.161,37.941,11.491,44.207-7.907q.151-.469.3-.95c9.788-32.065,54.35-6.535,54.35-6.535l2.845-29.042Z" transform="translate(-303.376 -91.372)" fill="#412e2e"/>
      <circle id="Ellipse_644" data-name="Ellipse 644" cx="24.119" cy="24.119" r="24.119" transform="translate(525.407 105.757)" fill="#412e2e"/>
      <circle id="Ellipse_645" data-name="Ellipse 645" cx="64.317" cy="64.317" r="64.317" transform="translate(473.149 129.876)" fill="#412e2e"/>
      <circle id="Ellipse_646" data-name="Ellipse 646" cx="44.218" cy="44.218" r="44.218" transform="translate(491.238 173.423)" fill="#fff"/>
      <path id="Path_16365" data-name="Path 16365" d="M805.955,433.07l8.04,42.878,40.2-5.36s-6.7-33.5-2.68-42.878Z" transform="translate(-287.918 -181.93)" fill="#fff"/>
      <path id="Path_16366" data-name="Path 16366" d="M494.648,670.635s-45.558-26.8-49.578-8.04,45.558,26.8,45.558,26.8Z" transform="translate(-174.922 -253.342)" fill="#fff"/>
      <path id="Path_16367" data-name="Path 16367" d="M899.224,291.3s-32.158-24.119-45.558-14.739,36.178,40.2,41.538,37.518S899.224,291.3,899.224,291.3Z" transform="translate(-302.131 -133.957)" fill="#fff"/>
      <path id="Path_16368" data-name="Path 16368" d="M819.244,456.963,771.006,465v21.439s-45.558,14.739-45.558,21.439-12.059,32.158-12.059,32.158-29.479,21.439-5.36,46.9c0,0,9.38,14.739,2.68,16.079s-21.439,5.36-14.739,10.719S803.165,655.274,811.2,652.594s69.677-97.815,69.677-121.934S855.422,471.7,855.422,471.7l-29.479-4.02Z" transform="translate(-252.969 -191.084)" fill="#c1a0a0"/>
      <path id="Path_16369" data-name="Path 16369" d="M669.223,529.075s-18.759-2.68-25.459,20.1-29.479,96.475-29.479,96.475-81.737-1.34-103.175-21.439l-9.38,30.819S625,699.247,635.725,691.207s57.617-138.013,57.617-138.013Z" transform="translate(-192.724 -213.618)" fill="#c1a0a0"/>
      <path id="Path_16370" data-name="Path 16370" d="M917.778,424.447l4.02-4.02s50.917-54.937,49.578-68.337c0,0-26.8-33.5-60.3-24.119,0,0-14.739-36.178,8.04-34.838s107.2-4.02,105.857,34.839-81.738,158.113-81.738,158.113Z" transform="translate(-319.344 -139.809)" fill="#c1a0a0"/>
      <path id="Path_16371" data-name="Path 16371" d="M803.852,781.66a228.44,228.44,0,0,1-37.034,3.009A225.688,225.688,0,0,1,654.43,754.9l7.964-16.126L687.74,687.4l1.127-2.274,18.462,5.565,92.751,27.937.254,4.281Z" transform="translate(-240.505 -262.479)" fill="#412e2e"/>
      <ellipse id="Ellipse_647" data-name="Ellipse 647" cx="28.139" cy="44.218" rx="28.139" ry="44.218" transform="translate(486.543 195.867) rotate(-71.208)" fill="#412e2e"/>
      <path id="Path_16372" data-name="Path 16372" d="M238.853,410.742c9.312-17.061,31.615-27.864,49.859-18.127,8.212,4.383,14.74,12.136,16.813,21.3,2.408,10.645-2.662,20.8-7.893,29.739-2.839,4.854-5.95,9.61-8.3,14.73-2.433,5.3-4.172,11.431-2.34,17.2,1.65,5.2,5.784,8.976,10.312,11.754a76.833,76.833,0,0,0,15.845,7.074,93.268,93.268,0,0,0,35.375,4.577,96.74,96.74,0,0,0,17.631-2.85c6.145-1.566,12.175-3.552,18.33-5.081,10.276-2.553,21.993-3.822,31.737,1.307,9.466,4.983,13.7,15.4,15.014,25.542,2.42,18.72-5,38.148-18.4,51.258-6.43,6.29-14.521,11.486-23.334,13.612-7.69,1.855-17.563,1.736-23.682-4.012-6.829-6.415-5.225-16.7.2-23.471,6.923-8.636,18.65-10.71,29.115-10.92,11.9-.239,23.8,1.534,35.7.432a54.829,54.829,0,0,0,16.881-4.072,42.778,42.778,0,0,0,12.722-8.609A55.917,55.917,0,0,0,475.192,505.6c2.966-11.887,2.32-24.379.017-36.319a163.8,163.8,0,0,0-4.733-18.213c-.8-2.521-4.776-1.444-3.975,1.1,7.091,22.484,11.044,48.483-2.656,69.359a41.3,41.3,0,0,1-24.7,17.777c-11.857,2.947-24.3,1.49-36.353,1.052-11.462-.417-24.046.033-33.873,6.708-8.06,5.476-13.7,15.89-11.262,25.723,2.349,9.482,11.462,14.289,20.575,15.032,9.562.779,18.972-2.43,27-7.449,16.705-10.439,27.813-28.8,30.137-48.262,1.211-10.142-.021-21.067-4.62-30.273a29.637,29.637,0,0,0-10.888-12.135,35.82,35.82,0,0,0-15.512-4.78c-12.332-1.136-24.18,3.1-35.878,6.337a99.485,99.485,0,0,1-18.3,3.492,91.372,91.372,0,0,1-18.051-.294,88.879,88.879,0,0,1-17.491-3.882,70.012,70.012,0,0,1-15.877-7.178c-4.387-2.806-8.181-6.823-8.4-12.3-.234-5.937,2.759-11.491,5.607-16.5,5.625-9.888,12.571-19.56,14.04-31.135,1.285-10.125-2.789-20.106-9.824-27.328a36.945,36.945,0,0,0-27.3-11.327c-10.439.3-20.434,4.838-28.112,11.81a46.282,46.282,0,0,0-9.479,12.045c-1.271,2.33,2.287,4.413,3.56,2.081Z" transform="translate(-109.27 -168.503)" fill="#3f3d56"/>
      <path id="Path_16373" data-name="Path 16373" d="M237.3,104a30.092,30.092,0,0,0-15.87,55.657c.087.054.18.1.268.155a16.485,16.485,0,0,1,31.2,0c.088-.054.181-.1.268-.155A30.092,30.092,0,0,0,237.3,104Zm0,41.738a10.677,10.677,0,1,1,10.677-10.677A10.677,10.677,0,0,1,237.3,145.738Z" transform="translate(-100.564 -70.639)" fill="#fff"/>
      <ellipse id="Ellipse_648" data-name="Ellipse 648" cx="6" cy="5" rx="6" ry="5" transform="translate(78.643 112.19)" fill="#fff"/>
      <ellipse id="Ellipse_649" data-name="Ellipse 649" cx="6" cy="5.5" rx="6" ry="5.5" transform="translate(78.643 136.19)" fill="#fff"/>
      <ellipse id="Ellipse_650" data-name="Ellipse 650" cx="6" cy="5" rx="6" ry="5" transform="translate(78.643 161.19)" fill="#fff"/>
      <circle id="Ellipse_651" data-name="Ellipse 651" cx="6" cy="6" r="6" transform="translate(78.643 185.19)" fill="#fff"/>
      <rect id="Rectangle_747" data-name="Rectangle 747" width="73" height="10" rx="5" transform="translate(100.643 161.19)" fill="#fff"/>
      <rect id="Rectangle_748" data-name="Rectangle 748" width="73" height="12" rx="6" transform="translate(100.643 185.19)" fill="#fff"/>
      <rect id="Rectangle_749" data-name="Rectangle 749" width="73" height="11" rx="5.5" transform="translate(100.643 136.19)" fill="#fff"/>
      <rect id="Rectangle_750" data-name="Rectangle 750" width="73" height="10" rx="5" transform="translate(100.643 112.19)" fill="#fff"/>
    </g>
    <g id="Group_509" data-name="Group 509" transform="matrix(-0.966, -0.259, 0.259, -0.966, 1175.884, 6475.491)">
      <path id="Path_16337" data-name="Path 16337" d="M6413.431,4860.5c2.262-1.175,9.615-2.9,13.388,8.409s3.126,15.7-4.416,11.932-11.532-8.367-12.809-12.515S6411.172,4861.675,6413.431,4860.5Z" transform="translate(-5283.564 10.633)" fill="#d52d70"/>
      <path id="Path_16338" data-name="Path 16338" d="M6413.431,4860.5c2.262-1.175,9.615-2.9,13.388,8.409s3.126,15.7-4.416,11.932-11.532-8.367-12.809-12.515S6411.172,4861.675,6413.431,4860.5Z" transform="translate(-5255.362 20.034)" fill="#d52d70"/>
      <path id="Path_16339" data-name="Path 16339" d="M6413.431,4860.5c2.262-1.175,9.615-2.9,13.388,8.409s3.126,15.7-4.416,11.932-11.532-8.367-12.809-12.515S6411.172,4861.675,6413.431,4860.5Z" transform="translate(-5217.758 26.749)" fill="#d52d70"/>
      <path id="Path_16340" data-name="Path 16340" d="M6413.431,4860.5c2.262-1.175,9.615-2.9,13.388,8.409s3.126,15.7-4.416,11.932-11.532-8.367-12.809-12.515S6411.172,4861.675,6413.431,4860.5Z" transform="translate(-5225.816 60.324)" fill="#d52d70"/>
      <path id="Path_16341" data-name="Path 16341" d="M6413.431,4860.5c2.262-1.175,9.615-2.9,13.388,8.409s3.126,15.7-4.416,11.932-11.532-8.367-12.809-12.515S6411.172,4861.675,6413.431,4860.5Z" transform="translate(-5263.42 49.58)" fill="#d52d70"/>
      <path id="Path_16342" data-name="Path 16342" d="M6413.431,4860.5c2.262-1.175,9.615-2.9,13.388,8.409s3.126,15.7-4.416,11.932-11.532-8.367-12.809-12.515S6411.172,4861.675,6413.431,4860.5Z" transform="translate(-5299.68 44.208)" fill="#d52d70"/>
      <path id="Path_16343" data-name="Path 16343" d="M6413.431,4860.5c2.262-1.175,9.615-2.9,13.388,8.409s3.126,15.7-4.416,11.932-11.532-8.367-12.809-12.515S6411.172,4861.675,6413.431,4860.5Z" transform="translate(-5309.082 72.411)" fill="#d52d70"/>
      <path id="Path_16344" data-name="Path 16344" d="M6413.431,4860.5c2.262-1.175,9.615-2.9,13.388,8.409s3.126,15.7-4.416,11.932-11.532-8.367-12.809-12.515S6411.172,4861.675,6413.431,4860.5Z" transform="translate(-5279.536 83.155)" fill="#d52d70"/>
      <path id="Path_16345" data-name="Path 16345" d="M6413.431,4860.5c2.262-1.175,9.615-2.9,13.388,8.409s3.126,15.7-4.416,11.932-11.532-8.367-12.809-12.515S6411.172,4861.675,6413.431,4860.5Z" transform="translate(-5232.532 93.899)" fill="#d52d70"/>
      <path id="Path_16346" data-name="Path 16346" d="M6413.431,4860.5c2.262-1.175,9.615-2.9,13.388,8.409s3.126,15.7-4.416,11.932-11.532-8.367-12.809-12.515S6411.172,4861.675,6413.431,4860.5Z" transform="translate(-5194.926 71.068)" fill="#d52d70"/>
      <path id="Path_16347" data-name="Path 16347" d="M6413.431,4860.5c2.262-1.175,9.615-2.9,13.388,8.409s3.126,15.7-4.416,11.932-11.532-8.367-12.809-12.515S6411.172,4861.675,6413.431,4860.5Z" transform="translate(-5338.628 40.179)" fill="#d52d70"/>
      <path id="Path_16348" data-name="Path 16348" d="M6413.431,4860.5c2.262-1.175,9.615-2.9,13.388,8.409s3.126,15.7-4.416,11.932-11.532-8.367-12.809-12.515S6411.172,4861.675,6413.431,4860.5Z" transform="translate(-5321.168 5.261)" fill="#d52d70"/>
      <path id="Path_16349" data-name="Path 16349" d="M6413.431,4860.5c2.262-1.175,9.615-2.9,13.388,8.409s3.126,15.7-4.416,11.932-11.532-8.367-12.809-12.515S6411.172,4861.675,6413.431,4860.5Z" transform="translate(-5314.454 -31)" fill="#d52d70"/>
      <path id="Path_16350" data-name="Path 16350" d="M6413.431,4860.5c2.262-1.175,9.615-2.9,13.388,8.409s3.126,15.7-4.416,11.932-11.532-8.367-12.809-12.515S6411.172,4861.675,6413.431,4860.5Z" transform="translate(-5280.878 -25.628)" fill="#d52d70"/>
      <path id="Path_16351" data-name="Path 16351" d="M6413.431,4860.5c2.262-1.175,9.615-2.9,13.388,8.409s3.126,15.7-4.416,11.932-11.532-8.367-12.809-12.515S6411.172,4861.675,6413.431,4860.5Z" transform="translate(-5344 75.097)" fill="#d52d70"/>
    </g>
  </g>
</svg>
