<svg xmlns="http://www.w3.org/2000/svg" xmlns:xlink="http://www.w3.org/1999/xlink" width="927" height="918" viewBox="0 0 927 918">
  <defs>
    <filter id="Rectangle_708" x="0" y="0" width="530" height="531" filterUnits="userSpaceOnUse">
      <feOffset dy="22" input="SourceAlpha"/>
      <feGaussianBlur stdDeviation="29.5" result="blur"/>
      <feFlood flood-color="#535a7e" flood-opacity="0.11"/>
      <feComposite operator="in" in2="blur"/>
      <feComposite in="SourceGraphic"/>
    </filter>
    <filter id="Rectangle_709" x="397" y="0" width="530" height="531" filterUnits="userSpaceOnUse">
      <feOffset dy="22" input="SourceAlpha"/>
      <feGaussianBlur stdDeviation="29.5" result="blur-2"/>
      <feFlood flood-color="#535a7e" flood-opacity="0.11"/>
      <feComposite operator="in" in2="blur-2"/>
      <feComposite in="SourceGraphic"/>
    </filter>
    <filter id="Rectangle_710" x="194" y="387" width="530" height="531" filterUnits="userSpaceOnUse">
      <feOffset dy="22" input="SourceAlpha"/>
      <feGaussianBlur stdDeviation="29.5" result="blur-3"/>
      <feFlood flood-color="#535a7e" flood-opacity="0.11"/>
      <feComposite operator="in" in2="blur-3"/>
      <feComposite in="SourceGraphic"/>
    </filter>
    <clipPath id="clip-path">
      <path id="Path_16468" data-name="Path 16468" d="M29.183,206.635H248.527a29.183,29.183,0,0,0,29.183-29.183V29.183A29.183,29.183,0,0,0,248.527,0H29.183A29.183,29.183,0,0,0,0,29.183V177.452A29.183,29.183,0,0,0,29.183,206.635Z" transform="matrix(-0.996, 0.087, -0.087, -0.996, 294.662, 205.849)" fill="#ffb0a3"/>
    </clipPath>
  </defs>
  <g id="illustration1" transform="translate(-906.5 -2253.5)">
    <g transform="matrix(1, 0, 0, 1, 906.5, 2253.5)" filter="url(#Rectangle_708)">
      <rect id="Rectangle_708-2" data-name="Rectangle 708" width="353" height="354" rx="10" transform="translate(88.5 66.5)" fill="#fff"/>
    </g>
    <g transform="matrix(1, 0, 0, 1, 906.5, 2253.5)" filter="url(#Rectangle_709)">
      <rect id="Rectangle_709-2" data-name="Rectangle 709" width="353" height="354" rx="10" transform="translate(485.5 66.5)" fill="#fff"/>
    </g>
    <g transform="matrix(1, 0, 0, 1, 906.5, 2253.5)" filter="url(#Rectangle_710)">
      <rect id="Rectangle_710-2" data-name="Rectangle 710" width="353" height="354" rx="10" transform="translate(282.5 453.5)" fill="#fff"/>
    </g>
    <path id="Path_16225" data-name="Path 16225" d="M774.412,428.28c10.126-8.61,24.98-12.661,34.186-10.858,9.327,2.78,18.027,10.272,20.213,19.658,1.043,9.079-8.461,27.225-28.367,26.824-10.465-.788-19.064-11.95-25.985-20.682C769.637,436.812,770.077,432.461,774.412,428.28Z" transform="translate(813.422 2572.944)" fill="#ffb0a3"/>
    <path id="Path_16447" data-name="Path 16447" d="M32,226.593H272.531a32,32,0,0,0,32-32V32a32,32,0,0,0-32-32H32A32,32,0,0,0,0,32v162.59A32,32,0,0,0,32,226.593Z" transform="matrix(-0.996, 0.087, -0.087, -0.996, 1730.477, 2591.216)" fill="#ffb0a3"/>
    <g id="Group_543" data-name="Group 543" transform="matrix(0.966, -0.259, 0.259, 0.966, 1614.25, 2517.918)">
      <path id="Path_16337" data-name="Path 16337" d="M2.545,13.278c1.386.72,5.893,1.78,8.206-5.154S12.667-1.5,8.044.811.976,5.939.194,8.481,1.161,12.559,2.545,13.278Z" transform="translate(37.043 51.036)" fill="#ec9385"/>
      <path id="Path_16338" data-name="Path 16338" d="M2.545,13.278c1.386.72,5.893,1.78,8.206-5.154S12.667-1.5,8.044.811.976,5.939.194,8.481,1.161,12.559,2.545,13.278Z" transform="translate(54.328 45.274)" fill="#ec9385"/>
      <path id="Path_16339" data-name="Path 16339" d="M2.545,13.278c1.386.72,5.893,1.78,8.206-5.154S12.667-1.5,8.044.811.976,5.939.194,8.481,1.161,12.559,2.545,13.278Z" transform="translate(77.377 41.158)" fill="#ec9385"/>
      <path id="Path_16340" data-name="Path 16340" d="M2.545,13.278c1.386.72,5.893,1.78,8.206-5.154S12.667-1.5,8.044.811.976,5.939.194,8.481,1.161,12.559,2.545,13.278Z" transform="translate(72.438 20.579)" fill="#ec9385"/>
      <path id="Path_16341" data-name="Path 16341" d="M2.545,13.278c1.386.72,5.893,1.78,8.206-5.154S12.667-1.5,8.044.811.976,5.939.194,8.481,1.161,12.559,2.545,13.278Z" transform="translate(49.39 27.164)" fill="#ec9385"/>
      <path id="Path_16342" data-name="Path 16342" d="M2.545,13.278c1.386.72,5.893,1.78,8.206-5.154S12.667-1.5,8.044.811.976,5.939.194,8.481,1.161,12.559,2.545,13.278Z" transform="translate(27.165 30.457)" fill="#ec9385"/>
      <path id="Path_16343" data-name="Path 16343" d="M2.545,13.278c1.386.72,5.893,1.78,8.206-5.154S12.667-1.5,8.044.811.976,5.939.194,8.481,1.161,12.559,2.545,13.278Z" transform="translate(21.402 13.171)" fill="#ec9385"/>
      <path id="Path_16344" data-name="Path 16344" d="M2.545,13.278c1.386.72,5.893,1.78,8.206-5.154S12.667-1.5,8.044.811.976,5.939.194,8.481,1.161,12.559,2.545,13.278Z" transform="translate(39.512 6.585)" fill="#ec9385"/>
      <path id="Path_16345" data-name="Path 16345" d="M2.545,13.278c1.386.72,5.893,1.78,8.206-5.154S12.667-1.5,8.044.811.976,5.939.194,8.481,1.161,12.559,2.545,13.278Z" transform="translate(68.322 0)" fill="#ec9385"/>
      <path id="Path_16346" data-name="Path 16346" d="M2.545,13.278c1.386.72,5.893,1.78,8.206-5.154S12.667-1.5,8.044.811.976,5.939.194,8.481,1.161,12.559,2.545,13.278Z" transform="translate(91.371 13.994)" fill="#ec9385"/>
      <path id="Path_16347" data-name="Path 16347" d="M2.545,13.278c1.386.72,5.893,1.78,8.206-5.154S12.667-1.5,8.044.811.976,5.939.194,8.481,1.161,12.559,2.545,13.278Z" transform="translate(3.293 32.927)" fill="#ec9385"/>
      <path id="Path_16348" data-name="Path 16348" d="M2.545,13.278c1.386.72,5.893,1.78,8.206-5.154S12.667-1.5,8.044.811.976,5.939.194,8.481,1.161,12.559,2.545,13.278Z" transform="translate(13.994 54.329)" fill="#ec9385"/>
      <path id="Path_16349" data-name="Path 16349" d="M2.545,13.278c1.386.72,5.893,1.78,8.206-5.154S12.667-1.5,8.044.811.976,5.939.194,8.481,1.161,12.559,2.545,13.278Z" transform="translate(18.109 76.554)" fill="#ec9385"/>
      <path id="Path_16350" data-name="Path 16350" d="M2.545,13.278c1.386.72,5.893,1.78,8.206-5.154S12.667-1.5,8.044.811.976,5.939.194,8.481,1.161,12.559,2.545,13.278Z" transform="translate(38.689 73.262)" fill="#ec9385"/>
      <path id="Path_16351" data-name="Path 16351" d="M2.545,13.278c1.386.72,5.893,1.78,8.206-5.154S12.667-1.5,8.044.811.976,5.939.194,8.481,1.161,12.559,2.545,13.278Z" transform="translate(0 11.524)" fill="#ec9385"/>
    </g>
    <g id="Mask_Group_18" data-name="Mask Group 18" transform="translate(1421.354 2375.823)" clip-path="url(#clip-path)">
      <g id="undraw_new_ideas_jdea" transform="translate(19.712 21.373)">
        <path id="Path_16448" data-name="Path 16448" d="M862.332,574.062c-.091.171-.185.337-.289.5a7.866,7.866,0,1,1-11.084-10.688,7.222,7.222,0,0,1,.947-.55,7.864,7.864,0,0,1,10.7,10.164C862.526,573.678,862.433,573.87,862.332,574.062Z" transform="translate(-635.661 -436.647)" fill="#ffb0a3"/>
        <path id="Path_16449" data-name="Path 16449" d="M874.586,587.568c-.091.171-.186.337-.289.5l-9.74-6.772,10.3,5.7C874.781,587.185,874.688,587.377,874.586,587.568Z" transform="translate(-647.915 -450.154)" fill="#d0cde1"/>
        <path id="Path_16450" data-name="Path 16450" d="M858.051,597.794l-10.24-3.949a7.889,7.889,0,0,1-.214-1.37Z" transform="translate(-635.72 -458.195)" fill="#d0cde1"/>
        <path id="Path_16451" data-name="Path 16451" d="M868.159,569.18l-8.385-3.235a7.232,7.232,0,0,1,.947-.55Z" transform="translate(-644.476 -438.723)" fill="#d0cde1"/>
        <path id="Path_16452" data-name="Path 16452" d="M567.743,636.956s17.264.719,17.264,5.035-19.422,0-19.422,0Z" transform="translate(-432.943 -490.178)" fill="#fff"/>
        <path id="Path_16453" data-name="Path 16453" d="M295.166,638.319l-32.37-2.158L261.357,618.9,254.164,634l-31.65-4.316c.719-27.335,12.229-53.95,12.948-57.547s2.439-18.458,2.439-18.458c3.143-6.668,19.616-7.294,32.528-6.69,5.352.245,10.1.7,13.027,1.036,1.935.216,3.079.374,3.079.374,5.158,5.316,8.481,12.559,10.524,20.652C304.424,598.209,295.166,638.319,295.166,638.319Z" transform="translate(-186.261 -425.363)" fill="#2f2e41"/>
        <ellipse id="Ellipse_662" data-name="Ellipse 662" cx="17.983" cy="17.983" rx="17.983" ry="17.983" transform="translate(54.955 10.105)" fill="#fff"/>
        <path id="Path_16454" data-name="Path 16454" d="M273.7,229.879s-5.035,22.3-12.948,28.773,30.931,0,30.931,0-8.632-14.387-2.158-20.861S273.7,229.879,273.7,229.879Z" transform="translate(-212.994 -197.475)" fill="#fff"/>
        <path id="Path_16455" data-name="Path 16455" d="M283.41,375.339l-11.934,1.323-33.384,3.712s-.158-.424-.439-1.194c-2.424-6.611-14.1-38.779-15.386-48.44C220.828,319.951,235.934,307,235.934,307s14.387-2.877,18.7-2.877,21.58,6.474,21.58,6.474l6.438,57.913.554,5.014Z" transform="translate(-186.014 -250.861)" fill="#3f3e58"/>
        <path id="Path_16456" data-name="Path 16456" d="M388.953,471.892l-24.191-14.178s-.424-1.381-1.144-3.712c-.36-1.165-.8-2.575-1.295-4.172-2.791-8.963-7.474-23.752-11.229-34.556-5.755-16.545,22.3,29.493,22.3,29.493l1.4,1.086.554,5.014c1.935.216,3.079.374,3.079.374C383.586,456.556,386.91,463.8,388.953,471.892Z" transform="translate(-278.156 -328.201)" opacity="0.15"/>
        <path id="Path_16457" data-name="Path 16457" d="M364.175,326.842s-7.193,9.351-1.439,25.9S376.4,395.179,376.4,395.179l41.721,24.457,5.755-7.193-38.844-30.212S383.6,327.561,376.4,325.4A14.742,14.742,0,0,0,364.175,326.842Z" transform="translate(-285.482 -265.665)" fill="#3f3e58"/>
        <path id="Path_16458" data-name="Path 16458" d="M246.836,543.422s10.071,20.86,14.387,18.7-10.79-23.738-10.79-23.738Z" transform="translate(-203.75 -419.303)" fill="#fff"/>
        <path id="Path_16459" data-name="Path 16459" d="M135.492,352.77,97.367,384.421S82.981,394.491,109.6,401.684s28.773,11.509,28.773,11.509,2.877-9.351,6.474-7.913l-30.931-15.106,25.177-15.106Z" transform="translate(-93.485 -285.838)" fill="#3f3e58"/>
        <path id="Path_16460" data-name="Path 16460" d="M166.373,157.394a101.553,101.553,0,0,0,10.183-5.4c-.264-7.838.7-14.954,3.527-18.725,1.586-3.6,4.916-7.206,7.525-10.045,6.405-6.972,20.569-10.864,23.081-7.38,19,.375,21,15.268,21,15.268-.1,6.229-6.573,6.427-12.245,6.2.508,4.253-.846,8.672-4.765,10.631-7.495,3.747-9.743,8.619-6,11.992s10.493,12.367,1.5,14.615-10.118,6.746-7.495,8.619-6-3.373-6-3.373-1.5,8.994-9.369,6.745a4.734,4.734,0,0,1-2.1-1.49c-2.125,2.335-4.022,3.716-5.451,3.724-8.185.043-7.2-9.022-7.2-9.022s-9.715,2.728-6.683,1.631,3.161-5.731-4.893-10.321S161.855,159.632,166.373,157.394Z" transform="translate(-139.689 -114.546)" fill="#2f2e41"/>
        <path id="Path_16461" data-name="Path 16461" d="M545.089,257.57l-.13-.017.318,1.21a31.789,31.789,0,0,0,1.306,4.966l9.335,35.488a6.015,6.015,0,0,0,4.9,4.414l19.038,2.945a6.015,6.015,0,0,0,6.222-3.105l18.092-33.793a31.772,31.772,0,0,0,1.548-2.891l.614-1.147-.1-.013a31.987,31.987,0,1,0-61.146-8.057Z" transform="translate(-417.986 -191.224)" fill="#3f3d56"/>
        <path id="Path_16462" data-name="Path 16462" d="M576.775,303.253a6.544,6.544,0,0,1-1-.077l-19.9-3.079a6.567,6.567,0,0,1-5.348-4.82l-9.758-37.094a33.443,33.443,0,0,1-1.37-5.214l-.247-1.623a33.723,33.723,0,0,1,38.6-37.61l-.086.555a33.173,33.173,0,0,0-37.911,37.344l.19,1.214a33.229,33.229,0,0,0,1.359,5.17l9.765,37.116a6,6,0,0,0,4.89,4.408l19.9,3.079a6.014,6.014,0,0,0,6.213-3.1l.5.265A6.58,6.58,0,0,1,576.775,303.253Z" transform="translate(-413.738 -185.582)" fill="#d0cde1"/>
        <rect id="Rectangle_777" data-name="Rectangle 777" width="35.209" height="0.727" transform="translate(155.976 107.474) rotate(-69.885)" fill="#d0cde1"/>
        <rect id="Rectangle_778" data-name="Rectangle 778" width="0.727" height="35.209" transform="translate(147.589 71.384) rotate(-2.516)" fill="#d0cde1"/>
        <path id="Path_16463" data-name="Path 16463" d="M600.941,579.42l-25.5-3.945a.727.727,0,0,1,.222-1.437l25.5,3.945a.727.727,0,0,1-.222,1.437Z" transform="translate(-439.587 -444.932)" fill="#3f3d56"/>
        <path id="Path_16464" data-name="Path 16464" d="M603.268,560.146l-25.5-3.945a.727.727,0,1,1,.222-1.437l25.5,3.945a.727.727,0,0,1-.222,1.437Z" transform="translate(-441.26 -431.073)" fill="#3f3d56"/>
        <path id="Path_16465" data-name="Path 16465" d="M605.6,540.873l-25.5-3.945a.727.727,0,1,1,.222-1.437l25.5,3.945a.727.727,0,1,1-.222,1.437Z" transform="translate(-442.934 -417.215)" fill="#3f3d56"/>
        <path id="Path_16466" data-name="Path 16466" d="M598.5,584.69c5.058.782,9.594-1.4,10.132-4.879l-18.316-2.834C589.774,580.454,593.438,583.907,598.5,584.69Z" transform="translate(-450.685 -447.051)" fill="#3f3d56"/>
        <path id="Path_16467" data-name="Path 16467" d="M625.127,342a4.478,4.478,0,0,1-2.482-1.6c-.162-.189-.319-.385-.477-.581a5.676,5.676,0,0,0-1.873-1.743c-1.668-.778-3.633.309-5.335,1.475l-.411-.6c1.871-1.283,4.052-2.467,6.054-1.534a6.3,6.3,0,0,1,2.132,1.947c.153.191.306.381.463.564.513.6,1.536,1.57,2.633,1.346a3.538,3.538,0,0,0,1.263-.669,6.774,6.774,0,0,1,.894-.564,3.56,3.56,0,0,1,3.907.552,7.026,7.026,0,0,1,.53.561,1.809,1.809,0,0,0,2.925.344,3.758,3.758,0,0,1,2.2-.659l.078.011c1.432.221,2.092,1.8,2.465,2.986l-.693.219c-.508-1.606-1.125-2.4-1.936-2.494a3.2,3.2,0,0,0-1.769.576,2.48,2.48,0,0,1-3.816-.5,6.413,6.413,0,0,0-.474-.5,2.856,2.856,0,0,0-3.094-.437,6.147,6.147,0,0,0-.8.506,4.13,4.13,0,0,1-1.537.787A2.39,2.39,0,0,1,625.127,342Z" transform="translate(-468.15 -274.558)" fill="#d0cde1"/>
      </g>
    </g>
    <g id="undraw_terms_lso0" transform="translate(1075 2345.393)">
      <path id="Path_16527" data-name="Path 16527" d="M534.539,360.018H313.685V77.607s234.481-21.615,220.854,0S534.539,360.018,534.539,360.018Z" transform="translate(-313.215 -68)" fill="#ffb0a3"/>
      <path id="Path_16528" data-name="Path 16528" d="M221.794,306.343H0V22.992H132.105v.94H.94V305.4H220.854V81.463h.94Z" transform="translate(0 -13.855)" fill="#3f3d56"/>
      <path id="Path_16529" data-name="Path 16529" d="M523.784,259.635a34.616,34.616,0,0,1-18.728-5.048c-17.4-10.989-34.095-.118-34.261-.006l-.054.031a57.982,57.982,0,0,1-22.611,5.024,34.616,34.616,0,0,1-18.728-5.048c-17.4-10.989-34.095-.118-34.261-.006l-.521-.782c.172-.115,17.377-11.315,35.284-.006,17.17,10.845,39.536.4,40.4-.013.82-.528,17.7-11.073,35.255.013,17.433,11.01,40.2.087,40.423-.025l.413.844A57.974,57.974,0,0,1,523.784,259.635Z" transform="translate(-361.987 -176.916)" fill="#3f3d56"/>
      <path id="Path_16530" data-name="Path 16530" d="M523.784,316.393a34.616,34.616,0,0,1-18.728-5.048c-17.4-10.988-34.095-.118-34.261-.006l-.054.031a57.981,57.981,0,0,1-22.611,5.024,34.616,34.616,0,0,1-18.728-5.048c-17.4-10.988-34.095-.118-34.261-.006l-.521-.782c.172-.115,17.377-11.315,35.284-.006,17.17,10.845,39.536.4,40.4-.013.82-.528,17.7-11.073,35.255.013,17.433,11.011,40.2.087,40.423-.025l.413.844A57.975,57.975,0,0,1,523.784,316.393Z" transform="translate(-361.987 -211.119)" fill="#3f3d56"/>
      <path id="Path_16531" data-name="Path 16531" d="M523.784,373.151a34.616,34.616,0,0,1-18.728-5.048c-17.4-10.989-34.095-.118-34.261-.006l-.054.031a57.981,57.981,0,0,1-22.611,5.024A34.616,34.616,0,0,1,429.4,368.1c-17.4-10.989-34.095-.118-34.261-.006l-.521-.782C394.791,367.2,412,356,429.9,367.308c17.17,10.845,39.536.4,40.4-.013.82-.528,17.7-11.073,35.255.013,17.433,11.01,40.2.087,40.423-.025l.413.844A57.99,57.99,0,0,1,523.784,373.151Z" transform="translate(-361.987 -245.322)" fill="#3f3d56"/>
      <path id="Path_16532" data-name="Path 16532" d="M452.362,429.892c-.189,0-.379-.006-.57-.017-3.075-.191-5.8-1.938-8.108-5.193-2.284-3.226-4.712-4.845-7.272-4.813-4.27.054-7.473,4.756-7.505,4.8l-.043.055c-.205.225-5.1,5.514-10.9,5.148-3.075-.191-5.8-1.938-8.108-5.193-2.284-3.226-4.733-4.845-7.272-4.813-4.27.054-7.473,4.756-7.505,4.8l-.781-.524c.141-.211,3.516-5.16,8.274-5.22,2.882-.05,5.577,1.717,8.05,5.21,2.132,3.01,4.62,4.624,7.4,4.8,5.177.319,9.781-4.446,10.135-4.821.327-.476,3.639-5.129,8.252-5.188h.087c2.836,0,5.515,1.752,7.963,5.211,2.132,3.01,4.62,4.624,7.4,4.8,5.366.34,10.109-4.792,10.156-4.844l.694.634C462.5,424.945,457.913,429.892,452.362,429.892Z" transform="translate(-361.79 -279.472)" fill="#3f3d56"/>
      <path id="Path_16533" data-name="Path 16533" d="M267.657,557.978H223.486V527.9h33.833v.94H224.426v28.194h42.291v-14.1h.94Z" transform="translate(-134.674 -318.119)" fill="#3f3d56"/>
      <path id="Path_16534" data-name="Path 16534" d="M373.717,155.48a5.639,5.639,0,1,1,5.639-5.639,5.639,5.639,0,0,1-5.639,5.639Zm0-10.338a4.7,4.7,0,1,0,4.7,4.7,4.7,4.7,0,0,0-4.7-4.7Z" transform="translate(-345.993 -113.92)" fill="#fff"/>
      <path id="Path_16535" data-name="Path 16535" d="M291.139,517.955,279.96,502.518l3.045-2.2,8.557,11.817,32.745-33.641L327,481.111Z" transform="translate(-168.706 -288.341)" fill="#ff7364"/>
      <path id="Path_16536" data-name="Path 16536" d="M715.065,337.536s5.639,14.567-4.7,14.567,15.977,14.567,26.315,6.109,4.229-8.928,4.229-8.928-13.627,1.41-13.157-10.808Z" transform="translate(-550.834 -230.425)" fill="#fff"/>
      <circle id="Ellipse_679" data-name="Ellipse 679" cx="18.317" cy="18.317" r="18.317" transform="translate(152.266 75.046)" fill="#2f2e41"/>
      <path id="Path_16537" data-name="Path 16537" d="M681.947,490.074l-17.856,46.05s-8.928,14.1-5.639,28.194S669.26,603.79,669.26,603.79s8.458-3.289,7.988-9.4,3.759-27.724-3.289-35.712l24.9-35.243.94,37.122s-1.88,16.917-1.41,24.435S699.8,605.2,699.8,605.2l5.639-.94s9.868-34.773,8.928-46.05c0,0,17.856-54.978,0-68.136Z" transform="translate(-520.536 -322.345)" fill="#2f2e41"/>
      <path id="Path_16538" data-name="Path 16538" d="M683.693,750.346s-4.229,0-3.759,3.759-3.759,22.085,5.169,20.676,9.868-10.338,9.868-16.447.47-6.579,1.41-7.988,3.759-13.627,0-13.157a26.613,26.613,0,0,0-7.988,2.819S689.8,750.346,683.693,750.346Z" transform="translate(-533.56 -471.251)" fill="#2f2e41"/>
      <path id="Path_16539" data-name="Path 16539" d="M760.942,769.663s-6.579-.94-6.109,1.41-.94,12.217,0,13.157,2.819,2.819,2.819,4.229.47,6.109,8.458,4.7,6.109-8.458,5.639-9.4-6.109-5.639-5.639-8.458S763.761,767.784,760.942,769.663Z" transform="translate(-578.855 -490.568)" fill="#2f2e41"/>
      <circle id="Ellipse_680" data-name="Ellipse 680" cx="12.687" cy="12.687" r="12.687" transform="translate(158.122 88.315)" fill="#fff"/>
      <path id="Path_16540" data-name="Path 16540" d="M716.545,363.8s4.06,8.032-8.29,8.172c-3.879.044-7.579-3.289-10.036-6.292-.867-1.06-1.234,1.116-2.819.94-4.229-.47-15.742.235-15.742,7.753s13.157,36.182,12.217,39-5.639,2.35,0,4.229,16.917-2.819,24.435.94,14.567-5.639,14.567-5.639l11.278-40.411S725,361.922,716.545,363.8Z" transform="translate(-533.753 -246.118)" fill="#3f3e58"/>
      <path id="Path_16541" data-name="Path 16541" d="M678.331,555.109s-11.747,9.4-6.579,12.687,11.278-12.687,11.278-12.687Z" transform="translate(-528.198 -361.536)" fill="#fff"/>
      <path id="Path_16542" data-name="Path 16542" d="M786.54,469.972s-15.507,6.109-10.338,9.4,10.338-5.639,10.338-5.639Z" transform="translate(-591.296 -310.231)" fill="#fff"/>
      <path id="Path_16543" data-name="Path 16543" d="M680.662,378.922h0a9.043,9.043,0,0,0-5.978,8.356l-.6,35.814s-2.819,29.134,4.229,29.134,12.217,2.349,13.157,0-3.289-23.5-3.289-23.5Z" transform="translate(-530.058 -255.364)" fill="#3f3e58"/>
      <path id="Path_16544" data-name="Path 16544" d="M802.222,382.47l8.928,1.41s24.9,12.217,19.266,20.676-29.6,20.676-29.6,20.676-8.928-4.229-6.109-7.049S810.211,405.5,810.211,405.5L799.4,395.627Z" transform="translate(-602.749 -257.502)" fill="#3f3e58"/>
      <path id="Path_16545" data-name="Path 16545" d="M422.092,222.23l-9.3-4.869-12.837,1.992-2.656,11.73,6.611-.254,1.847-4.31v4.239l3.051-.117,1.77-6.861,1.107,7.3,10.844-.221Z" transform="translate(-239.419 -130.983)" fill="#2f2e41"/>
      <circle id="Ellipse_681" data-name="Ellipse 681" cx="7.391" cy="7.391" r="7.391" transform="translate(164.156 65.084)" fill="#2f2e41"/>
      <path id="Path_16546" data-name="Path 16546" d="M717.332,233.509A7.393,7.393,0,0,1,723.6,226.2a7.391,7.391,0,1,0,0,14.612A7.393,7.393,0,0,1,717.332,233.509Z" transform="translate(-555.104 -163.283)" fill="#2f2e41"/>
      <path id="Path_16547" data-name="Path 16547" d="M380.793,733.155c2.665,9.852,11.793,15.953,11.793,15.953s4.807-9.871,2.142-19.723-11.793-15.953-11.793-15.953S378.128,723.3,380.793,733.155Z" transform="translate(-353.17 -456.942)" fill="#3f3d56"/>
      <path id="Path_16548" data-name="Path 16548" d="M364.154,746.032c7.313,7.119,8.206,18.062,8.206,18.062s-10.963-.6-18.276-7.717-8.206-18.062-8.206-18.062S356.841,738.913,364.154,746.032Z" transform="translate(-332.615 -471.937)" fill="#fff"/>
    </g>
    <g id="Group_550" data-name="Group 550" transform="translate(1234.162 2772)">
      <path id="Path_16549" data-name="Path 16549" d="M327.408,78.455c0,30.379-65.936,124.538-93.238,140.9a120.735,120.735,0,0,1-62.032,16.66c-30.8,0-54.288-11.639-71.959-29.468-16.288-16.43-27.629-38.12-35.186-60.805C31.257,44.456,87.612,16.824,172.137,55.466,225.955,80.072,327.408,28.6,327.408,78.455Z" transform="translate(-55.067 -38.747)" fill="#ffb0a3"/>
      <path id="Path_16550" data-name="Path 16550" d="M376.924,263.5V390.379a120.735,120.735,0,0,1-62.032,16.66c-30.8,0-54.288-11.639-71.959-29.468V263.5Z" transform="translate(-197.821 -209.533)" fill="#f2f2f2"/>
      <path id="Path_16551" data-name="Path 16551" d="M295.2,506.272a83.83,83.83,0,0,1,21.649-3.86,67.754,67.754,0,0,1,11.039.432,69.049,69.049,0,0,1,10.714,2.294c3.463,1,6.878,2.161,10.329,3.2a96.33,96.33,0,0,0,10.675,2.6,90.492,90.492,0,0,0,10.847,1.293,66.058,66.058,0,0,0,10.833-.134,33.143,33.143,0,0,0,9.747-2.471,29.768,29.768,0,0,0,7.927-5.084q.882-.787,1.7-1.644c.32-.335-.188-.845-.509-.509a29.775,29.775,0,0,1-17.176,8.771,57.236,57.236,0,0,1-10.8.433,88.858,88.858,0,0,1-10.977-1.109,91.742,91.742,0,0,1-10.632-2.42c-3.431-.994-6.815-2.14-10.234-3.173a77.019,77.019,0,0,0-10.536-2.51,66.262,66.262,0,0,0-10.81-.75A82.652,82.652,0,0,0,297.62,504.8q-1.31.368-2.608.776c-.441.138-.253.834.191.695Z" transform="translate(-237.204 -390.481)" fill="#3f3d56"/>
      <path id="Path_16552" data-name="Path 16552" d="M295.2,582.272a83.833,83.833,0,0,1,21.649-3.86,67.754,67.754,0,0,1,11.039.432,69.048,69.048,0,0,1,10.714,2.294c3.463,1,6.878,2.161,10.329,3.2a96.337,96.337,0,0,0,10.675,2.6,90.5,90.5,0,0,0,10.847,1.293,66.058,66.058,0,0,0,10.833-.134,33.144,33.144,0,0,0,9.747-2.471,29.768,29.768,0,0,0,7.927-5.084q.882-.787,1.7-1.644c.32-.335-.188-.845-.509-.509a29.775,29.775,0,0,1-17.176,8.771,57.234,57.234,0,0,1-10.8.433,88.858,88.858,0,0,1-10.977-1.109,91.744,91.744,0,0,1-10.632-2.42c-3.431-.994-6.815-2.14-10.234-3.173a77,77,0,0,0-10.536-2.51,66.262,66.262,0,0,0-10.81-.75A82.654,82.654,0,0,0,297.62,580.8q-1.31.368-2.608.776c-.441.138-.253.834.191.695Z" transform="translate(-237.204 -448.231)" fill="#3f3d56"/>
      <path id="Path_16553" data-name="Path 16553" d="M295.2,437.272a83.829,83.829,0,0,1,21.649-3.86,67.754,67.754,0,0,1,11.039.432,69.051,69.051,0,0,1,10.714,2.294c3.463,1,6.878,2.161,10.329,3.2a96.331,96.331,0,0,0,10.675,2.6,90.5,90.5,0,0,0,10.847,1.293,66.058,66.058,0,0,0,10.833-.134,33.144,33.144,0,0,0,9.747-2.471,29.769,29.769,0,0,0,7.927-5.084q.882-.787,1.7-1.644c.32-.335-.188-.845-.509-.509a29.775,29.775,0,0,1-17.176,8.771,57.236,57.236,0,0,1-10.8.433,88.861,88.861,0,0,1-10.978-1.109,91.735,91.735,0,0,1-10.632-2.42c-3.431-.994-6.815-2.14-10.234-3.173a77.023,77.023,0,0,0-10.536-2.51,66.255,66.255,0,0,0-10.81-.75A82.652,82.652,0,0,0,297.62,435.8q-1.31.368-2.608.776c-.441.138-.253.834.191.695Z" transform="translate(-237.204 -338.05)" fill="#3f3d56"/>
      <path id="Path_16554" data-name="Path 16554" d="M291.285,317.5a8.641,8.641,0,0,1,5.548-.19c1.95.483,3.787,1.322,5.707,1.9a19.755,19.755,0,0,0,10.56.2,19.466,19.466,0,0,0,5.531-2.371c.392-.246.03-.87-.364-.622a19.087,19.087,0,0,1-10.162,2.9,18.645,18.645,0,0,1-5.32-.783c-1.906-.571-3.728-1.4-5.659-1.893a9.48,9.48,0,0,0-6.206.237C290.5,317.063,290.865,317.684,291.285,317.5Z" transform="translate(-234.144 -249.602)" fill="#3f3d56"/>
      <circle id="Ellipse_682" data-name="Ellipse 682" cx="11.046" cy="11.046" r="11.046" transform="translate(99.621 156.265)" fill="#fff"/>
      <circle id="Ellipse_683" data-name="Ellipse 683" cx="6.003" cy="6.003" r="6.003" transform="translate(45.112 19.392)" fill="#f2f2f2"/>
      <circle id="Ellipse_684" data-name="Ellipse 684" cx="4.082" cy="4.082" r="4.082" transform="translate(99.621 38.362)" fill="#f2f2f2"/>
      <circle id="Ellipse_685" data-name="Ellipse 685" cx="4.082" cy="4.082" r="4.082" transform="translate(33.346 77.503)" fill="#f2f2f2"/>
      <rect id="Rectangle_813" data-name="Rectangle 813" width="0.45" height="80.501" transform="translate(20.542 51.258)" fill="#fff"/>
      <ellipse id="Ellipse_686" data-name="Ellipse 686" cx="8.778" cy="20.032" rx="8.778" ry="20.032" transform="translate(12.076 84.796)" fill="#fff"/>
      <ellipse id="Ellipse_687" data-name="Ellipse 687" cx="8.778" cy="20.032" rx="8.778" ry="20.032" transform="translate(12.076 39.104)" fill="#fff"/>
      <path id="Path_16555" data-name="Path 16555" d="M96.543,151.84l-.431-.129c.027-.091,2.674-9.16-1.672-15-2.454-3.3-6.666-4.969-12.518-4.969v-.45c6,0,10.337,1.734,12.88,5.152C99.283,142.466,96.571,151.747,96.543,151.84Z" transform="translate(-75.474 -109.07)" fill="#fff"/>
      <circle id="Ellipse_688" data-name="Ellipse 688" cx="5.627" cy="5.627" r="5.627" transform="translate(0.821 16.821)" fill="#fff"/>
      <path id="Path_16556" data-name="Path 16556" d="M812.484,654.615l-4.21,38.732h29.049l1.263-2.947,1.684,2.947h27.365s-2.105-40-5.894-41.258S812.484,654.615,812.484,654.615Z" transform="translate(-627.408 -504.612)" fill="#2f2e41"/>
      <circle id="Ellipse_689" data-name="Ellipse 689" cx="14.735" cy="14.735" r="14.735" transform="translate(195.18 35.489)" fill="#fff"/>
      <path id="Path_16557" data-name="Path 16557" d="M894.013,275.817s1.263,13.472,0,14.314,20.208.421,20.208.421-2.947-12.209,0-18.1Z" transform="translate(-692.519 -216.331)" fill="#fff"/>
      <path id="Path_16558" data-name="Path 16558" d="M833.482,328.489s10.833,1.687,11.732-1.682l5.53,7.576.421,75.781s-45.047,5.473-46.732-3.368,17.261-78.728,17.261-78.728l4.769-.309S832.639,328.489,833.482,328.489Z" transform="translate(-624.409 -257.636)" fill="#d0cde1"/>
      <path id="Path_16559" data-name="Path 16559" d="M773.524,316.375l-7.224,2.5-20.629,5.052.842,50.52s-17.682,50.52-9.683,54.309,19.366-5.052,22.734-11.367,15.156-93.884,15.156-95.568A27.414,27.414,0,0,0,773.524,316.375Z" transform="translate(-571.542 -249.709)" fill="#3f3d56"/>
      <path id="Path_16560" data-name="Path 16560" d="M969.743,316.375l2.853,2.5L992.8,328.14l-10.1,50.941s13.472,46.311,8.42,48.836-12.63,9.683-14.314,5.473S965.206,321.029,969.743,316.375Z" transform="translate(-749.209 -249.709)" fill="#3f3d56"/>
      <path id="Path_16561" data-name="Path 16561" d="M960.868,584.717s-18.945-8-19.366-.842,21.471,12.209,21.471,10.1S960.868,584.717,960.868,584.717Z" transform="translate(-728.64 -450.713)" fill="#fff"/>
      <path id="Path_16562" data-name="Path 16562" d="M810.661,584.528s21.892,16.419,13.472,20.629-19.366-14.735-19.366-14.735Z" transform="translate(-624.744 -453.471)" fill="#fff"/>
      <path id="Path_16563" data-name="Path 16563" d="M881.006,156.244a.813.813,0,0,1,.782-.464c-6.746-.4-13.852.383-19.5,4.1a21.325,21.325,0,0,1-4.856,2.9l1.461,1.145-1.745.532,2.568,1.66a2.226,2.226,0,0,1-2.12.71,3.858,3.858,0,0,1,2.355,2.4,11.412,11.412,0,0,1,.563,3.428c.431-1.675,2.259-2.661,3.986-2.761a17.533,17.533,0,0,1,5.091.879,28.16,28.16,0,0,0,11.177.43c-1.262,2.533-.2,5.554.874,8.174l2.139,5.23c1.188.119,2.027-1.062,2.922-1.852.816-.72-2.431,5.613-1.929,5.381a95.018,95.018,0,0,0,7.868-8.554,19.568,19.568,0,0,0,2.223-9.483,13.83,13.83,0,0,0-3.593-8.939c-1.534-1.615-3.657-1.9-5.222-3.241-.616-.528-.618-.941-1.464-1.249A24.685,24.685,0,0,0,881.006,156.244Z" transform="translate(-664.55 -127.605)" fill="#2f2e41"/>
      <path id="Path_16564" data-name="Path 16564" d="M704.873,349.1l-2.947-1.263L678.35,386.571s-4.21,10.1,3.368,14.735,25.26,18.524,25.26,18.524l10.1-15.577s-20.629-9.683-19.366-13.472,8-13.893,8-13.893Z" transform="translate(-527.796 -273.618)" fill="#3f3d56"/>
      <path id="Path_16565" data-name="Path 16565" d="M1017.41,361.865l5.473.842s22.734,44.627,17.261,53.047-27.786,20.208-27.786,20.208-.421-13.893-4.21-18.945l13.051-5.052-7.157-27.786Z" transform="translate(-779.287 -284.276)" fill="#3f3d56"/>
    </g>
  </g>
</svg>
