<svg xmlns="http://www.w3.org/2000/svg" xmlns:xlink="http://www.w3.org/1999/xlink" width="1920" height="726" viewBox="0 0 1920 726">
  <defs>
    <clipPath id="clip-path">
      <rect id="Rectangle_854" data-name="Rectangle 854" width="1920" height="726" transform="translate(30 302)" fill="#fff" stroke="#707070" stroke-width="1"/>
    </clipPath>
    <clipPath id="clip-path-2">
      <rect id="Rectangle_718" data-name="Rectangle 718" width="1920" height="832" transform="translate(0 287)" fill="#fff" stroke="#707070" stroke-width="1"/>
    </clipPath>
    <linearGradient id="linear-gradient" x1="-34.325" y1="2.528" x2="-33.325" y2="2.528" gradientUnits="objectBoundingBox">
      <stop offset="0" stop-color="#fffdf9"/>
      <stop offset="1" stop-color="#e3e0d9"/>
    </linearGradient>
    <radialGradient id="radial-gradient" cx="239.019" cy="-1349.284" r="19.91" gradientTransform="matrix(0.692, -0.723, 0.723, 0.692, 1018.63, -540.135)" gradientUnits="userSpaceOnUse">
      <stop offset="0.935" stop-color="#fff"/>
      <stop offset="0.949" stop-color="#c2c2c2"/>
      <stop offset="0.974" stop-color="#5a5a5a"/>
      <stop offset="0.992" stop-color="#191919"/>
      <stop offset="1"/>
    </radialGradient>
  </defs>
  <g id="seo-hero" transform="translate(-30 -302)" clip-path="url(#clip-path)">
    <g id="Mask_Group_5" data-name="Mask Group 5" transform="translate(30 -79)" clip-path="url(#clip-path-2)">
      <g id="Group_482" data-name="Group 482">
        <path id="Path_16229" data-name="Path 16229" d="M1407.157,504.983a203.052,203.052,0,0,0-93.967,22.9,148.164,148.164,0,0,0-268.277-75.076,109.79,109.79,0,0,0-88.5-60.889c.169-2.388.262-4.8.262-7.229a100.675,100.675,0,0,0-137.763-93.537,95.425,95.425,0,0,0-60.255-44.918,61.948,61.948,0,1,0-101.57-69.5c-.372.7-.712,1.415-1.052,2.127A95.307,95.307,0,0,0,515.849,301.814,64.889,64.889,0,0,0,411.856,353.6c0,1.868.1,3.716.253,5.544a115.58,115.58,0,0,0-128.477,61.847,155.851,155.851,0,0,0-282.2,78.972A213.576,213.576,0,0,0-97.41,475.871c-118.48,0-214.527,96.047-214.527,214.527S-215.89,904.924-97.41,904.924a214.582,214.582,0,0,0,198.7-133.536H505.064a214.534,214.534,0,0,0,330.668,0H1075.87v70.849h176.943a203.48,203.48,0,0,0,154.344,70.633c112.634,0,203.942-91.308,203.942-203.942S1519.791,504.983,1407.157,504.983Z" transform="translate(-749.451 301.781)" fill="#fff" opacity="0.15"/>
        <path id="Path_16230" data-name="Path 16230" d="M2164.676,491.312a203.014,203.014,0,0,0-93.967,22.9,148.164,148.164,0,0,0-268.277-75.076,109.788,109.788,0,0,0-88.5-60.892c.168-2.388.261-4.8.261-7.229a100.675,100.675,0,0,0-137.763-93.537,95.434,95.434,0,0,0-60.255-44.918,61.948,61.948,0,1,0-101.57-69.5c-.372.7-.712,1.415-1.052,2.127a95.308,95.308,0,0,0-140.186,122.951,64.886,64.886,0,0,0-103.994,51.783c0,1.871.1,3.716.253,5.546a115.562,115.562,0,0,0-128.477,61.845,155.852,155.852,0,0,0-282.2,78.972A213.577,213.577,0,0,0,660.109,462.2c-118.48,0-214.53,96.047-214.53,214.527s96.05,214.53,214.53,214.53c89.821,0,517.732,153.7,549.692,75.369l52.783-208.908a214.528,214.528,0,0,0,330.667,0h240.135v70.848h176.945A203.475,203.475,0,0,0,2164.676,899.2c112.634,0,203.943-91.308,203.943-203.942S2277.31,491.312,2164.676,491.312Z" transform="translate(700.927 285.726)" fill="#fff" opacity="0.13"/>
        <g id="Group_481" data-name="Group 481" transform="translate(289 -724)">
          <circle id="Ellipse_641" data-name="Ellipse 641" cx="157.046" cy="157.046" r="157.046" transform="translate(1050.404 1693.199) rotate(-13.283)" fill="#fff"/>
          <path id="Path_16234" data-name="Path 16234" d="M1301.73,482.008a148.591,148.591,0,0,0-68.816,16.818,108.419,108.419,0,0,0-196.355-54.977,80.362,80.362,0,0,0-64.816-44.6c.123-1.753.211-3.516.211-5.3A73.656,73.656,0,0,0,871.1,325.5a69.84,69.84,0,0,0-44.146-32.908,45.334,45.334,0,1,0-74.312-50.876c-.277.523-.485,1.063-.74,1.593a69.754,69.754,0,0,0-102.639,89.981,47.5,47.5,0,0,0-76.144,37.9c0,1.374.072,2.731.187,4.075a84.5,84.5,0,0,0-94.063,45.295A114.044,114.044,0,0,0,272.7,478.385a157.039,157.039,0,1,0,73.04,198.645H641.355a157.043,157.043,0,0,0,242.06,0h175.8V728.9H1188.8A149.281,149.281,0,1,0,1301.73,482.008Z" transform="translate(-54.652 1128.24)" fill="#fff"/>
          <path id="Path_16235" data-name="Path 16235" d="M306.848,282.339a17.475,17.475,0,1,0-17.475-17.475A17.476,17.476,0,0,0,306.848,282.339Z" transform="translate(222.695 1161.934)" fill="#fff"/>
          <path id="Path_16236" data-name="Path 16236" d="M449.479,270.843c-14.918-67.136-12.757-108.364-12.757-108.364l-21.631-1.818-20.176,2.546s2.348,40.5-12.57,107.637-50.974,104.432-50.974,104.432H500.452S464.4,337.977,449.479,270.843Z" transform="translate(270.023 1064.196)" fill="#fff"/>
          <path id="Path_16281" data-name="Path 16281" d="M496.271,322.471c17.317,3.875,33.167,13.206,47,22.611a65.333,65.333,0,0,0-98.085-21.954C461.713,320.517,478.954,318.594,496.271,322.471Z" transform="translate(398.286 1231.923)" fill="#f1f1f9" opacity="0.73"/>
          <path id="Path_16282" data-name="Path 16282" d="M252.6,400.5a161.169,161.169,0,0,1,63.433,43.244c-.793-10.1-36.177-68.268-102.141-72.494-52.388-3.356-99.888,22.192-128.234,62.01A161.877,161.877,0,0,1,252.6,400.5Z" transform="translate(-52.87 1244.186)" fill="#f1f1f9" opacity="0.73"/>
          <path id="Path_16283" data-name="Path 16283" d="M601.823,461.3a161.183,161.183,0,0,1,74.1,20.078,117.661,117.661,0,0,1,167.794-94.31,107.406,107.406,0,0,0-175.509,71.862,147.858,147.858,0,0,0-213.383,88.014A161.877,161.877,0,0,1,601.823,461.3Z" transform="translate(298.148 1197.392)" fill="#f1f1f9" opacity="0.73"/>
          <g id="DESIGNED_BY_FREEPIK" data-name="DESIGNED BY FREEPIK" transform="translate(541.413 1866.713)">
            <g id="Group_480" data-name="Group 480">
              <g id="Group_479" data-name="Group 479">
                <g id="Group_478" data-name="Group 478">
                  <g id="Group_476" data-name="Group 476" transform="translate(167.597)">
                    <g id="Group_475" data-name="Group 475">
                      <path id="Path_16284" data-name="Path 16284" d="M387.874,466.644a16.086,16.086,0,0,0-2.367,3.105l-.993-.517a1.288,1.288,0,1,0-.715,1.455l.964.5a15.563,15.563,0,0,0-1.151,3.724l1.6.281a14.075,14.075,0,0,1,3.828-7.417Z" transform="translate(-381.968 -457.698)" fill="#fff"/>
                      <path id="Path_16285" data-name="Path 16285" d="M394.015,466.469c-.366,0-.727.013-1.087.034l-.157-1.336a1.531,1.531,0,1,0-1.61.185l.157,1.333a16.172,16.172,0,0,0-4.4,1.378l.7,1.461a14.923,14.923,0,0,1,9.55-1.1l.342-1.585A16.6,16.6,0,0,0,394.015,466.469Z" transform="translate(-376.387 -462.438)" fill="#fff"/>
                      <path id="Path_16286" data-name="Path 16286" d="M400.174,468.435a1.288,1.288,0,1,0-1.446-1.257l-.889.776a16.382,16.382,0,0,0-3.005-2.435l-.864,1.372a14.42,14.42,0,0,1,5.477,6.247l1.474-.668a15.862,15.862,0,0,0-2.012-3.3l.859-.749A1.294,1.294,0,0,0,400.174,468.435Z" transform="translate(-368.443 -458.966)" fill="#fff"/>
                      <path id="Path_16287" data-name="Path 16287" d="M395.259,476.637c-.825.051-1.657.077-2.471.077a34.087,34.087,0,0,1-5.294-.385,18.229,18.229,0,0,1-2.714-.623A13.229,13.229,0,0,0,409,472.762a20.726,20.726,0,0,1-5.251,2.4A36.189,36.189,0,0,1,395.259,476.637Z" transform="translate(-378.799 -450.804)" fill="#fff"/>
                      <path id="Path_16288" data-name="Path 16288" d="M397.136,465.856a12.857,12.857,0,0,0-12.985,12.7,12.565,12.565,0,0,0,.291,2.693c1.44,1.032,5.781,1.9,11.424,1.561,6.151-.37,11.313-2.046,14.25-4.611a12.068,12.068,0,0,0-.1-1.242A12.9,12.9,0,0,0,397.136,465.856Zm-4.611,13.914a3.952,3.952,0,1,1,3.95-3.95A3.956,3.956,0,0,1,392.525,479.77Zm10.118-1.94a2.905,2.905,0,1,1,2.905-2.905A2.909,2.909,0,0,1,402.642,477.831Z" transform="translate(-379.508 -458.586)" fill="#fff"/>
                    </g>
                    <path id="Path_16289" data-name="Path 16289" d="M412.549,470.036a6,6,0,0,0-2.952-.508c-1.176.147-1.8.727-1.8,2.15v1.85h4.76v3.667h-4.76v11.651h-4.126V477.195h-2.859v-3.667h2.859v-1.9c0-3.588,1.914-5.943,5.487-5.943a8.415,8.415,0,0,1,3.395.657Z" transform="translate(-360.737 -458.778)" fill="#fff"/>
                    <path id="Path_16290" data-name="Path 16290" d="M415.542,473.213a7.1,7.1,0,0,0-1.123-.1c-1.912,0-3.224,1.17-3.224,3.446v8.348h-4.128V469.591h4v1.674a4.837,4.837,0,0,1,4.316-2.084,3.833,3.833,0,0,1,2.338.719Z" transform="translate(-353.685 -454.841)" fill="#fff"/>
                    <path id="Path_16291" data-name="Path 16291" d="M426.8,477.226a11.977,11.977,0,0,1-.079,1.391H415.86a3.7,3.7,0,0,0,3.937,3.178,6.2,6.2,0,0,0,3.873-1.47l2.42,2.654a9.3,9.3,0,0,1-6.53,2.327,7.579,7.579,0,0,1-7.952-8.016c0-4.824,3.161-8.11,7.746-8.11C423.763,469.18,426.784,472.451,426.8,477.226ZM415.877,475.8h6.783c-.381-1.961-1.565-3.067-3.337-3.067A3.337,3.337,0,0,0,415.877,475.8Z" transform="translate(-348.566 -454.841)" fill="#fff"/>
                    <path id="Path_16292" data-name="Path 16292" d="M434.487,477.226a11.984,11.984,0,0,1-.079,1.391H423.546a3.7,3.7,0,0,0,3.937,3.178,6.2,6.2,0,0,0,3.873-1.47l2.42,2.654a9.3,9.3,0,0,1-6.532,2.327,7.578,7.578,0,0,1-7.95-8.016c0-4.824,3.161-8.11,7.746-8.11C431.449,469.18,434.47,472.451,434.487,477.226ZM423.563,475.8h6.781c-.379-1.961-1.565-3.067-3.335-3.067A3.337,3.337,0,0,0,423.563,475.8Z" transform="translate(-339.905 -454.841)" fill="#fff"/>
                    <path id="Path_16293" data-name="Path 16293" d="M443.314,477.241c0,4.6-3.195,8.065-7.417,8.065a5.607,5.607,0,0,1-4.5-1.993v7.921h-4.111V469.591h4.03v1.691a5.558,5.558,0,0,1,4.569-2.1C440.119,469.18,443.314,472.643,443.314,477.241Zm-12.128,0a3.953,3.953,0,1,0,3.937-4.22A3.933,3.933,0,0,0,431.186,477.241Z" transform="translate(-330.904 -454.841)" fill="#fff"/>
                    <path id="Path_16294" data-name="Path 16294" d="M440.724,468.424a2.632,2.632,0,1,1-2.639-2.656A2.62,2.62,0,0,1,440.724,468.424Zm-.555,20.331h-4.124V473.437h4.124Z" transform="translate(-321.687 -458.687)" fill="#fff"/>
                    <path id="Path_16295" data-name="Path 16295" d="M443.1,478.773l5.772-5.453h5.058l-7.429,7.208,7.476,8.11H448.9l-5.8-6.2v6.2h-4.126V465.871H443.1Z" transform="translate(-317.729 -458.57)" fill="#fff"/>
                  </g>
                  <g id="Group_477" data-name="Group 477" transform="translate(0 9.06)">
                    <path id="Path_16296" data-name="Path 16296" d="M315,487.569v-2.255a6.358,6.358,0,0,1-5.1,2.629c-3.943,0-6.727-3-6.727-7.916,0-4.817,2.754-7.948,6.727-7.948a6.313,6.313,0,0,1,5.1,2.661V466.7h2.348v20.871Zm0-4.1v-6.851a5.668,5.668,0,0,0-4.537-2.442c-3.033,0-4.849,2.5-4.849,5.851s1.816,5.819,4.849,5.819A5.615,5.615,0,0,0,315,483.469Z" transform="translate(-303.17 -466.698)" fill="#fff"/>
                    <path id="Path_16297" data-name="Path 16297" d="M311.261,477.144c0-4.379,3.129-7.916,7.446-7.916,4.569,0,7.257,3.569,7.257,8.106v.593H313.733a5.325,5.325,0,0,0,5.443,5.226,6.609,6.609,0,0,0,4.662-1.908l1.125,1.531a8.2,8.2,0,0,1-6.006,2.316C314.483,485.093,311.261,481.87,311.261,477.144Zm7.414-5.975a5.041,5.041,0,0,0-4.943,5.037h9.918A4.9,4.9,0,0,0,318.676,471.17Z" transform="translate(-294.052 -463.847)" fill="#fff"/>
                    <path id="Path_16298" data-name="Path 16298" d="M318.969,482.715l1.219-1.689a6.854,6.854,0,0,0,4.975,2.159c2.316,0,3.567-1.1,3.567-2.6,0-3.663-9.354-1.408-9.354-7.01,0-2.346,2.033-4.35,5.63-4.35a7.656,7.656,0,0,1,5.6,2.191l-1.1,1.627a5.884,5.884,0,0,0-4.507-1.908c-2.063,0-3.346,1.031-3.346,2.378,0,3.316,9.354,1.125,9.354,7.008,0,2.535-2.033,4.569-5.945,4.569A8.033,8.033,0,0,1,318.969,482.715Z" transform="translate(-285.366 -463.847)" fill="#fff"/>
                    <path id="Path_16299" data-name="Path 16299" d="M325.868,468.5a1.579,1.579,0,1,1,3.158,0,1.579,1.579,0,0,1-3.158,0Zm.406,18.838V472.224h2.348v15.114Z" transform="translate(-277.591 -466.466)" fill="#fff"/>
                    <path id="Path_16300" data-name="Path 16300" d="M329.433,488.6l1.189-1.753a5.768,5.768,0,0,0,4.911,2.065c2.5,0,4.851-1.221,4.851-4.537v-2.159a6.318,6.318,0,0,1-5.068,2.69c-3.943,0-6.728-2.942-6.728-7.823,0-4.849,2.752-7.855,6.728-7.855a6.261,6.261,0,0,1,5.068,2.661V469.6h2.346V484.28c0,5-3.505,6.57-7.2,6.57A7.732,7.732,0,0,1,329.433,488.6Zm10.952-8.229v-6.6a5.571,5.571,0,0,0-4.507-2.442c-3.035,0-4.847,2.41-4.847,5.758,0,3.316,1.812,5.758,4.847,5.758A5.6,5.6,0,0,0,340.385,480.369Z" transform="translate(-274.525 -463.847)" fill="#fff"/>
                    <path id="Path_16301" data-name="Path 16301" d="M347.277,484.718V474.83c0-2.661-1.344-3.505-3.38-3.505a5.836,5.836,0,0,0-4.473,2.346v11.047h-2.348V469.6h2.348V471.8a7.492,7.492,0,0,1,5.381-2.567c3.161,0,4.82,1.6,4.82,4.881v10.609Z" transform="translate(-264.961 -463.847)" fill="#fff"/>
                    <path id="Path_16302" data-name="Path 16302" d="M344.4,477.144c0-4.379,3.129-7.916,7.446-7.916,4.569,0,7.259,3.569,7.259,8.106v.593H346.876a5.323,5.323,0,0,0,5.443,5.226,6.612,6.612,0,0,0,4.662-1.908l1.125,1.531a8.2,8.2,0,0,1-6.006,2.316C347.626,485.093,344.4,481.87,344.4,477.144Zm7.414-5.975a5.037,5.037,0,0,0-4.941,5.037h9.916A4.9,4.9,0,0,0,351.816,471.17Z" transform="translate(-256.705 -463.847)" fill="#fff"/>
                    <path id="Path_16303" data-name="Path 16303" d="M364.144,487.569v-2.255a6.358,6.358,0,0,1-5.1,2.629c-3.941,0-6.727-3-6.727-7.916,0-4.817,2.754-7.948,6.727-7.948a6.32,6.32,0,0,1,5.1,2.661V466.7h2.346v20.871Zm0-4.1v-6.851a5.675,5.675,0,0,0-4.537-2.442c-3.035,0-4.849,2.5-4.849,5.851s1.814,5.819,4.849,5.819A5.621,5.621,0,0,0,364.144,483.469Z" transform="translate(-247.787 -466.698)" fill="#fff"/>
                    <path id="Path_16304" data-name="Path 16304" d="M364.246,487.569V466.7h2.346v8.042a6.275,6.275,0,0,1,5.1-2.661c3.941,0,6.727,3.131,6.727,7.948,0,4.913-2.786,7.916-6.727,7.916a6.365,6.365,0,0,1-5.1-2.629v2.255Zm6.853-1.723c3.065,0,4.881-2.472,4.881-5.819s-1.816-5.851-4.881-5.851a5.618,5.618,0,0,0-4.507,2.442v6.851A5.564,5.564,0,0,0,371.1,485.847Z" transform="translate(-234.343 -466.698)" fill="#fff"/>
                    <path id="Path_16305" data-name="Path 16305" d="M373.062,488.3a3.627,3.627,0,0,0,1.283.249,2.172,2.172,0,0,0,2.252-1.6l1-2.284-6.321-15.269h2.535l5.037,12.391,5.009-12.391h2.563l-7.572,18.179a4.494,4.494,0,0,1-4.441,3.067,7.488,7.488,0,0,1-1.723-.221Z" transform="translate(-226.419 -463.648)" fill="#fff"/>
                  </g>
                </g>
              </g>
            </g>
          </g>
        </g>
      </g>
    </g>
    <path id="Path_16598" data-name="Path 16598" d="M-14498,508.685V662.168l-1918.27,6.826V515.512s506.717,115.713,986.284,114.006S-14498,508.685-14498,508.685Z" transform="translate(16448 371)" fill="#fff"/>
    <g id="Group_572" data-name="Group 572" transform="translate(942.936 380.785)">
      <g id="Group_462" data-name="Group 462" transform="translate(0 167.468)">
        <path id="Path_16240" data-name="Path 16240" d="M361.771,156.322a294.1,294.1,0,0,0,10.706,38.412q-1.508.466-2.984.982a337.527,337.527,0,0,1-14.219-34.054A60.761,60.761,0,0,1,361.771,156.322Z" transform="translate(-336.076 -156.322)" fill="#ffb0a3"/>
        <path id="Path_16241" data-name="Path 16241" d="M349.828,213.563a.1.1,0,0,1-.174-.046,60.8,60.8,0,0,1,18.211-55.357,337.527,337.527,0,0,0,14.219,34.054C368.838,196.822,357.637,204.275,349.828,213.563Z" transform="translate(-348.666 -152.82)" fill="#ff7364"/>
      </g>
      <path id="Path_16242" data-name="Path 16242" d="M429.244,304.065c11.834-33.758,18.1-69.242,14.634-104.391-3.588-36.414-18.031-72.5-44.572-100.992-26.125,28.685-40.048,64.872-43.113,101.309-2.955,35.176,3.824,70.61,16.142,104.281a97.078,97.078,0,0,1,56.908-.206Z" transform="translate(-335.636 -98.682)" fill="url(#linear-gradient)"/>
      <path id="Path_16243" data-name="Path 16243" d="M380.885,194.563a294.549,294.549,0,0,0,10.7-38.412,60.919,60.919,0,0,1,24.711,60.7.1.1,0,0,1-.177.046C407.734,206.917,395.432,199.052,380.885,194.563Z" transform="translate(-287.277 10.82)" fill="#00d6a9"/>
      <path id="Path_16244" data-name="Path 16244" d="M380.885,194.563a294.549,294.549,0,0,0,10.7-38.412,60.919,60.919,0,0,1,24.711,60.7.1.1,0,0,1-.177.046C407.734,206.917,395.432,199.052,380.885,194.563Z" transform="translate(-287.277 10.82)" fill="#00d6a9"/>
      <g id="Group_463" data-name="Group 463" transform="translate(93.608 166.971)">
        <path id="Path_16245" data-name="Path 16245" d="M391.589,156.151a294.549,294.549,0,0,1-10.7,38.412c1.005.311,2,.639,2.981.982a336.576,336.576,0,0,0,14.219-34.054A60.489,60.489,0,0,0,391.589,156.151Z" transform="translate(-380.885 -156.151)" fill="#ffb0a3"/>
        <path id="Path_16246" data-name="Path 16246" d="M414.167,213.392a.1.1,0,0,0,.177-.046,60.815,60.815,0,0,0-18.214-55.357,336.562,336.562,0,0,1-14.219,34.054C395.157,196.651,406.36,204.1,414.167,213.392Z" transform="translate(-378.93 -152.649)" fill="#ff7364"/>
      </g>
      <path id="Path_16247" data-name="Path 16247" d="M389.22,98.682A163.566,163.566,0,0,0,360.8,142.3l57.469-.206A165.188,165.188,0,0,0,389.22,98.682Z" transform="translate(-325.549 -98.682)" fill="#ff7364"/>
      <path id="Path_16248" data-name="Path 16248" d="M375.229,295.775c-.131-.32-.3-.718-.491-1.191-.549-1.406-1.459-3.423-2.4-6.084-.488-1.325-1.029-2.8-1.618-4.39-.561-1.607-1.127-3.359-1.752-5.224s-1.209-3.876-1.868-5.985-1.214-4.364-1.871-6.7c-.636-2.342-1.206-4.8-1.848-7.339-.567-2.554-1.148-5.2-1.671-7.929-1.066-5.462-2.025-11.264-2.743-17.308-.68-6.046-1.185-12.325-1.342-18.731a182.475,182.475,0,0,1,.616-19.437c.581-6.441,1.357-12.883,2.391-19.176,1.011-6.3,2.289-12.458,3.768-18.359s3.222-11.532,5.09-16.787a141.677,141.677,0,0,1,6.058-14.5,113.724,113.724,0,0,1,6.409-11.613c2.089-3.347,4.129-6.119,5.849-8.353s3.2-3.89,4.213-5.009l.875-.941c.384-.415.439-.372.119.093l-.726,1.06c-.854,1.235-2.042,3.091-3.5,5.471-1.438,2.394-3.091,5.349-4.84,8.8-1.732,3.463-3.51,7.452-5.262,11.872-1.734,4.428-3.391,9.3-4.968,14.51-1.537,5.224-2.923,10.8-4.169,16.6q-.92,4.358-1.735,8.882c-.514,3.016-1.026,6.072-1.47,9.164-.883,6.186-1.633,12.487-2.176,18.827-.558,6.3-.793,12.589-.782,18.821.052,6.226.372,12.363.816,18.3.517,5.93,1.1,11.668,1.871,17.087.357,2.717.831,5.337,1.194,7.894.445,2.539.825,5.006,1.276,7.356.9,4.707,1.772,9.018,2.609,12.83.433,1.9.857,3.678,1.212,5.334.4,1.642.767,3.149,1.1,4.512.651,2.731,1.238,4.872,1.6,6.334.125.5.23.912.314,1.249C375.511,296.278,375.447,296.3,375.229,295.775Z" transform="translate(-331.69 -95.337)" fill="#fff"/>
      <g id="Group_464" data-name="Group 464" transform="translate(40.337 60.241)" opacity="0.5">
        <path id="Path_16249" data-name="Path 16249" d="M362.966,144.153a23.942,23.942,0,1,0,23.769-24.025A24.043,24.043,0,0,0,362.966,144.153Z" transform="translate(-361.757 -118.059)" fill="none" opacity="0"/>
        <path id="Path_16250" data-name="Path 16250" d="M362.95,144.126A23.942,23.942,0,1,0,386.72,120.1,24.04,24.04,0,0,0,362.95,144.126Z" transform="translate(-361.788 -118.111)" fill="#272425" opacity="0.038"/>
        <path id="Path_16251" data-name="Path 16251" d="M362.934,144.1A23.942,23.942,0,1,0,386.7,120.073,24.042,24.042,0,0,0,362.934,144.1Z" transform="translate(-361.818 -118.164)" fill="#272425" opacity="0.077"/>
        <path id="Path_16252" data-name="Path 16252" d="M362.918,144.071a23.942,23.942,0,1,0,23.769-24.025A24.043,24.043,0,0,0,362.918,144.071Z" transform="translate(-361.849 -118.216)" fill="#272425" opacity="0.115"/>
        <path id="Path_16253" data-name="Path 16253" d="M362.9,144.044a23.942,23.942,0,1,0,23.769-24.025A24.04,24.04,0,0,0,362.9,144.044Z" transform="translate(-361.879 -118.267)" fill="#272425" opacity="0.154"/>
        <path id="Path_16254" data-name="Path 16254" d="M362.886,144.019a23.942,23.942,0,1,0,23.769-24.028A24.042,24.042,0,0,0,362.886,144.019Z" transform="translate(-361.91 -118.32)" fill="#272425" opacity="0.192"/>
        <path id="Path_16255" data-name="Path 16255" d="M362.87,143.989a23.942,23.942,0,1,0,23.769-24.025A24.045,24.045,0,0,0,362.87,143.989Z" transform="translate(-361.94 -118.372)" fill="#272425" opacity="0.231"/>
        <path id="Path_16256" data-name="Path 16256" d="M362.854,143.964a23.942,23.942,0,1,0,23.769-24.028A24.04,24.04,0,0,0,362.854,143.964Z" transform="translate(-361.971 -118.425)" fill="#272425" opacity="0.269"/>
        <path id="Path_16257" data-name="Path 16257" d="M362.839,143.934a23.942,23.942,0,1,0,23.769-24.025A24.045,24.045,0,0,0,362.839,143.934Z" transform="translate(-362.001 -118.477)" fill="#272425" opacity="0.308"/>
        <path id="Path_16258" data-name="Path 16258" d="M362.822,143.907a23.942,23.942,0,1,0,23.769-24.025A24.047,24.047,0,0,0,362.822,143.907Z" transform="translate(-362.032 -118.528)" fill="#272425" opacity="0.346"/>
        <path id="Path_16259" data-name="Path 16259" d="M362.806,143.882a23.942,23.942,0,1,0,23.769-24.028A24.042,24.042,0,0,0,362.806,143.882Z" transform="translate(-362.062 -118.581)" fill="#272425" opacity="0.385"/>
        <path id="Path_16260" data-name="Path 16260" d="M362.79,143.852a23.942,23.942,0,1,0,23.769-24.025A24.045,24.045,0,0,0,362.79,143.852Z" transform="translate(-362.092 -118.633)" fill="#272425" opacity="0.423"/>
        <path id="Path_16261" data-name="Path 16261" d="M362.774,143.825A23.942,23.942,0,1,0,386.544,119.8,24.042,24.042,0,0,0,362.774,143.825Z" transform="translate(-362.123 -118.684)" fill="#272425" opacity="0.462"/>
        <path id="Path_16262" data-name="Path 16262" d="M362.758,143.8a23.942,23.942,0,1,0,23.769-24.028A24.044,24.044,0,0,0,362.758,143.8Z" transform="translate(-362.153 -118.738)" fill="#272425" opacity="0.5"/>
        <path id="Path_16263" data-name="Path 16263" d="M362.742,143.77a23.942,23.942,0,1,0,23.769-24.025A24.045,24.045,0,0,0,362.742,143.77Z" transform="translate(-362.184 -118.789)" fill="#272425" opacity="0.538"/>
        <path id="Path_16264" data-name="Path 16264" d="M362.727,143.743A23.942,23.942,0,1,0,386.5,119.718,24.042,24.042,0,0,0,362.727,143.743Z" transform="translate(-362.214 -118.841)" fill="#272425" opacity="0.577"/>
        <path id="Path_16265" data-name="Path 16265" d="M362.71,143.715A23.942,23.942,0,1,0,386.48,119.69,24.045,24.045,0,0,0,362.71,143.715Z" transform="translate(-362.245 -118.894)" fill="#272425" opacity="0.615"/>
        <path id="Path_16266" data-name="Path 16266" d="M362.694,143.688a23.942,23.942,0,1,0,23.769-24.025A24.045,24.045,0,0,0,362.694,143.688Z" transform="translate(-362.275 -118.945)" fill="#272425" opacity="0.654"/>
        <path id="Path_16267" data-name="Path 16267" d="M362.678,143.663a23.942,23.942,0,1,0,23.769-24.028A24.042,24.042,0,0,0,362.678,143.663Z" transform="translate(-362.306 -118.999)" fill="#272425" opacity="0.692"/>
        <path id="Path_16268" data-name="Path 16268" d="M362.662,143.633a23.942,23.942,0,1,0,23.769-24.025A24.045,24.045,0,0,0,362.662,143.633Z" transform="translate(-362.336 -119.05)" fill="#272425" opacity="0.731"/>
        <path id="Path_16269" data-name="Path 16269" d="M362.646,143.606a23.942,23.942,0,1,0,23.769-24.025A24.042,24.042,0,0,0,362.646,143.606Z" transform="translate(-362.367 -119.102)" fill="#272425" opacity="0.769"/>
        <path id="Path_16270" data-name="Path 16270" d="M362.631,143.581A23.942,23.942,0,1,0,386.4,119.553,24.042,24.042,0,0,0,362.631,143.581Z" transform="translate(-362.397 -119.155)" fill="#272425" opacity="0.808"/>
        <path id="Path_16271" data-name="Path 16271" d="M362.615,143.551a23.942,23.942,0,1,0,23.769-24.025A24.045,24.045,0,0,0,362.615,143.551Z" transform="translate(-362.428 -119.206)" fill="#272425" opacity="0.846"/>
        <path id="Path_16272" data-name="Path 16272" d="M362.6,143.526A23.942,23.942,0,1,0,386.368,119.5,24.042,24.042,0,0,0,362.6,143.526Z" transform="translate(-362.458 -119.26)" fill="#272425" opacity="0.885"/>
        <path id="Path_16273" data-name="Path 16273" d="M362.582,143.5a23.942,23.942,0,1,0,23.769-24.025A24.043,24.043,0,0,0,362.582,143.5Z" transform="translate(-362.489 -119.311)" fill="#272425" opacity="0.923"/>
        <path id="Path_16274" data-name="Path 16274" d="M362.566,143.469a23.942,23.942,0,1,0,23.769-24.025A24.047,24.047,0,0,0,362.566,143.469Z" transform="translate(-362.519 -119.363)" fill="#272425" opacity="0.962"/>
        <path id="Path_16275" data-name="Path 16275" d="M362.551,143.444a23.942,23.942,0,1,0,23.769-24.028A24.042,24.042,0,0,0,362.551,143.444Z" transform="translate(-362.55 -119.416)" fill="#272425"/>
      </g>
      <path id="Path_16276" data-name="Path 16276" d="M362.551,143.444a23.942,23.942,0,1,0,23.769-24.028A24.042,24.042,0,0,0,362.551,143.444Z" transform="translate(-322.213 -59.175)" fill="#40484e"/>
      <path id="Path_16277" data-name="Path 16277" d="M385.86,160.147a19.7,19.7,0,1,1,17.45-17.633A19.795,19.795,0,0,1,385.86,160.147Z" transform="translate(-319.426 -56.387)" fill="#3639a3"/>
      <path id="Path_16278" data-name="Path 16278" d="M371.09,145.727l-.244-.142a7.1,7.1,0,0,1-.663-.43,9.959,9.959,0,0,1-.967-.782,11.588,11.588,0,0,1-1.124-1.171,12.692,12.692,0,0,1-1.13-1.578,13.327,13.327,0,0,1-.97-1.955,13.885,13.885,0,0,1-.944-4.663l-.009-.305.006-.317.017-.569c.026-.421.067-.843.131-1.232a12.938,12.938,0,0,1,2.441-5.91,10.585,10.585,0,0,1,1.058-1.223,9.57,9.57,0,0,1,.924-.825,7.4,7.4,0,0,1,.877-.616l-.485.938a25.944,25.944,0,0,0-1.1,2.446c-.192.508-.375,1.06-.546,1.647a17.711,17.711,0,0,0-.445,1.848,18.31,18.31,0,0,0-.273,1.99c-.038.349-.035.671-.058,1l-.006.558v.25l.012.259a18.655,18.655,0,0,0,.54,4.033c.171.633.337,1.255.552,1.825s.418,1.122.633,1.621c.235.491.45.95.66,1.354l.572,1.031Z" transform="translate(-317.472 -50.424)" fill="#f0f1f1"/>
      <path id="circle_shadow" data-name="circle shadow" d="M398.879,128.081a19.659,19.659,0,1,0,.18,24.865A19.7,19.7,0,0,0,398.879,128.081Zm-.691,24.161a18.609,18.609,0,1,1-.169-23.452A18.585,18.585,0,0,1,398.188,152.243Z" transform="translate(-319.417 -56.387)" opacity="0.5" fill="url(#radial-gradient)"/>
      <path id="Path_16279" data-name="Path 16279" d="M373.51,217.376c4.062-17.069,3.832-44.307-.546-61.176-4.134,16.9-3.972,44.139.34,61.176A.107.107,0,0,0,373.51,217.376Z" transform="translate(-308.087 10.913)" fill="#e86354"/>
    </g>
  </g>
</svg>
