<svg xmlns="http://www.w3.org/2000/svg" width="1025.963" height="888.16" viewBox="0 0 1025.963 888.16">
  <g id="shape-illustration" transform="translate(0.535 0.53)">
    <path id="color" d="M784.348,824.1c158.439-158.439,175.439-427.1,36.3-566.364-119.9-119.842-403.992-214.4-662.069-63.943C60.452,255.978-6.879,334.5.561,490.218,17.016,622.161,57.67,660.152,35.769,740.249Q24.1,778.663,12.479,824.4c-6.715,31.216,0,53.66,18.149,61.1,19.782,6.655,47.368,5.687,76.709,1.875,23.836-3.388,50.333-11.252,77.738-11.675C249.684,926.94,572.854,1035.835,784.348,824.1Z" transform="translate(110.444 -62)" fill="#3639a4"/>
    <path id="Path_16197" data-name="Path 16197" d="M725.911,478.476l14.537-2.557h0l14.527-2.608a16.524,16.524,0,0,0,13.195-18.475,301.481,301.481,0,0,1,230.342-331.1,16.524,16.524,0,0,0,12.734-18.8l-2.607-14.529-2.617-14.582a15.251,15.251,0,0,0-18.232-12.417,362.444,362.444,0,0,0-279.806,402.27A15.249,15.249,0,0,0,725.911,478.476Z" transform="translate(-704.711 -63.052)" fill="#fff" stroke="#d6d9de" stroke-width="1"/>
    <path id="Path_16198" data-name="Path 16198" d="M774.412,428.28c10.126-8.61,24.98-12.661,34.186-10.858,9.327,2.78,18.027,10.272,20.213,19.658,1.043,9.079-8.461,27.225-28.367,26.824-10.465-.788-19.064-11.95-25.985-20.682C769.637,436.812,770.077,432.461,774.412,428.28Z" transform="translate(-589.701 -56.056)" fill="#ffb0a3"/>
    <g id="Group_429" data-name="Group 429" transform="translate(33.962 508.81)">
      <path id="Path_16199" data-name="Path 16199" d="M945.541,729.437c37.479-37.478,41.5-101.032,8.586-133.975-28.364-28.35-95.566-50.716-156.615-15.126-23.212,14.711-39.14,33.286-37.38,70.121,3.892,31.212,13.51,40.2,8.329,59.146q-2.763,9.088-5.51,19.907c-1.589,7.384,0,12.693,4.293,14.453,4.68,1.574,11.205,1.345,18.146.444,5.638-.8,11.907-2.662,18.389-2.762C819.064,753.765,895.511,779.523,945.541,729.437Z" transform="translate(-760 -562)" fill="#ffb0a3"/>
    </g>
  </g>
</svg>
