<svg xmlns="http://www.w3.org/2000/svg" xmlns:xlink="http://www.w3.org/1999/xlink" width="151.654" height="35.712" viewBox="0 0 151.654 35.712">
  <defs>
    <linearGradient id="linear-gradient" x1="0.489" x2="0.296" y2="0.938" gradientUnits="objectBoundingBox">
      <stop offset="0" stop-color="#fff" stop-opacity="0"/>
      <stop offset="1" stop-color="#ebf9ff"/>
    </linearGradient>
    <linearGradient id="linear-gradient-2" x1="0.747" y1="0.073" x2="0.5" y2="1" gradientUnits="objectBoundingBox">
      <stop offset="0" stop-color="#80e7ff"/>
      <stop offset="1" stop-color="#80e7ff"/>
    </linearGradient>
    <clipPath id="clip-path">
      <rect id="Rectangle_3" data-name="Rectangle 3" width="10.713" height="21.427" fill="#fff"/>
    </clipPath>
    <clipPath id="clip-path-2">
      <rect id="Rectangle_4" data-name="Rectangle 4" width="10.713" height="21.427" fill="url(#linear-gradient)"/>
    </clipPath>
    <linearGradient id="linear-gradient-3" x1="0.489" x2="0.296" y2="0.938" gradientUnits="objectBoundingBox">
      <stop offset="0" stop-color="#4789fe"/>
      <stop offset="1" stop-color="#4653fd"/>
    </linearGradient>
    <clipPath id="clip-path-3">
      <rect id="Rectangle_5" data-name="Rectangle 5" width="5.357" height="10.713" fill="url(#linear-gradient-2)"/>
    </clipPath>
    <clipPath id="clip-path-4">
      <rect id="Rectangle_10" data-name="Rectangle 10" width="3.846" height="10.713" fill="#7cd9ef"/>
    </clipPath>
  </defs>
  <g id="creabik" transform="translate(-1301.672 -7593)">
    <g id="Group_25" data-name="Group 25" transform="translate(1301.672 7593)">
      <path id="Ellipse_1" data-name="Ellipse 1" d="M17.856,0A17.856,17.856,0,1,1,0,17.856,17.856,17.856,0,0,1,17.856,0Z" transform="translate(0 0)" fill="#fff"/>
      <g id="Mask_Group_1" data-name="Mask Group 1" transform="translate(8.653 7.142)" clip-path="url(#clip-path)">
        <circle id="Ellipse_2" data-name="Ellipse 2" cx="10.713" cy="10.713" r="10.713" transform="translate(0 0)" fill="#fff"/>
      </g>
      <g id="Mask_Group_2" data-name="Mask Group 2" transform="translate(8.653 7.142)" clip-path="url(#clip-path-2)">
        <circle id="Ellipse_3" data-name="Ellipse 3" cx="10.713" cy="10.713" r="10.713" transform="translate(0 0)" fill="url(#linear-gradient-3)"/>
      </g>
      <g id="Mask_Group_3" data-name="Mask Group 3" transform="translate(19.366 17.856)" clip-path="url(#clip-path-3)">
        <circle id="Ellipse_4" data-name="Ellipse 4" cx="5.357" cy="5.357" r="5.357" transform="translate(-5.357 0)" fill="url(#linear-gradient-2)"/>
      </g>
      <g id="Mask_Group_6" data-name="Mask Group 6" transform="translate(19.366 17.856)" clip-path="url(#clip-path-4)">
        <circle id="Ellipse_7" data-name="Ellipse 7" cx="4.052" cy="4.052" r="4.052" transform="translate(-4.258 0)" fill="#7cd9ef"/>
      </g>
    </g>
    <g id="Group_26" data-name="Group 26" transform="translate(1344.029 7599.854)">
      <path id="Path_2" data-name="Path 2" d="M13.78-107.3a7.678,7.678,0,0,0-5.353,2.045A6.8,6.8,0,0,0,6.2-100.023,6.969,6.969,0,0,0,8.427-94.73a7.572,7.572,0,0,0,5.353,2.075,7.206,7.206,0,0,0,5.864-2.767L16.7-97.587a3.421,3.421,0,0,1-2.917,1.413,3.962,3.962,0,0,1-2.767-1.083,3.659,3.659,0,0,1-1.173-2.767,3.381,3.381,0,0,1,1.173-2.677,4.072,4.072,0,0,1,2.767-1.053,3.4,3.4,0,0,1,2.917,1.383l2.917-2.2A7.3,7.3,0,0,0,13.78-107.3Zm12.631,9.383q0-5.955,3.519-5.955a5.018,5.018,0,0,1,2.135.391l.632-3.308a4.969,4.969,0,0,0-2.316-.511c-1.714,0-3.278,1.2-3.97,3.609V-107H22.742v14.045h3.669Zm21.924-2.105a7.116,7.116,0,0,0-2.045-5.263,6.867,6.867,0,0,0-5.083-2.015,7.171,7.171,0,0,0-5.173,2.015,6.933,6.933,0,0,0-2.105,5.263A7.114,7.114,0,0,0,36.035-94.7a7.2,7.2,0,0,0,5.173,2.045c2.8,0,5.353-1.113,6.556-3.4l-2.8-1.5a3.913,3.913,0,0,1-3.519,1.8,3.6,3.6,0,0,1-3.88-3.007h10.71c.03-.449.06-.87.06-1.261Zm-10.8-1.233a3.489,3.489,0,0,1,3.7-2.977,3.343,3.343,0,0,1,3.519,2.977Zm28.21,8.3V-107H62.079v1.744a5.286,5.286,0,0,0-4.361-2.045,7.068,7.068,0,0,0-5.052,2.045,6.933,6.933,0,0,0-2.1,5.263A7.023,7.023,0,0,0,52.7-94.7a7.02,7.02,0,0,0,5.022,2.015,5.447,5.447,0,0,0,4.361-2.075v1.8Zm-3.669-7.037c.15,3.489-4.361,4.962-6.586,2.737a3.629,3.629,0,0,1-1.143-2.737A3.519,3.519,0,0,1,55.49-102.7a3.891,3.891,0,0,1,2.737-1.083,3.824,3.824,0,0,1,2.677,1.023,3.483,3.483,0,0,1,1.175,2.766Zm15.278,3.819a3.7,3.7,0,0,1-2.69-1.126,3.7,3.7,0,0,1-1.039-2.724,3.517,3.517,0,0,1,1.113-2.737,3.761,3.761,0,0,1,2.616-1.053,3.627,3.627,0,0,1,2.672,1.092,3.627,3.627,0,0,1,1.028,2.7A3.66,3.66,0,0,1,80.039-97.3a3.66,3.66,0,0,1-2.682,1.125ZM73.568-94.85a4.937,4.937,0,0,0,4.391,2.2,6.63,6.63,0,0,0,4.871-2.02,7.165,7.165,0,0,0,2.015-5.293,7.118,7.118,0,0,0-2.015-5.293,6.659,6.659,0,0,0-4.872-2.045,4.882,4.882,0,0,0-4.391,2.165v-9.5H69.9v21.684h3.669ZM88.123-107v14.045h3.639V-107Zm1.835-3.218a2.26,2.26,0,0,0,1.622-.63,2.26,2.26,0,0,0,.694-1.6,2.236,2.236,0,0,0-.7-1.587,2.236,2.236,0,0,0-1.62-.613,2.29,2.29,0,0,0-2.376,2.2,2.3,2.3,0,0,0,.726,1.606,2.3,2.3,0,0,0,1.65.62Zm19.488,17.263-7.158-7.879L108.183-107h-4.752l-3.88,4.21v-11.849H95.913v21.684h3.639V-98.97l5.293,6.015Z" transform="translate(-6.201 114.639)" fill="#fff"/>
      <path id="Path_5" data-name="Path 5" d="M1.588-13.279v2.988h.547v-2.988H3.163v-.5H.56v.5Zm2.816-.5H3.928L3.5-10.29h.54l.3-2.492,1.028,2.1h.456l1.023-2.1.3,2.492h.537l-.425-3.49H6.774L5.589-11.293Z" transform="translate(101.613 13.785)" fill="#fff"/>
    </g>
  </g>
</svg>
