<svg xmlns="http://www.w3.org/2000/svg" width="158.158" height="46.015" viewBox="0 0 158.158 46.015">
  <path id="digikit-logo" d="M-98.959-53.655v10.406a12.215,12.215,0,0,0-6.5-1.816c-8.027,0-13.746,5.808-13.746,13.938s5.718,13.965,13.746,13.965a12.1,12.1,0,0,0,7.891-2.828l.85,1.943h6.668V-53.655Zm-5.3,28.514a5.769,5.769,0,0,1-5.856-5.986,5.769,5.769,0,0,1,5.856-5.987A5.769,5.769,0,0,1-98.4-31.127,5.769,5.769,0,0,1-104.254-25.141ZM-84.4-18.048h9.011V-44.209H-84.4Zm35.643-26.16-1.143,2.2a12.615,12.615,0,0,0-8.251-3.032A12.824,12.824,0,0,0-71.223-31.888,12.753,12.753,0,0,0-58.15-18.739,12.673,12.673,0,0,0-51.323-20.7v.781c0,3.111-2.427,5.03-5.446,5.03-2.189,0-4.422-.942-5.046-2.691h-8.7c1.2,6.2,6.4,9.943,13.825,9.943,8.641,0,14.023-5.093,14.023-13.314V-44.208Zm-7.9,18.05a5.45,5.45,0,0,1-5.584-5.73,5.459,5.459,0,0,1,5.585-5.7,5.438,5.438,0,0,1,5.564,5.7,5.45,5.45,0,0,1-5.564,5.73Zm19.685,8.11h9.011V-44.209H-36.97Zm41.255,0L-4.693-31.74,3.46-44.208H-6.658L-12.89-33.959v-19.7H-21.9v35.608h9.011V-29.11l6.552,11.063Zm2.346,0h9.011V-44.209H6.632ZM35.495-25.94a2.775,2.775,0,0,1-3.032-3v-8.325h6.345v-6.939H32.236v-7.649H30.385L18.664-39.375v2.106h4.788V-27.4c0,5.814,3.516,9.35,9.3,9.35h6.2V-25.94Z" transform="translate(119.205 53.655)" fill="#fff"/>
</svg>
