<svg xmlns="http://www.w3.org/2000/svg" width="484.078" height="109.487" viewBox="0 0 484.078 109.487">
  <g id="logo" transform="translate(3174.563 4057)">
    <g id="Group_70" data-name="Group 70" transform="translate(214.977 -121.937)">
      <path id="Union_3" data-name="Union 3" d="M70.792,109,81.387,89.572H92.333L81.239,70.319,59.767,108.882l-21.714-.258.047-.084H22.79l-.009.016H0L62.675,0,73.7,18.868,33.483,89.7H48.644L81.1,31.732l7.824,13.185.092-.06,36.941,64.121h-13.6V109Z" transform="translate(-3389.54 -3935.063)" fill="#fff"/>
    </g>
    <path id="Path_153" data-name="Path 153" d="M-101.393-49.977l-2.1,4.608a28.267,28.267,0,0,0-18.206-6.4c-18.219,0-31.242,13.133-31.242,31.586,0,18.517,13.023,31.808,31.242,31.808a28.218,28.218,0,0,0,17.978-6.23l1.758,4.214H-86.1V-49.976ZM-118.954-6.55c-7.687,0-13.337-5.808-13.337-13.589,0-7.733,5.6-13.542,13.337-13.542,7.687,0,13.337,5.808,13.337,13.542C-105.616-12.358-111.267-6.55-118.954-6.55Zm84.411-45.125A24.767,24.767,0,0,0-53.3-43.77l-2.819-6.144h-14.4V9.668h20.523V-22.148c0-7.583,3.682-12.053,10.081-12.053,5.165,0,7.77,3.44,7.77,10.375V9.668H-11.62v-36.33C-11.62-41.842-20.707-51.675-34.543-51.675Zm67.777,63.3C52.6,11.621,66.64-1.716,66.64-20.123c0-18.469-14.043-31.743-33.405-31.743C13.809-51.865-.171-38.592-.171-20.123-.171-1.716,13.809,11.621,33.234,11.621Zm0-18.436c-7.483,0-12.85-5.43-12.85-13.307s5.367-13.307,12.85-13.307,12.85,5.477,12.85,13.308c0,7.877-5.367,13.307-12.85,13.307Zm81.348-43.1L103.448-14.626,92.187-49.913H69.7L93.972,9.668h18.591l23.953-59.582Zm76.637-.064-2.1,4.608a28.267,28.267,0,0,0-18.205-6.4c-18.219,0-31.242,13.133-31.242,31.586,0,18.517,13.023,31.808,31.242,31.808a28.218,28.218,0,0,0,17.978-6.23l1.758,4.214h15.865V-49.976ZM173.658-6.55c-7.687,0-13.337-5.808-13.337-13.589,0-7.733,5.6-13.542,13.337-13.542,7.687,0,13.337,5.808,13.337,13.542C187-12.358,181.345-6.55,173.658-6.55Z" transform="translate(-2897 -3959.135)" fill="#fff"/>
  </g>
</svg>
